%TF.GenerationSoftware,KiCad,Pcbnew,9.0.6+1*%
%TF.CreationDate,2025-12-31T10:00:21+00:00*%
%TF.ProjectId,ZSWatch-Watch-DevKit,5a535761-7463-4682-9d57-617463682d44,1.2.2*%
%TF.SameCoordinates,Original*%
%TF.FileFunction,Legend,Bot*%
%TF.FilePolarity,Positive*%
%FSLAX46Y46*%
G04 Gerber Fmt 4.6, Leading zero omitted, Abs format (unit mm)*
G04 Created by KiCad (PCBNEW 9.0.6+1) date 2025-12-31 10:00:21*
%MOMM*%
%LPD*%
G01*
G04 APERTURE LIST*
G04 Aperture macros list*
%AMFreePoly0*
4,1,23,0.500000,-0.750000,0.000000,-0.750000,0.000000,-0.745722,-0.065263,-0.745722,-0.191342,-0.711940,-0.304381,-0.646677,-0.396677,-0.554381,-0.461940,-0.441342,-0.495722,-0.315263,-0.495722,-0.250000,-0.500000,-0.250000,-0.500000,0.250000,-0.495722,0.250000,-0.495722,0.315263,-0.461940,0.441342,-0.396677,0.554381,-0.304381,0.646677,-0.191342,0.711940,-0.065263,0.745722,0.000000,0.745722,
0.000000,0.750000,0.500000,0.750000,0.500000,-0.750000,0.500000,-0.750000,$1*%
%AMFreePoly1*
4,1,23,0.000000,0.745722,0.065263,0.745722,0.191342,0.711940,0.304381,0.646677,0.396677,0.554381,0.461940,0.441342,0.495722,0.315263,0.495722,0.250000,0.500000,0.250000,0.500000,-0.250000,0.495722,-0.250000,0.495722,-0.315263,0.461940,-0.441342,0.396677,-0.554381,0.304381,-0.646677,0.191342,-0.711940,0.065263,-0.745722,0.000000,-0.745722,0.000000,-0.750000,-0.500000,-0.750000,
-0.500000,0.750000,0.000000,0.750000,0.000000,0.745722,0.000000,0.745722,$1*%
G04 Aperture macros list end*
%ADD10C,0.000000*%
%ADD11C,0.120000*%
%ADD12R,1.700000X1.700000*%
%ADD13C,1.700000*%
%ADD14C,2.900000*%
%ADD15C,5.000000*%
%ADD16C,0.650000*%
%ADD17O,0.950000X0.650000*%
%ADD18O,0.800000X1.400000*%
%ADD19FreePoly0,0.000000*%
%ADD20FreePoly1,0.000000*%
%ADD21FreePoly0,270.000000*%
%ADD22FreePoly1,270.000000*%
G04 APERTURE END LIST*
D10*
%TO.C,G\u002A\u002A\u002A*%
G36*
X199437297Y-145943910D02*
G01*
X199491213Y-145985174D01*
X199512938Y-146013257D01*
X199540227Y-146078518D01*
X199541507Y-146145955D01*
X199517245Y-146209953D01*
X199467909Y-146264898D01*
X199433285Y-146283339D01*
X199368073Y-146293161D01*
X199349061Y-146292497D01*
X199277568Y-146275237D01*
X199223731Y-146236274D01*
X199189787Y-146177856D01*
X199177976Y-146102230D01*
X199185836Y-146048689D01*
X199214967Y-145993258D01*
X199260302Y-145952964D01*
X199316218Y-145929907D01*
X199377090Y-145926188D01*
X199437297Y-145943910D01*
G37*
G36*
X201564641Y-138136389D02*
G01*
X201622574Y-138166694D01*
X201661605Y-138218412D01*
X201677906Y-138264495D01*
X201680717Y-138334810D01*
X201656042Y-138399482D01*
X201604587Y-138455573D01*
X201569316Y-138474295D01*
X201509904Y-138485343D01*
X201447444Y-138480170D01*
X201393832Y-138458606D01*
X201374366Y-138443947D01*
X201333899Y-138393556D01*
X201315461Y-138335550D01*
X201317354Y-138275530D01*
X201337880Y-138219099D01*
X201375339Y-138171856D01*
X201428035Y-138139403D01*
X201494268Y-138127340D01*
X201564641Y-138136389D01*
G37*
G36*
X200261585Y-138072774D02*
G01*
X200323325Y-138095601D01*
X200375193Y-138136737D01*
X200410931Y-138190321D01*
X200424284Y-138250492D01*
X200419212Y-138291455D01*
X200395214Y-138351417D01*
X200356764Y-138401487D01*
X200309730Y-138432349D01*
X200280165Y-138440425D01*
X200213476Y-138440238D01*
X200151513Y-138417769D01*
X200100076Y-138376978D01*
X200064962Y-138321826D01*
X200051969Y-138256274D01*
X200053647Y-138233081D01*
X200074779Y-138170997D01*
X200115455Y-138119018D01*
X200169725Y-138083309D01*
X200231642Y-138070036D01*
X200261585Y-138072774D01*
G37*
G36*
X200680763Y-145987624D02*
G01*
X200737851Y-146017635D01*
X200783068Y-146068222D01*
X200800864Y-146107673D01*
X200808857Y-146173263D01*
X200794457Y-146237059D01*
X200759793Y-146291736D01*
X200706994Y-146329974D01*
X200701078Y-146332525D01*
X200635302Y-146346326D01*
X200572928Y-146336170D01*
X200518147Y-146306342D01*
X200475150Y-146261130D01*
X200448127Y-146204820D01*
X200441268Y-146141700D01*
X200458765Y-146076055D01*
X200461655Y-146070246D01*
X200502250Y-146019500D01*
X200556564Y-145988711D01*
X200618201Y-145978034D01*
X200680763Y-145987624D01*
G37*
G36*
X196547997Y-141035136D02*
G01*
X196588595Y-141054507D01*
X196634997Y-141098882D01*
X196662074Y-141155789D01*
X196668456Y-141218909D01*
X196652778Y-141281925D01*
X196613670Y-141338520D01*
X196600215Y-141351268D01*
X196573239Y-141369278D01*
X196539845Y-141377430D01*
X196488977Y-141379342D01*
X196463344Y-141378434D01*
X196391320Y-141362355D01*
X196339777Y-141326255D01*
X196308794Y-141270209D01*
X196298449Y-141194293D01*
X196301158Y-141160253D01*
X196315743Y-141124859D01*
X196348379Y-141086826D01*
X196408351Y-141042928D01*
X196475957Y-141024966D01*
X196547997Y-141035136D01*
G37*
G36*
X202423119Y-145387632D02*
G01*
X202484621Y-145407576D01*
X202535163Y-145447854D01*
X202536097Y-145448971D01*
X202573592Y-145514064D01*
X202585693Y-145583698D01*
X202573449Y-145651919D01*
X202537908Y-145712772D01*
X202480119Y-145760303D01*
X202463973Y-145767361D01*
X202411409Y-145776093D01*
X202352636Y-145772250D01*
X202301462Y-145756152D01*
X202268108Y-145733427D01*
X202225980Y-145680458D01*
X202202961Y-145615136D01*
X202201088Y-145544676D01*
X202222399Y-145476292D01*
X202245749Y-145443179D01*
X202296393Y-145406097D01*
X202357946Y-145387360D01*
X202423119Y-145387632D01*
G37*
G36*
X197503577Y-139439530D02*
G01*
X197558162Y-139461237D01*
X197603156Y-139498956D01*
X197633726Y-139552521D01*
X197645040Y-139621768D01*
X197639858Y-139673494D01*
X197618496Y-139724829D01*
X197576196Y-139778412D01*
X197567541Y-139787323D01*
X197541592Y-139806759D01*
X197509366Y-139815652D01*
X197459757Y-139817755D01*
X197389029Y-139808923D01*
X197323854Y-139780293D01*
X197276498Y-139735074D01*
X197250316Y-139676595D01*
X197248661Y-139608186D01*
X197255882Y-139576969D01*
X197285950Y-139516133D01*
X197330586Y-139472137D01*
X197384956Y-139444814D01*
X197444231Y-139434001D01*
X197503577Y-139439530D01*
G37*
G36*
X199996801Y-144109818D02*
G01*
X200048145Y-144147671D01*
X200082386Y-144203530D01*
X200094840Y-144273795D01*
X200092504Y-144315339D01*
X200079869Y-144354599D01*
X200051173Y-144393561D01*
X200038761Y-144406694D01*
X200004483Y-144435416D01*
X199975962Y-144450014D01*
X199911570Y-144454809D01*
X199840799Y-144436548D01*
X199781606Y-144393157D01*
X199761282Y-144370500D01*
X199743371Y-144342544D01*
X199737575Y-144311346D01*
X199739816Y-144264339D01*
X199743112Y-144237620D01*
X199764901Y-144172983D01*
X199806254Y-144128075D01*
X199869204Y-144100318D01*
X199933035Y-144093573D01*
X199996801Y-144109818D01*
G37*
G36*
X201007697Y-139972090D02*
G01*
X201062099Y-140004196D01*
X201102110Y-140054482D01*
X201122156Y-140120354D01*
X201123022Y-140129374D01*
X201116732Y-140201865D01*
X201085445Y-140260452D01*
X201029351Y-140304755D01*
X201022991Y-140308056D01*
X200955929Y-140327069D01*
X200890257Y-140319255D01*
X200830668Y-140286053D01*
X200781857Y-140228902D01*
X200779338Y-140224638D01*
X200761304Y-140184616D01*
X200753889Y-140150428D01*
X200753896Y-140148843D01*
X200766445Y-140088493D01*
X200798269Y-140031439D01*
X200842511Y-139990087D01*
X200878017Y-139972808D01*
X200944478Y-139960762D01*
X201007697Y-139972090D01*
G37*
G36*
X202924925Y-139200014D02*
G01*
X202986262Y-139242990D01*
X202999736Y-139257262D01*
X203015570Y-139282846D01*
X203022791Y-139316560D01*
X203024507Y-139368617D01*
X203022285Y-139414450D01*
X203007866Y-139469570D01*
X202976529Y-139509283D01*
X202924225Y-139540531D01*
X202909573Y-139546420D01*
X202844685Y-139555240D01*
X202781419Y-139538883D01*
X202725533Y-139499740D01*
X202682787Y-139440203D01*
X202680962Y-139436439D01*
X202663819Y-139370485D01*
X202675002Y-139306782D01*
X202714200Y-139247228D01*
X202731159Y-139230814D01*
X202792555Y-139194002D01*
X202858750Y-139183710D01*
X202924925Y-139200014D01*
G37*
G36*
X204384523Y-143026905D02*
G01*
X204422758Y-143032037D01*
X204456546Y-143049024D01*
X204497058Y-143083128D01*
X204524188Y-143109488D01*
X204546101Y-143137987D01*
X204555064Y-143167918D01*
X204556372Y-143210662D01*
X204545111Y-143285019D01*
X204512933Y-143341214D01*
X204459607Y-143378405D01*
X204420915Y-143391168D01*
X204352158Y-143394969D01*
X204289787Y-143376362D01*
X204238909Y-143338431D01*
X204204636Y-143284259D01*
X204192076Y-143216930D01*
X204192611Y-143200105D01*
X204209366Y-143128504D01*
X204247589Y-143073888D01*
X204304544Y-143039064D01*
X204377498Y-143026832D01*
X204384523Y-143026905D01*
G37*
G36*
X203504822Y-144612641D02*
G01*
X203532916Y-144633275D01*
X203576004Y-144677251D01*
X203598318Y-144727041D01*
X203604692Y-144791295D01*
X203604686Y-144798336D01*
X203603009Y-144841659D01*
X203594799Y-144871008D01*
X203574917Y-144897180D01*
X203538226Y-144930973D01*
X203495256Y-144965203D01*
X203457745Y-144984189D01*
X203419813Y-144989495D01*
X203349863Y-144977673D01*
X203290649Y-144943921D01*
X203247442Y-144893186D01*
X203223156Y-144830423D01*
X203220704Y-144760592D01*
X203243001Y-144688649D01*
X203274221Y-144646652D01*
X203326582Y-144610578D01*
X203387965Y-144591290D01*
X203450125Y-144591180D01*
X203504822Y-144612641D01*
G37*
G36*
X198068791Y-144878190D02*
G01*
X198104041Y-144894541D01*
X198151076Y-144937655D01*
X198179720Y-144994022D01*
X198188382Y-145056944D01*
X198175474Y-145119724D01*
X198139406Y-145175665D01*
X198132748Y-145182294D01*
X198098695Y-145209219D01*
X198069319Y-145223185D01*
X198062965Y-145224386D01*
X197984348Y-145228923D01*
X197919636Y-145210255D01*
X197864660Y-145167241D01*
X197846173Y-145142386D01*
X197834494Y-145106540D01*
X197831331Y-145053722D01*
X197831371Y-145045302D01*
X197835031Y-144997232D01*
X197847858Y-144962295D01*
X197874410Y-144927102D01*
X197876514Y-144924738D01*
X197931841Y-144881957D01*
X197995977Y-144866430D01*
X198068791Y-144878190D01*
G37*
G36*
X198475203Y-138643612D02*
G01*
X198547164Y-138659845D01*
X198604223Y-138695099D01*
X198644408Y-138744489D01*
X198665744Y-138803130D01*
X198666257Y-138866139D01*
X198643976Y-138928631D01*
X198596926Y-138985722D01*
X198588734Y-138992775D01*
X198554752Y-139016432D01*
X198518989Y-139027278D01*
X198468130Y-139029878D01*
X198449601Y-139029687D01*
X198406023Y-139025270D01*
X198373523Y-139011395D01*
X198338937Y-138983319D01*
X198301822Y-138939860D01*
X198274115Y-138874926D01*
X198271910Y-138807527D01*
X198295123Y-138743002D01*
X198343667Y-138686686D01*
X198363934Y-138671127D01*
X198407799Y-138649112D01*
X198458488Y-138643076D01*
X198475203Y-138643612D01*
G37*
G36*
X173573294Y-145168277D02*
G01*
X173649020Y-145184621D01*
X173730571Y-145219602D01*
X173792119Y-145270833D01*
X173835280Y-145319990D01*
X173835280Y-145247861D01*
X173835280Y-145175733D01*
X173914073Y-145175733D01*
X173992866Y-145175733D01*
X173992866Y-145634165D01*
X173992866Y-146092597D01*
X173914073Y-146092597D01*
X173835280Y-146092597D01*
X173835200Y-145831147D01*
X173834592Y-145756326D01*
X173832535Y-145673650D01*
X173829289Y-145602245D01*
X173825127Y-145547904D01*
X173820323Y-145516420D01*
X173813038Y-145494607D01*
X173772212Y-145425627D01*
X173712019Y-145370146D01*
X173638953Y-145333070D01*
X173559504Y-145319307D01*
X173505781Y-145318993D01*
X173505781Y-145238573D01*
X173505781Y-145158153D01*
X173573294Y-145168277D01*
G37*
G36*
X166382177Y-145168127D02*
G01*
X166466226Y-145188115D01*
X166550452Y-145226598D01*
X166615095Y-145278455D01*
X166657953Y-145325378D01*
X166657953Y-145250555D01*
X166657953Y-145175733D01*
X166736746Y-145175733D01*
X166815539Y-145175733D01*
X166815539Y-145634165D01*
X166815539Y-146092597D01*
X166729583Y-146092597D01*
X166643627Y-146092597D01*
X166643312Y-145816821D01*
X166643213Y-145772509D01*
X166642468Y-145684368D01*
X166640699Y-145618269D01*
X166637525Y-145569547D01*
X166632562Y-145533538D01*
X166625428Y-145505578D01*
X166615738Y-145481002D01*
X166590348Y-145435610D01*
X166531780Y-145373691D01*
X166456864Y-145334695D01*
X166367851Y-145320083D01*
X166314129Y-145318993D01*
X166314129Y-145238573D01*
X166314129Y-145158153D01*
X166382177Y-145168127D01*
G37*
G36*
X172537190Y-142235412D02*
G01*
X172596346Y-142252108D01*
X172641390Y-142285698D01*
X172679315Y-142339868D01*
X172692711Y-142372186D01*
X172702443Y-142434352D01*
X172698480Y-142501161D01*
X172682374Y-142564538D01*
X172655678Y-142616408D01*
X172619945Y-142648697D01*
X172595438Y-142662859D01*
X172569804Y-142682562D01*
X172561380Y-142687304D01*
X172528760Y-142693172D01*
X172483732Y-142694452D01*
X172436523Y-142691553D01*
X172397361Y-142684883D01*
X172376471Y-142674849D01*
X172365663Y-142664221D01*
X172338847Y-142646032D01*
X172307718Y-142617848D01*
X172277271Y-142570329D01*
X172254780Y-142515172D01*
X172245715Y-142463121D01*
X172249858Y-142417826D01*
X172278498Y-142341802D01*
X172332651Y-142273183D01*
X172358304Y-142251222D01*
X172384393Y-142238516D01*
X172419811Y-142232963D01*
X172474200Y-142231739D01*
X172537190Y-142235412D01*
G37*
G36*
X165074862Y-142812092D02*
G01*
X165139430Y-142825074D01*
X165202191Y-142854745D01*
X165249908Y-142895054D01*
X165259028Y-142907193D01*
X165273031Y-142936231D01*
X165279997Y-142975441D01*
X165282047Y-143033995D01*
X165277590Y-143107085D01*
X165259943Y-143166369D01*
X165226009Y-143210175D01*
X165172759Y-143244336D01*
X165154839Y-143252297D01*
X165103137Y-143264925D01*
X165039345Y-143264304D01*
X165007282Y-143260256D01*
X164971661Y-143251844D01*
X164955776Y-143242412D01*
X164953976Y-143238542D01*
X164935700Y-143227396D01*
X164932981Y-143226939D01*
X164911548Y-143213742D01*
X164883796Y-143188000D01*
X164881654Y-143185677D01*
X164859863Y-143154853D01*
X164847502Y-143116270D01*
X164841118Y-143059539D01*
X164844883Y-142979125D01*
X164870186Y-142907816D01*
X164916553Y-142855368D01*
X164982865Y-142823002D01*
X165068001Y-142811942D01*
X165074862Y-142812092D01*
G37*
G36*
X169332256Y-142544865D02*
G01*
X169355738Y-142571305D01*
X169391976Y-142631351D01*
X169406483Y-142698110D01*
X169401689Y-142779805D01*
X169400168Y-142789325D01*
X169388495Y-142831627D01*
X169366093Y-142867686D01*
X169326458Y-142908643D01*
X169313190Y-142920965D01*
X169280597Y-142948418D01*
X169252320Y-142962904D01*
X169217374Y-142968562D01*
X169164768Y-142969528D01*
X169117341Y-142968143D01*
X169073381Y-142961305D01*
X169050395Y-142948039D01*
X169038241Y-142936522D01*
X169016010Y-142926550D01*
X169006590Y-142924078D01*
X168981771Y-142904855D01*
X168959667Y-142876104D01*
X168950113Y-142849348D01*
X168946825Y-142836246D01*
X168928624Y-142811942D01*
X168923513Y-142806506D01*
X168910623Y-142772215D01*
X168907902Y-142723854D01*
X168915160Y-142671414D01*
X168932206Y-142624886D01*
X168939472Y-142612758D01*
X168970731Y-142570810D01*
X169007417Y-142530994D01*
X169020650Y-142518624D01*
X169045860Y-142498959D01*
X169072210Y-142488337D01*
X169108868Y-142483970D01*
X169165003Y-142483069D01*
X169272448Y-142482918D01*
X169332256Y-142544865D01*
G37*
G36*
X176061997Y-142483033D02*
G01*
X176105336Y-142488323D01*
X176140357Y-142502356D01*
X176179746Y-142529004D01*
X176202937Y-142548113D01*
X176234646Y-142581185D01*
X176250796Y-142607980D01*
X176260282Y-142629693D01*
X176280978Y-142652376D01*
X176286934Y-142657824D01*
X176300822Y-142687186D01*
X176309822Y-142730348D01*
X176311652Y-142752006D01*
X176307426Y-142801448D01*
X176286817Y-142847939D01*
X176280317Y-142859372D01*
X176263227Y-142894607D01*
X176256374Y-142917623D01*
X176246588Y-142938619D01*
X176221408Y-142965606D01*
X176191079Y-142988511D01*
X176165884Y-142998180D01*
X176148481Y-143002665D01*
X176119433Y-143019214D01*
X176115919Y-143021627D01*
X176082008Y-143034271D01*
X176037423Y-143040421D01*
X175991804Y-143040054D01*
X175954790Y-143033145D01*
X175936021Y-143019669D01*
X175922021Y-143005768D01*
X175891510Y-142998180D01*
X175867536Y-142995383D01*
X175855246Y-142987047D01*
X175853323Y-142981701D01*
X175837545Y-142958772D01*
X175811045Y-142927520D01*
X175779081Y-142881900D01*
X175751167Y-142804382D01*
X175744357Y-142767501D01*
X175743334Y-142732616D01*
X175752542Y-142698621D01*
X175773915Y-142652601D01*
X175817076Y-142585721D01*
X175874592Y-142529004D01*
X175899219Y-142511439D01*
X175934469Y-142492750D01*
X175972887Y-142484376D01*
X176027158Y-142482444D01*
X176061997Y-142483033D01*
G37*
G36*
X162749894Y-145063980D02*
G01*
X162754118Y-145168570D01*
X162836492Y-145172866D01*
X162918867Y-145177162D01*
X162918867Y-145240915D01*
X162918867Y-145304667D01*
X162832911Y-145304667D01*
X162746955Y-145304667D01*
X162746955Y-145605973D01*
X162746885Y-145649474D01*
X162745902Y-145752290D01*
X162743610Y-145830958D01*
X162739818Y-145888778D01*
X162734340Y-145929049D01*
X162726986Y-145955071D01*
X162722038Y-145965602D01*
X162682640Y-146017220D01*
X162625769Y-146061231D01*
X162560717Y-146090090D01*
X162547610Y-146093662D01*
X162488138Y-146104056D01*
X162430789Y-146101178D01*
X162362005Y-146084657D01*
X162315117Y-146067844D01*
X162285096Y-146046194D01*
X162277514Y-146017414D01*
X162289084Y-145976634D01*
X162297368Y-145958762D01*
X162313995Y-145941010D01*
X162337275Y-145942919D01*
X162347743Y-145945855D01*
X162387520Y-145953526D01*
X162435101Y-145959708D01*
X162447756Y-145960862D01*
X162487471Y-145960871D01*
X162515772Y-145949779D01*
X162546128Y-145923152D01*
X162589369Y-145879911D01*
X162589369Y-145592289D01*
X162589369Y-145304667D01*
X162460435Y-145304667D01*
X162331501Y-145304667D01*
X162331501Y-145240200D01*
X162331501Y-145175733D01*
X162459807Y-145175733D01*
X162588113Y-145175733D01*
X162592323Y-145071869D01*
X162596532Y-144968006D01*
X162671101Y-144963698D01*
X162745670Y-144959390D01*
X162749894Y-145063980D01*
G37*
G36*
X174482456Y-145459125D02*
G01*
X174483004Y-145491836D01*
X174484794Y-145581630D01*
X174487004Y-145648933D01*
X174490181Y-145698461D01*
X174494872Y-145734929D01*
X174501622Y-145763053D01*
X174510979Y-145787549D01*
X174523489Y-145813132D01*
X174538064Y-145837636D01*
X174593087Y-145895599D01*
X174663496Y-145935120D01*
X174743088Y-145954384D01*
X174825659Y-145951571D01*
X174905005Y-145924867D01*
X174912919Y-145920701D01*
X174944906Y-145901460D01*
X174969648Y-145879707D01*
X174988141Y-145851708D01*
X175001383Y-145813728D01*
X175010369Y-145762034D01*
X175016096Y-145692891D01*
X175019560Y-145602565D01*
X175021758Y-145487323D01*
X175026341Y-145175733D01*
X175104132Y-145175733D01*
X175181924Y-145175733D01*
X175181844Y-145487323D01*
X175181768Y-145517935D01*
X175180696Y-145611347D01*
X175178518Y-145696408D01*
X175175436Y-145768044D01*
X175171652Y-145821180D01*
X175167368Y-145850740D01*
X175134438Y-145927273D01*
X175076180Y-146000057D01*
X174999678Y-146055895D01*
X174909730Y-146090325D01*
X174868379Y-146097497D01*
X174772485Y-146098319D01*
X174676646Y-146080304D01*
X174589416Y-146045519D01*
X174519346Y-145996029D01*
X174479950Y-145958302D01*
X174479950Y-146025449D01*
X174479950Y-146092597D01*
X174401157Y-146092597D01*
X174322364Y-146092597D01*
X174322364Y-145634165D01*
X174322364Y-145175733D01*
X174400081Y-145175733D01*
X174477799Y-145175733D01*
X174482456Y-145459125D01*
G37*
G36*
X178565459Y-145170232D02*
G01*
X178674022Y-145184393D01*
X178764136Y-145218097D01*
X178838635Y-145272300D01*
X178878032Y-145310027D01*
X178878032Y-145242880D01*
X178878032Y-145175733D01*
X178949662Y-145175733D01*
X179021292Y-145175733D01*
X179021292Y-145634165D01*
X179021292Y-146092597D01*
X178942499Y-146092597D01*
X178863706Y-146092597D01*
X178863391Y-145809658D01*
X178863294Y-145765650D01*
X178862552Y-145675545D01*
X178860810Y-145607726D01*
X178857714Y-145557669D01*
X178852913Y-145520848D01*
X178846052Y-145492741D01*
X178836778Y-145468823D01*
X178801313Y-145411433D01*
X178744115Y-145358722D01*
X178675872Y-145323992D01*
X178601800Y-145307623D01*
X178527115Y-145309997D01*
X178457035Y-145331494D01*
X178396775Y-145372495D01*
X178351551Y-145433382D01*
X178347191Y-145442147D01*
X178337405Y-145464671D01*
X178330217Y-145489030D01*
X178325230Y-145519695D01*
X178322046Y-145561133D01*
X178320265Y-145617815D01*
X178319488Y-145694210D01*
X178319318Y-145794786D01*
X178319318Y-146092597D01*
X178239588Y-146092597D01*
X178159857Y-146092597D01*
X178164376Y-145752354D01*
X178165401Y-145680593D01*
X178167500Y-145580219D01*
X178170765Y-145502023D01*
X178176003Y-145441943D01*
X178184023Y-145395918D01*
X178195631Y-145359884D01*
X178211637Y-145329782D01*
X178232846Y-145301548D01*
X178260068Y-145271121D01*
X178306962Y-145228133D01*
X178367833Y-145193903D01*
X178441214Y-145175280D01*
X178534208Y-145169633D01*
X178565459Y-145170232D01*
G37*
G36*
X180939302Y-141810606D02*
G01*
X180962465Y-141823448D01*
X180971701Y-141831196D01*
X180999126Y-141837774D01*
X181014971Y-141840345D01*
X181026932Y-141852100D01*
X181029356Y-141858691D01*
X181048421Y-141866426D01*
X181058307Y-141868043D01*
X181069910Y-141880752D01*
X181069915Y-141881016D01*
X181079571Y-141900616D01*
X181102144Y-141927312D01*
X181110817Y-141936638D01*
X181123245Y-141956386D01*
X181130372Y-141983564D01*
X181133611Y-142025240D01*
X181134377Y-142088481D01*
X181134214Y-142123342D01*
X181132384Y-142174882D01*
X181127371Y-142208402D01*
X181117762Y-142230968D01*
X181102144Y-142249649D01*
X181101497Y-142250293D01*
X181075078Y-142272624D01*
X181056296Y-142281880D01*
X181049085Y-142283871D01*
X181031225Y-142301058D01*
X181019245Y-142315194D01*
X180991117Y-142336438D01*
X180966124Y-142344152D01*
X180920651Y-142350482D01*
X180866864Y-142353075D01*
X180825211Y-142352535D01*
X180784280Y-142347842D01*
X180754014Y-142335983D01*
X180723984Y-142314114D01*
X180700675Y-142294649D01*
X180660292Y-142258824D01*
X180635966Y-142229322D01*
X180623629Y-142197624D01*
X180619210Y-142155212D01*
X180618641Y-142093565D01*
X180619307Y-142043553D01*
X180622947Y-141994552D01*
X180630723Y-141962877D01*
X180643712Y-141942014D01*
X180660021Y-141920662D01*
X180668782Y-141900557D01*
X180676499Y-141890498D01*
X180703789Y-141870764D01*
X180743994Y-141847738D01*
X180789013Y-141828836D01*
X180844760Y-141814169D01*
X180897462Y-141807802D01*
X180939302Y-141810606D01*
G37*
G36*
X161784292Y-145177316D02*
G01*
X161896207Y-145206930D01*
X161990988Y-145259491D01*
X162068695Y-145335037D01*
X162129387Y-145433601D01*
X162146797Y-145473931D01*
X162159132Y-145517158D01*
X162164859Y-145566899D01*
X162165989Y-145634165D01*
X162159273Y-145731379D01*
X162136079Y-145821236D01*
X162093721Y-145898736D01*
X162029509Y-145970511D01*
X162019069Y-145980179D01*
X161973516Y-146018475D01*
X161929985Y-146045483D01*
X161878379Y-146066523D01*
X161808602Y-146086915D01*
X161764971Y-146095892D01*
X161667722Y-146100072D01*
X161570199Y-146085527D01*
X161479104Y-146054237D01*
X161401141Y-146008182D01*
X161343012Y-145949344D01*
X161313225Y-145907513D01*
X161371650Y-145868849D01*
X161430074Y-145830186D01*
X161476131Y-145874826D01*
X161487681Y-145885470D01*
X161563479Y-145934245D01*
X161647989Y-145958477D01*
X161735846Y-145958064D01*
X161821685Y-145932905D01*
X161900143Y-145882897D01*
X161956505Y-145817539D01*
X161991809Y-145733685D01*
X162003913Y-145633072D01*
X161997331Y-145561743D01*
X161969135Y-145477928D01*
X161922415Y-145408367D01*
X161861171Y-145354887D01*
X161789403Y-145319313D01*
X161711114Y-145303472D01*
X161630303Y-145309191D01*
X161550972Y-145338294D01*
X161477120Y-145392610D01*
X161432159Y-145436123D01*
X161373637Y-145397395D01*
X161359503Y-145387748D01*
X161332353Y-145363603D01*
X161326660Y-145340641D01*
X161342806Y-145312595D01*
X161381170Y-145273201D01*
X161402342Y-145254539D01*
X161480710Y-145206489D01*
X161574362Y-145178750D01*
X161686831Y-145170132D01*
X161784292Y-145177316D01*
G37*
G36*
X166041935Y-145068288D02*
G01*
X166041935Y-145175733D01*
X166120728Y-145175733D01*
X166199521Y-145175733D01*
X166199521Y-145240200D01*
X166199521Y-145304667D01*
X166121517Y-145304667D01*
X166043514Y-145304667D01*
X166039143Y-145609094D01*
X166038916Y-145624689D01*
X166037207Y-145723721D01*
X166035126Y-145799017D01*
X166032260Y-145854901D01*
X166028198Y-145895699D01*
X166022529Y-145925736D01*
X166014841Y-145949337D01*
X166004723Y-145970826D01*
X165976938Y-146011497D01*
X165915599Y-146061930D01*
X165836497Y-146093204D01*
X165797939Y-146101152D01*
X165766865Y-146105456D01*
X165753167Y-146105330D01*
X165708542Y-146099203D01*
X165656891Y-146087272D01*
X165610046Y-146072540D01*
X165579841Y-146058008D01*
X165575625Y-146054774D01*
X165563218Y-146040468D01*
X165563829Y-146020855D01*
X165577062Y-145985634D01*
X165592553Y-145953754D01*
X165608720Y-145939744D01*
X165630865Y-145942339D01*
X165635292Y-145943751D01*
X165702084Y-145958023D01*
X165763350Y-145959332D01*
X165809224Y-145947398D01*
X165810185Y-145946881D01*
X165834335Y-145930264D01*
X165852723Y-145907486D01*
X165866097Y-145874804D01*
X165875200Y-145828474D01*
X165880780Y-145764752D01*
X165883581Y-145679894D01*
X165884349Y-145570158D01*
X165884349Y-145304667D01*
X165748252Y-145304667D01*
X165612155Y-145304667D01*
X165612155Y-145240737D01*
X165612155Y-145176808D01*
X165744670Y-145172689D01*
X165877186Y-145168570D01*
X165881395Y-145064706D01*
X165885604Y-144960843D01*
X165963770Y-144960843D01*
X166041935Y-144960843D01*
X166041935Y-145068288D01*
G37*
G36*
X173008384Y-145175999D02*
G01*
X173086320Y-145194650D01*
X173142313Y-145220320D01*
X173221688Y-145276721D01*
X173291428Y-145349146D01*
X173343532Y-145430264D01*
X173353691Y-145451852D01*
X173372056Y-145501645D01*
X173381088Y-145553023D01*
X173383633Y-145619404D01*
X173379668Y-145692830D01*
X173353804Y-145806258D01*
X173304614Y-145903583D01*
X173232975Y-145983658D01*
X173139765Y-146045334D01*
X173025860Y-146087465D01*
X172987552Y-146095434D01*
X172888657Y-146100740D01*
X172789968Y-146086852D01*
X172697999Y-146055702D01*
X172619262Y-146009222D01*
X172560271Y-145949344D01*
X172530484Y-145907513D01*
X172588201Y-145869317D01*
X172645919Y-145831121D01*
X172702360Y-145882113D01*
X172744820Y-145914444D01*
X172825064Y-145950478D01*
X172909669Y-145962288D01*
X172993517Y-145950872D01*
X173071488Y-145917228D01*
X173138463Y-145862354D01*
X173189323Y-145787245D01*
X173210187Y-145723233D01*
X173219223Y-145640092D01*
X173213387Y-145556062D01*
X173192544Y-145483619D01*
X173151544Y-145417970D01*
X173088544Y-145360739D01*
X173013269Y-145323050D01*
X172931080Y-145305934D01*
X172847339Y-145310421D01*
X172767407Y-145337540D01*
X172696644Y-145388323D01*
X172648428Y-145435467D01*
X172590021Y-145396815D01*
X172570308Y-145383209D01*
X172542523Y-145361389D01*
X172531613Y-145348648D01*
X172532498Y-145344839D01*
X172548799Y-145322792D01*
X172580632Y-145292069D01*
X172621418Y-145258229D01*
X172664575Y-145226829D01*
X172703525Y-145203428D01*
X172752351Y-145185499D01*
X172831600Y-145171648D01*
X172920210Y-145168407D01*
X173008384Y-145175999D01*
G37*
G36*
X161099465Y-145447927D02*
G01*
X161099465Y-146092597D01*
X161020672Y-146092597D01*
X160941879Y-146092597D01*
X160941879Y-145825646D01*
X160941848Y-145798891D01*
X160940709Y-145692143D01*
X160937303Y-145608729D01*
X160930777Y-145544306D01*
X160920281Y-145494527D01*
X160904963Y-145455048D01*
X160883972Y-145421523D01*
X160856458Y-145389608D01*
X160842737Y-145376323D01*
X160774826Y-145332467D01*
X160696595Y-145309255D01*
X160615130Y-145307092D01*
X160537521Y-145326384D01*
X160470856Y-145367537D01*
X160455178Y-145382403D01*
X160435766Y-145406281D01*
X160421219Y-145435081D01*
X160410852Y-145472758D01*
X160403980Y-145523264D01*
X160399918Y-145590553D01*
X160397983Y-145678577D01*
X160397490Y-145791291D01*
X160397490Y-146092597D01*
X160311534Y-146092597D01*
X160225578Y-146092597D01*
X160225867Y-145831147D01*
X160226383Y-145761107D01*
X160228245Y-145671343D01*
X160231208Y-145589693D01*
X160235012Y-145523003D01*
X160239393Y-145478118D01*
X160248331Y-145430970D01*
X160282326Y-145339465D01*
X160336531Y-145267077D01*
X160412258Y-145211782D01*
X160424373Y-145205263D01*
X160464986Y-145186084D01*
X160502903Y-145175177D01*
X160548556Y-145170325D01*
X160612380Y-145169316D01*
X160641600Y-145169881D01*
X160744669Y-145182379D01*
X160827953Y-145212040D01*
X160894720Y-145259911D01*
X160894855Y-145260041D01*
X160919397Y-145281445D01*
X160934116Y-145290341D01*
X160936155Y-145281768D01*
X160938436Y-145248857D01*
X160940250Y-145195624D01*
X160941447Y-145126720D01*
X160941879Y-145046799D01*
X160941879Y-144803257D01*
X161020672Y-144803257D01*
X161099465Y-144803257D01*
X161099465Y-145447927D01*
G37*
G36*
X176366926Y-145670847D02*
G01*
X176366047Y-145681170D01*
X176342122Y-145795109D01*
X176294375Y-145894659D01*
X176224702Y-145977515D01*
X176134998Y-146041375D01*
X176027158Y-146083935D01*
X176015023Y-146087105D01*
X175931162Y-146102802D01*
X175856089Y-146102854D01*
X175776453Y-146087449D01*
X175682898Y-146054487D01*
X175585588Y-145996410D01*
X175509997Y-145919829D01*
X175456488Y-145825131D01*
X175425424Y-145712705D01*
X175422554Y-145692607D01*
X175422225Y-145650759D01*
X175582117Y-145650759D01*
X175598532Y-145753805D01*
X175600838Y-145761241D01*
X175630785Y-145817180D01*
X175678356Y-145872234D01*
X175735069Y-145917992D01*
X175792441Y-145946044D01*
X175824404Y-145954264D01*
X175915325Y-145960961D01*
X176005242Y-145940822D01*
X176043030Y-145923831D01*
X176110813Y-145873057D01*
X176161077Y-145806491D01*
X176193303Y-145729149D01*
X176206971Y-145646049D01*
X176201562Y-145562208D01*
X176176559Y-145482642D01*
X176131441Y-145412369D01*
X176065691Y-145356406D01*
X176009832Y-145328402D01*
X175920639Y-145307065D01*
X175831686Y-145311504D01*
X175747970Y-145341217D01*
X175674485Y-145395702D01*
X175622181Y-145466258D01*
X175590303Y-145553482D01*
X175582117Y-145650759D01*
X175422225Y-145650759D01*
X175421646Y-145577149D01*
X175446863Y-145467986D01*
X175496857Y-145369108D01*
X175570277Y-145284504D01*
X175618448Y-145246023D01*
X175700564Y-145201648D01*
X175794305Y-145176666D01*
X175906067Y-145168876D01*
X175906246Y-145168876D01*
X175970146Y-145170458D01*
X176018243Y-145177016D01*
X176063278Y-145191415D01*
X176117992Y-145216517D01*
X176207203Y-145272421D01*
X176283158Y-145349892D01*
X176335584Y-145443009D01*
X176363750Y-145550438D01*
X176366272Y-145646049D01*
X176366926Y-145670847D01*
G37*
G36*
X181284800Y-145806077D02*
G01*
X181284800Y-146436421D01*
X181206007Y-146436421D01*
X181127214Y-146436421D01*
X181127214Y-146200042D01*
X181126979Y-146142509D01*
X181125950Y-146071346D01*
X181124244Y-146014670D01*
X181122018Y-145977201D01*
X181119426Y-145963663D01*
X181117700Y-145964128D01*
X181099994Y-145976490D01*
X181072866Y-146000415D01*
X181005842Y-146049394D01*
X180914196Y-146086290D01*
X180812298Y-146101299D01*
X180706081Y-146092922D01*
X180622633Y-146069586D01*
X180524909Y-146018862D01*
X180446106Y-145947951D01*
X180387831Y-145858859D01*
X180351688Y-145753594D01*
X180339284Y-145634165D01*
X180339757Y-145617245D01*
X180498591Y-145617245D01*
X180501551Y-145674873D01*
X180518140Y-145743566D01*
X180524992Y-145763638D01*
X180568310Y-145839389D01*
X180631682Y-145900839D01*
X180708728Y-145941365D01*
X180722718Y-145945929D01*
X180804156Y-145961933D01*
X180879008Y-145954733D01*
X180957026Y-145923633D01*
X180999696Y-145897518D01*
X181063200Y-145835620D01*
X181104161Y-145756685D01*
X181123355Y-145659482D01*
X181123505Y-145597606D01*
X181104374Y-145507233D01*
X181064399Y-145430497D01*
X181007085Y-145369902D01*
X180935936Y-145327948D01*
X180854456Y-145307139D01*
X180766149Y-145309977D01*
X180674520Y-145338964D01*
X180672436Y-145339941D01*
X180602436Y-145385008D01*
X180551818Y-145446784D01*
X180516645Y-145530034D01*
X180509162Y-145556597D01*
X180498591Y-145617245D01*
X180339757Y-145617245D01*
X180340451Y-145592424D01*
X180357095Y-145486540D01*
X180395062Y-145394880D01*
X180456393Y-145311821D01*
X180459871Y-145308041D01*
X180530865Y-145243247D01*
X180606157Y-145200553D01*
X180692767Y-145177038D01*
X180797716Y-145169781D01*
X180858956Y-145172073D01*
X180946061Y-145187700D01*
X181019783Y-145220465D01*
X181087818Y-145273108D01*
X181127214Y-145310027D01*
X181127214Y-145242880D01*
X181127214Y-145175733D01*
X181206007Y-145175733D01*
X181284800Y-145175733D01*
X181284800Y-145597606D01*
X181284800Y-145806077D01*
G37*
G36*
X182823356Y-145567016D02*
G01*
X182795129Y-145684960D01*
X182744549Y-145794509D01*
X182673091Y-145892458D01*
X182582227Y-145975600D01*
X182473433Y-146040731D01*
X182348181Y-146084646D01*
X182236030Y-146102533D01*
X182104361Y-146100463D01*
X181978260Y-146074449D01*
X181861350Y-146026057D01*
X181757258Y-145956853D01*
X181669607Y-145868402D01*
X181602023Y-145762272D01*
X181589829Y-145735816D01*
X181552739Y-145616156D01*
X181540269Y-145491360D01*
X181541467Y-145478148D01*
X181705608Y-145478148D01*
X181715195Y-145581653D01*
X181746665Y-145680334D01*
X181799400Y-145770127D01*
X181872779Y-145846968D01*
X181966184Y-145906794D01*
X181971519Y-145909331D01*
X182022863Y-145928549D01*
X182081696Y-145939887D01*
X182158481Y-145945450D01*
X182198543Y-145945966D01*
X182316251Y-145933302D01*
X182416757Y-145898311D01*
X182501312Y-145840428D01*
X182571166Y-145759088D01*
X182575271Y-145752964D01*
X182613987Y-145687894D01*
X182637723Y-145627406D01*
X182649629Y-145560600D01*
X182652856Y-145476579D01*
X182651457Y-145412019D01*
X182645754Y-145362672D01*
X182633552Y-145320020D01*
X182612655Y-145272943D01*
X182573684Y-145207308D01*
X182499361Y-145126463D01*
X182407559Y-145067137D01*
X182300442Y-145030607D01*
X182180175Y-145018147D01*
X182147600Y-145018903D01*
X182031846Y-145036247D01*
X181932661Y-145076676D01*
X181849417Y-145140424D01*
X181814337Y-145179325D01*
X181754560Y-145272921D01*
X181718523Y-145373883D01*
X181705608Y-145478148D01*
X181541467Y-145478148D01*
X181551594Y-145366456D01*
X181585891Y-145246478D01*
X181642335Y-145136455D01*
X181720102Y-145041420D01*
X181803146Y-144973746D01*
X181912265Y-144914706D01*
X182029612Y-144877825D01*
X182151341Y-144862543D01*
X182273603Y-144868296D01*
X182392549Y-144894524D01*
X182504331Y-144940664D01*
X182605100Y-145006156D01*
X182691008Y-145090436D01*
X182758207Y-145192944D01*
X182759180Y-145194868D01*
X182806855Y-145318765D01*
X182827756Y-145443883D01*
X182826588Y-145476579D01*
X182823356Y-145567016D01*
G37*
G36*
X164895855Y-141565985D02*
G01*
X164895855Y-142196733D01*
X165092837Y-142192747D01*
X165289820Y-142188761D01*
X165293552Y-141561999D01*
X165297284Y-140935236D01*
X166034922Y-140935236D01*
X166772561Y-140935236D01*
X166772561Y-142675845D01*
X166772561Y-144416455D01*
X166034772Y-144416455D01*
X165296983Y-144416455D01*
X165296983Y-143915155D01*
X165296983Y-143413856D01*
X165341480Y-143374349D01*
X165393407Y-143323321D01*
X165452683Y-143241968D01*
X165487077Y-143154199D01*
X165498149Y-143055380D01*
X165487459Y-142940876D01*
X165486868Y-142937447D01*
X165474727Y-142881876D01*
X165460792Y-142839327D01*
X165447560Y-142817526D01*
X165435963Y-142807592D01*
X165425917Y-142792619D01*
X165422776Y-142783363D01*
X165402586Y-142756381D01*
X165368929Y-142722290D01*
X165327942Y-142687666D01*
X165317478Y-142679919D01*
X165229178Y-142632016D01*
X165131438Y-142604878D01*
X165032099Y-142599902D01*
X164939003Y-142618481D01*
X164894079Y-142637059D01*
X164842824Y-142663712D01*
X164797752Y-142692153D01*
X164765603Y-142718077D01*
X164753118Y-142737181D01*
X164750439Y-142746582D01*
X164731106Y-142763784D01*
X164721173Y-142769870D01*
X164709617Y-142791986D01*
X164708181Y-142800466D01*
X164694560Y-142811942D01*
X164690951Y-142812442D01*
X164673275Y-142830423D01*
X164658484Y-142869806D01*
X164647101Y-142924567D01*
X164639644Y-142988679D01*
X164636634Y-143056118D01*
X164638591Y-143120858D01*
X164646036Y-143176875D01*
X164659488Y-143218143D01*
X164660390Y-143219894D01*
X164672790Y-143250917D01*
X164674137Y-143269832D01*
X164676385Y-143279890D01*
X164694200Y-143305548D01*
X164723869Y-143339627D01*
X164759774Y-143376167D01*
X164796293Y-143409207D01*
X164827806Y-143432789D01*
X164867203Y-143457273D01*
X164867203Y-143927524D01*
X164867203Y-144397774D01*
X164714551Y-144407115D01*
X164702919Y-144407743D01*
X164646957Y-144409752D01*
X164567622Y-144411590D01*
X164468973Y-144413207D01*
X164355071Y-144414552D01*
X164229974Y-144415575D01*
X164097742Y-144416226D01*
X163962436Y-144416455D01*
X163362973Y-144416455D01*
X163362973Y-142675845D01*
X163362973Y-140935236D01*
X164129414Y-140935236D01*
X164895855Y-140935236D01*
X164895855Y-141565985D01*
G37*
G36*
X180172253Y-145560281D02*
G01*
X180173769Y-145634165D01*
X180173611Y-145665311D01*
X180171507Y-145724187D01*
X180165652Y-145767220D01*
X180154412Y-145803444D01*
X180136150Y-145841892D01*
X180091766Y-145913379D01*
X180018851Y-145990711D01*
X179928167Y-146047953D01*
X179816385Y-146087664D01*
X179770603Y-146096015D01*
X179681710Y-146099559D01*
X179588964Y-146090710D01*
X179505739Y-146070218D01*
X179469723Y-146055325D01*
X179422158Y-146030486D01*
X179379321Y-146003360D01*
X179348371Y-145978575D01*
X179336464Y-145960758D01*
X179337626Y-145955944D01*
X179350792Y-145931503D01*
X179373906Y-145898336D01*
X179411349Y-145849246D01*
X179453652Y-145884842D01*
X179474756Y-145899512D01*
X179523102Y-145924182D01*
X179576188Y-145943763D01*
X179652779Y-145958698D01*
X179749991Y-145956024D01*
X179838614Y-145929345D01*
X179914964Y-145880502D01*
X179975354Y-145811340D01*
X180016100Y-145723702D01*
X180026043Y-145691469D01*
X179643367Y-145691469D01*
X179260691Y-145691469D01*
X179269300Y-145601931D01*
X179272408Y-145576861D01*
X179420143Y-145576861D01*
X179714119Y-145576861D01*
X179736842Y-145576823D01*
X179823649Y-145575952D01*
X179899346Y-145574069D01*
X179959550Y-145571356D01*
X179999873Y-145567998D01*
X180015932Y-145564180D01*
X180016351Y-145563442D01*
X180016975Y-145537745D01*
X180004894Y-145497383D01*
X179983390Y-145450933D01*
X179955748Y-145406971D01*
X179949466Y-145398953D01*
X179891786Y-145349749D01*
X179819003Y-145318470D01*
X179737815Y-145305514D01*
X179654919Y-145311279D01*
X179577012Y-145336163D01*
X179510792Y-145380562D01*
X179460650Y-145445496D01*
X179430170Y-145530301D01*
X179420143Y-145576861D01*
X179272408Y-145576861D01*
X179274483Y-145560125D01*
X179304102Y-145443869D01*
X179354560Y-145346986D01*
X179426267Y-145268833D01*
X179519630Y-145208771D01*
X179521086Y-145208057D01*
X179567358Y-145187538D01*
X179609130Y-145175641D01*
X179657425Y-145170223D01*
X179723266Y-145169136D01*
X179782769Y-145170556D01*
X179834475Y-145176215D01*
X179878528Y-145188287D01*
X179926142Y-145208972D01*
X180007253Y-145260010D01*
X180085807Y-145338268D01*
X180143566Y-145431847D01*
X180155890Y-145462536D01*
X180166736Y-145506035D01*
X180169961Y-145537745D01*
X180172253Y-145560281D01*
G37*
G36*
X172397231Y-145600871D02*
G01*
X172395788Y-145689027D01*
X172384503Y-145770504D01*
X172363414Y-145835175D01*
X172323270Y-145902854D01*
X172248389Y-145984162D01*
X172153342Y-146045568D01*
X172037366Y-146087664D01*
X171936531Y-146101130D01*
X171826256Y-146093353D01*
X171718796Y-146065303D01*
X171623891Y-146018608D01*
X171588178Y-145992735D01*
X171567719Y-145965709D01*
X171570549Y-145936610D01*
X171594943Y-145898263D01*
X171632330Y-145849246D01*
X171674633Y-145884842D01*
X171695737Y-145899512D01*
X171744084Y-145924182D01*
X171797170Y-145943763D01*
X171873799Y-145958694D01*
X171970975Y-145956004D01*
X172059582Y-145929334D01*
X172135923Y-145880535D01*
X172196297Y-145811455D01*
X172237005Y-145723942D01*
X172246872Y-145691948D01*
X171869925Y-145688127D01*
X171492978Y-145684306D01*
X171497401Y-145591187D01*
X171502616Y-145539431D01*
X171650244Y-145539431D01*
X171651581Y-145564180D01*
X171652382Y-145564845D01*
X171672767Y-145568655D01*
X171716607Y-145571955D01*
X171779440Y-145574552D01*
X171856807Y-145576251D01*
X171944247Y-145576861D01*
X171959187Y-145576843D01*
X172045271Y-145576041D01*
X172120547Y-145574180D01*
X172180552Y-145571454D01*
X172220828Y-145568056D01*
X172236913Y-145564180D01*
X172237332Y-145563442D01*
X172237957Y-145537745D01*
X172225875Y-145497383D01*
X172204372Y-145450933D01*
X172176729Y-145406971D01*
X172170172Y-145398612D01*
X172110909Y-145348336D01*
X172033810Y-145316448D01*
X171944247Y-145305296D01*
X171931178Y-145305520D01*
X171843035Y-145319712D01*
X171768106Y-145354313D01*
X171711765Y-145406971D01*
X171710304Y-145408955D01*
X171682888Y-145453241D01*
X171661774Y-145499592D01*
X171650244Y-145539431D01*
X171502616Y-145539431D01*
X171502820Y-145537405D01*
X171532925Y-145429586D01*
X171586544Y-145335327D01*
X171661661Y-145257681D01*
X171756256Y-145199700D01*
X171763573Y-145196470D01*
X171811978Y-145180424D01*
X171868899Y-145171832D01*
X171944247Y-145169081D01*
X171944823Y-145169079D01*
X172010639Y-145170236D01*
X172058963Y-145175754D01*
X172100789Y-145187762D01*
X172147111Y-145208393D01*
X172226842Y-145258771D01*
X172306271Y-145337584D01*
X172364897Y-145431847D01*
X172370441Y-145445039D01*
X172388794Y-145516165D01*
X172390943Y-145537745D01*
X172397231Y-145600871D01*
G37*
G36*
X168686996Y-145185289D02*
G01*
X168778492Y-145225434D01*
X168853417Y-145284871D01*
X168898621Y-145332796D01*
X168940079Y-145282501D01*
X168980895Y-145240103D01*
X169043670Y-145199417D01*
X169119717Y-145176823D01*
X169215144Y-145169821D01*
X169227171Y-145169915D01*
X169337819Y-145181921D01*
X169428931Y-145214274D01*
X169501387Y-145267272D01*
X169537479Y-145303364D01*
X169537479Y-145239548D01*
X169537479Y-145175733D01*
X169616272Y-145175733D01*
X169695065Y-145175733D01*
X169695065Y-145634165D01*
X169695065Y-146092597D01*
X169616272Y-146092597D01*
X169537479Y-146092597D01*
X169537479Y-145830166D01*
X169537479Y-145829740D01*
X169536390Y-145711209D01*
X169532592Y-145617293D01*
X169525268Y-145544029D01*
X169513603Y-145487455D01*
X169496779Y-145443608D01*
X169473982Y-145408527D01*
X169444394Y-145378248D01*
X169444006Y-145377908D01*
X169375623Y-145333707D01*
X169300518Y-145311071D01*
X169224441Y-145309349D01*
X169153147Y-145327889D01*
X169092388Y-145366041D01*
X169047915Y-145423151D01*
X169045647Y-145427585D01*
X169035592Y-145449981D01*
X169027954Y-145474795D01*
X169022281Y-145506400D01*
X169018121Y-145549169D01*
X169015023Y-145607472D01*
X169012534Y-145685681D01*
X169010204Y-145788169D01*
X169003905Y-146092597D01*
X168926868Y-146092597D01*
X168849831Y-146092597D01*
X168849831Y-145815377D01*
X168849711Y-145757338D01*
X168848435Y-145660144D01*
X168845076Y-145585055D01*
X168838794Y-145527707D01*
X168828749Y-145483738D01*
X168814102Y-145448786D01*
X168794012Y-145418489D01*
X168767640Y-145388483D01*
X168715725Y-145346512D01*
X168644320Y-145315808D01*
X168568560Y-145306108D01*
X168494611Y-145317216D01*
X168428640Y-145348932D01*
X168376811Y-145401059D01*
X168376661Y-145401278D01*
X168365160Y-145418932D01*
X168356402Y-145436638D01*
X168349950Y-145458481D01*
X168345364Y-145488547D01*
X168342206Y-145530921D01*
X168340037Y-145589689D01*
X168338420Y-145668936D01*
X168336915Y-145772748D01*
X168332571Y-146092597D01*
X168245845Y-146092597D01*
X168159118Y-146092597D01*
X168164232Y-145766680D01*
X168169346Y-145440764D01*
X168212324Y-145354808D01*
X168239834Y-145306959D01*
X168296253Y-145242930D01*
X168368173Y-145199419D01*
X168460543Y-145172797D01*
X168478568Y-145169805D01*
X168584998Y-145166169D01*
X168686996Y-145185289D01*
G37*
G36*
X163887505Y-145869963D02*
G01*
X163860801Y-145949555D01*
X163853575Y-145962871D01*
X163810522Y-146016417D01*
X163749178Y-146057035D01*
X163664686Y-146088158D01*
X163626305Y-146096472D01*
X163537228Y-146100823D01*
X163446717Y-146088152D01*
X163363952Y-146060198D01*
X163298114Y-146018701D01*
X163248365Y-145975021D01*
X163248365Y-146033809D01*
X163248365Y-146092597D01*
X163168082Y-146092597D01*
X163087799Y-146092597D01*
X163092870Y-145752354D01*
X163093082Y-145738112D01*
X163251076Y-145738112D01*
X163251461Y-145771253D01*
X163271939Y-145838022D01*
X163316691Y-145896531D01*
X163382775Y-145942220D01*
X163412794Y-145955380D01*
X163496168Y-145975755D01*
X163577890Y-145974520D01*
X163649716Y-145951391D01*
X163675093Y-145935361D01*
X163716637Y-145890418D01*
X163734533Y-145838300D01*
X163727635Y-145784515D01*
X163694800Y-145734572D01*
X163690959Y-145730839D01*
X163658817Y-145707300D01*
X163617646Y-145691308D01*
X163562612Y-145681990D01*
X163488883Y-145678475D01*
X163391625Y-145679890D01*
X163255528Y-145684306D01*
X163251076Y-145738112D01*
X163093082Y-145738112D01*
X163097942Y-145412112D01*
X163142459Y-145333319D01*
X163147867Y-145323894D01*
X163180088Y-145276657D01*
X163217157Y-145242797D01*
X163270383Y-145211548D01*
X163309572Y-145192393D01*
X163344457Y-145179598D01*
X163381650Y-145172679D01*
X163429926Y-145170038D01*
X163498059Y-145170078D01*
X163549605Y-145171858D01*
X163666162Y-145186834D01*
X163762708Y-145216262D01*
X163836480Y-145259414D01*
X163867055Y-145284173D01*
X163835652Y-145337398D01*
X163827109Y-145351595D01*
X163809012Y-145379524D01*
X163799678Y-145390623D01*
X163789873Y-145386711D01*
X163760637Y-145372952D01*
X163719609Y-145352702D01*
X163656544Y-145327439D01*
X163572260Y-145309492D01*
X163488378Y-145306576D01*
X163411158Y-145318230D01*
X163346857Y-145343995D01*
X163301732Y-145383411D01*
X163300749Y-145384792D01*
X163282750Y-145419662D01*
X163268754Y-145462868D01*
X163260475Y-145505696D01*
X163259625Y-145539434D01*
X163267920Y-145555370D01*
X163270122Y-145555838D01*
X163295576Y-145558274D01*
X163342516Y-145561122D01*
X163405123Y-145564064D01*
X163477581Y-145566783D01*
X163510851Y-145568039D01*
X163605676Y-145574233D01*
X163678726Y-145584488D01*
X163735227Y-145600118D01*
X163780402Y-145622436D01*
X163819474Y-145652756D01*
X163822118Y-145655231D01*
X163867345Y-145716926D01*
X163889413Y-145790462D01*
X163888265Y-145838300D01*
X163887505Y-145869963D01*
G37*
G36*
X165483118Y-145243081D02*
G01*
X165471882Y-145271882D01*
X165451739Y-145324787D01*
X165424850Y-145396139D01*
X165392859Y-145481564D01*
X165357407Y-145576689D01*
X165320136Y-145677143D01*
X165319740Y-145678215D01*
X165283616Y-145775730D01*
X165250396Y-145865280D01*
X165221487Y-145943082D01*
X165198295Y-146005355D01*
X165182227Y-146048317D01*
X165174689Y-146068188D01*
X165172768Y-146072451D01*
X165159595Y-146085389D01*
X165133037Y-146090529D01*
X165085616Y-146089677D01*
X165006756Y-146085434D01*
X164876532Y-145745191D01*
X164845927Y-145665855D01*
X164812775Y-145581428D01*
X164783915Y-145509561D01*
X164760801Y-145453818D01*
X164744889Y-145417760D01*
X164737630Y-145404949D01*
X164732076Y-145414283D01*
X164717475Y-145447122D01*
X164695523Y-145500202D01*
X164667665Y-145569952D01*
X164635343Y-145652805D01*
X164600001Y-145745191D01*
X164471050Y-146085434D01*
X164392220Y-146089657D01*
X164313390Y-146093880D01*
X164151827Y-145662751D01*
X164130077Y-145604634D01*
X164091940Y-145502347D01*
X164057560Y-145409652D01*
X164028204Y-145329992D01*
X164005140Y-145266813D01*
X163989636Y-145223560D01*
X163982957Y-145203677D01*
X163981270Y-145195688D01*
X163984656Y-145182709D01*
X164003897Y-145177041D01*
X164045368Y-145175840D01*
X164115088Y-145175947D01*
X164250107Y-145541036D01*
X164252451Y-145547369D01*
X164287976Y-145642378D01*
X164320400Y-145727317D01*
X164348384Y-145798815D01*
X164370588Y-145853501D01*
X164385674Y-145888003D01*
X164392301Y-145898952D01*
X164398463Y-145885404D01*
X164413271Y-145848321D01*
X164435263Y-145791370D01*
X164463060Y-145718154D01*
X164495287Y-145632275D01*
X164530565Y-145537337D01*
X164661655Y-145182896D01*
X164732715Y-145178672D01*
X164803774Y-145174448D01*
X164863113Y-145329095D01*
X164890795Y-145401237D01*
X164925555Y-145491831D01*
X164961820Y-145586347D01*
X164995110Y-145673111D01*
X165004325Y-145697249D01*
X165029279Y-145763915D01*
X165049416Y-145819637D01*
X165062868Y-145859167D01*
X165067767Y-145877256D01*
X165068191Y-145881027D01*
X165080531Y-145892033D01*
X165082096Y-145891704D01*
X165087054Y-145887028D01*
X165094089Y-145874896D01*
X165104150Y-145852869D01*
X165118186Y-145818507D01*
X165137147Y-145769370D01*
X165161982Y-145703020D01*
X165193639Y-145617018D01*
X165233069Y-145508923D01*
X165281220Y-145376297D01*
X165351342Y-145182896D01*
X165431104Y-145178614D01*
X165510867Y-145174333D01*
X165483118Y-145243081D01*
G37*
G36*
X167916021Y-145855853D02*
G01*
X167897205Y-145937024D01*
X167854298Y-146003219D01*
X167788127Y-146053372D01*
X167699516Y-146086414D01*
X167671807Y-146092733D01*
X167625360Y-146101670D01*
X167593430Y-146105704D01*
X167560726Y-146104642D01*
X167484841Y-146090199D01*
X167407514Y-146062755D01*
X167342020Y-146026495D01*
X167273971Y-145978036D01*
X167273971Y-146035317D01*
X167273971Y-146092597D01*
X167202341Y-146092597D01*
X167130711Y-146092597D01*
X167130711Y-145768342D01*
X167131106Y-145682105D01*
X167131194Y-145677143D01*
X167288297Y-145677143D01*
X167288297Y-145755332D01*
X167288710Y-145782127D01*
X167294090Y-145821814D01*
X167310056Y-145853202D01*
X167342020Y-145889845D01*
X167349227Y-145897121D01*
X167400989Y-145937708D01*
X167453046Y-145961998D01*
X167508123Y-145973654D01*
X167589924Y-145976510D01*
X167659589Y-145960963D01*
X167713645Y-145928615D01*
X167748624Y-145881066D01*
X167761055Y-145819916D01*
X167755728Y-145777533D01*
X167734581Y-145738606D01*
X167695065Y-145710186D01*
X167634780Y-145691199D01*
X167551326Y-145680569D01*
X167442302Y-145677223D01*
X167288297Y-145677143D01*
X167131194Y-145677143D01*
X167133021Y-145574015D01*
X167136433Y-145487499D01*
X167141240Y-145424909D01*
X167147337Y-145388595D01*
X167160901Y-145354311D01*
X167202149Y-145290268D01*
X167256583Y-145235436D01*
X167315671Y-145199404D01*
X167368229Y-145183201D01*
X167456511Y-145168955D01*
X167550287Y-145165543D01*
X167636904Y-145173967D01*
X167683540Y-145185063D01*
X167740176Y-145202956D01*
X167795771Y-145224091D01*
X167843693Y-145245708D01*
X167877310Y-145265046D01*
X167889989Y-145279342D01*
X167889828Y-145281187D01*
X167881652Y-145304579D01*
X167864919Y-145338271D01*
X167861546Y-145344352D01*
X167845213Y-145373868D01*
X167837162Y-145388533D01*
X167825878Y-145386072D01*
X167795513Y-145373622D01*
X167753193Y-145353838D01*
X167702185Y-145333278D01*
X167620826Y-145313447D01*
X167537983Y-145305680D01*
X167462493Y-145310606D01*
X167403191Y-145328856D01*
X167389973Y-145336414D01*
X167337279Y-145382788D01*
X167301491Y-145442081D01*
X167288297Y-145505545D01*
X167288297Y-145558926D01*
X167492443Y-145565474D01*
X167511711Y-145566113D01*
X167593026Y-145569658D01*
X167653347Y-145574418D01*
X167699060Y-145581299D01*
X167736551Y-145591202D01*
X167772204Y-145605031D01*
X167814079Y-145626174D01*
X167868934Y-145670953D01*
X167901603Y-145729368D01*
X167915920Y-145806802D01*
X167915947Y-145819916D01*
X167916021Y-145855853D01*
G37*
G36*
X170515238Y-144875823D02*
G01*
X170595972Y-144894661D01*
X170642535Y-144915026D01*
X170709277Y-144957373D01*
X170766461Y-145008211D01*
X170804871Y-145060237D01*
X170810467Y-145072086D01*
X170830031Y-145140822D01*
X170836188Y-145217751D01*
X170827459Y-145287966D01*
X170808281Y-145339822D01*
X170771397Y-145394992D01*
X170717211Y-145442323D01*
X170642888Y-145483694D01*
X170545588Y-145520985D01*
X170422476Y-145556072D01*
X170381288Y-145566882D01*
X170313672Y-145586208D01*
X170255337Y-145604713D01*
X170215591Y-145619541D01*
X170213666Y-145620398D01*
X170153356Y-145660247D01*
X170116077Y-145711611D01*
X170102066Y-145769127D01*
X170111562Y-145827430D01*
X170144803Y-145881156D01*
X170202028Y-145924941D01*
X170204795Y-145926406D01*
X170239250Y-145941563D01*
X170277200Y-145950722D01*
X170327009Y-145955232D01*
X170397039Y-145956446D01*
X170481901Y-145953391D01*
X170576342Y-145938793D01*
X170660786Y-145909831D01*
X170744814Y-145863955D01*
X170765524Y-145851441D01*
X170801417Y-145835347D01*
X170817220Y-145839346D01*
X170818786Y-145843097D01*
X170830573Y-145870943D01*
X170846808Y-145909003D01*
X170869399Y-145961788D01*
X170792076Y-146006028D01*
X170742485Y-146030558D01*
X170675222Y-146057610D01*
X170609618Y-146078778D01*
X170605282Y-146079945D01*
X170532542Y-146095731D01*
X170460785Y-146102379D01*
X170375550Y-146101277D01*
X170331767Y-146098288D01*
X170210180Y-146077866D01*
X170110154Y-146041049D01*
X170032463Y-145988474D01*
X169977881Y-145920781D01*
X169947181Y-145838609D01*
X169941136Y-145742595D01*
X169941174Y-145742009D01*
X169950022Y-145677372D01*
X169969239Y-145622243D01*
X170001410Y-145574822D01*
X170049126Y-145533306D01*
X170114972Y-145495894D01*
X170201538Y-145460783D01*
X170311412Y-145426172D01*
X170447180Y-145390259D01*
X170457414Y-145387581D01*
X170521259Y-145365420D01*
X170580631Y-145336659D01*
X170627702Y-145305591D01*
X170654644Y-145276507D01*
X170656757Y-145271956D01*
X170665632Y-145236317D01*
X170669233Y-145192100D01*
X170668619Y-145178193D01*
X170650528Y-145119750D01*
X170610167Y-145072266D01*
X170551334Y-145036603D01*
X170477825Y-145013622D01*
X170393437Y-145004186D01*
X170301969Y-145009158D01*
X170207217Y-145029400D01*
X170112978Y-145065774D01*
X170041505Y-145100254D01*
X170015977Y-145043642D01*
X170004162Y-145013436D01*
X170000637Y-144980798D01*
X170015175Y-144955085D01*
X170051008Y-144931626D01*
X170111369Y-144905747D01*
X170128228Y-144899706D01*
X170214296Y-144879315D01*
X170314252Y-144868382D01*
X170417948Y-144867141D01*
X170515238Y-144875823D01*
G37*
G36*
X177034425Y-144871391D02*
G01*
X177132585Y-144882018D01*
X177211845Y-144903565D01*
X177277383Y-144937632D01*
X177334375Y-144985821D01*
X177383507Y-145048670D01*
X177418788Y-145130109D01*
X177428876Y-145213862D01*
X177414631Y-145295615D01*
X177376915Y-145371057D01*
X177316588Y-145435876D01*
X177234513Y-145485761D01*
X177211323Y-145495142D01*
X177153343Y-145515278D01*
X177083581Y-145536686D01*
X177012436Y-145556072D01*
X176985742Y-145562912D01*
X176893486Y-145588774D01*
X176824439Y-145612904D01*
X176774469Y-145637219D01*
X176739447Y-145663637D01*
X176715241Y-145694076D01*
X176709392Y-145704270D01*
X176689265Y-145767176D01*
X176696680Y-145826734D01*
X176730681Y-145880014D01*
X176790312Y-145924086D01*
X176795273Y-145926693D01*
X176829971Y-145941789D01*
X176867844Y-145950851D01*
X176917362Y-145955272D01*
X176987000Y-145956446D01*
X177070219Y-145953515D01*
X177165218Y-145939058D01*
X177249929Y-145910240D01*
X177333844Y-145864544D01*
X177398324Y-145823653D01*
X177429920Y-145888688D01*
X177429957Y-145888764D01*
X177447830Y-145929738D01*
X177451708Y-145953300D01*
X177442729Y-145966356D01*
X177396827Y-145995644D01*
X177302285Y-146044025D01*
X177200459Y-146078555D01*
X177194694Y-146080101D01*
X177121987Y-146095803D01*
X177050445Y-146102393D01*
X176965511Y-146101277D01*
X176921727Y-146098288D01*
X176800140Y-146077866D01*
X176700114Y-146041049D01*
X176622424Y-145988474D01*
X176567842Y-145920781D01*
X176537141Y-145838609D01*
X176531097Y-145742595D01*
X176538459Y-145685147D01*
X176561318Y-145618107D01*
X176601478Y-145562830D01*
X176661771Y-145516671D01*
X176745027Y-145476989D01*
X176854080Y-145441140D01*
X176946712Y-145414611D01*
X177029577Y-145389877D01*
X177092056Y-145369550D01*
X177138060Y-145352134D01*
X177171497Y-145336129D01*
X177196279Y-145320038D01*
X177216315Y-145302364D01*
X177238261Y-145277568D01*
X177254959Y-145242300D01*
X177259194Y-145194230D01*
X177259194Y-145194007D01*
X177255747Y-145149120D01*
X177241238Y-145116513D01*
X177209362Y-145081977D01*
X177161962Y-145048302D01*
X177083946Y-145018977D01*
X176992666Y-145005963D01*
X176894050Y-145009438D01*
X176794029Y-145029583D01*
X176698533Y-145066575D01*
X176630856Y-145100299D01*
X176602433Y-145034638D01*
X176593546Y-145013678D01*
X176584613Y-144984905D01*
X176587934Y-144963980D01*
X176607131Y-144946370D01*
X176645827Y-144927543D01*
X176707643Y-144902964D01*
X176732254Y-144893896D01*
X176775121Y-144881589D01*
X176821520Y-144874177D01*
X176879809Y-144870545D01*
X176958348Y-144869582D01*
X177034425Y-144871391D01*
G37*
G36*
X174104040Y-141655118D02*
G01*
X174107769Y-142296206D01*
X173498316Y-142296206D01*
X173456496Y-142296202D01*
X173314809Y-142296079D01*
X173198565Y-142295713D01*
X173105223Y-142295006D01*
X173032242Y-142293859D01*
X172977081Y-142292174D01*
X172937201Y-142289852D01*
X172910059Y-142286796D01*
X172893117Y-142282905D01*
X172883832Y-142278083D01*
X172879664Y-142272230D01*
X172877790Y-142267549D01*
X172868544Y-142249558D01*
X172852884Y-142227646D01*
X172826430Y-142196139D01*
X172784802Y-142149365D01*
X172767065Y-142130793D01*
X172738389Y-142105543D01*
X172719986Y-142095642D01*
X172714690Y-142094877D01*
X172703525Y-142081316D01*
X172697000Y-142072563D01*
X172672420Y-142066990D01*
X172646985Y-142061517D01*
X172613751Y-142042046D01*
X172583360Y-142028111D01*
X172533608Y-142019649D01*
X172474331Y-142017036D01*
X172414894Y-142020216D01*
X172364664Y-142029132D01*
X172333009Y-142043728D01*
X172312723Y-142057931D01*
X172285379Y-142066990D01*
X172278047Y-142067999D01*
X172244981Y-142085320D01*
X172203894Y-142119852D01*
X172160208Y-142166026D01*
X172119344Y-142218273D01*
X172086726Y-142271024D01*
X172071100Y-142302124D01*
X172051372Y-142351653D01*
X172042162Y-142400102D01*
X172039850Y-142462245D01*
X172043942Y-142524328D01*
X172060847Y-142602075D01*
X172088424Y-142667324D01*
X172124039Y-142712255D01*
X172134723Y-142723912D01*
X172144811Y-142748957D01*
X172153748Y-142764027D01*
X172180626Y-142777408D01*
X172204224Y-142788389D01*
X172216441Y-142806687D01*
X172227515Y-142824684D01*
X172255838Y-142840955D01*
X172287704Y-142853608D01*
X172320111Y-142869253D01*
X172324354Y-142871117D01*
X172354628Y-142876999D01*
X172401658Y-142880976D01*
X172457888Y-142883007D01*
X172515765Y-142883052D01*
X172567734Y-142881071D01*
X172606240Y-142877024D01*
X172623729Y-142870871D01*
X172624897Y-142869415D01*
X172646168Y-142858328D01*
X172681704Y-142848765D01*
X172684417Y-142848221D01*
X172722753Y-142833290D01*
X172746833Y-142811326D01*
X172759681Y-142794621D01*
X172781549Y-142783290D01*
X172787629Y-142781985D01*
X172812974Y-142764464D01*
X172843297Y-142732754D01*
X172871583Y-142694850D01*
X172890818Y-142658746D01*
X172891029Y-142658192D01*
X172896479Y-142646269D01*
X172905148Y-142637690D01*
X172921274Y-142631907D01*
X172949097Y-142628367D01*
X172992855Y-142626521D01*
X173056787Y-142625817D01*
X173145132Y-142625704D01*
X173386883Y-142625704D01*
X173396191Y-142756839D01*
X173396853Y-142768108D01*
X173398607Y-142817375D01*
X173400235Y-142890877D01*
X173401704Y-142985373D01*
X173402981Y-143097624D01*
X173404033Y-143224390D01*
X173404825Y-143362431D01*
X173405325Y-143508507D01*
X173405499Y-143659377D01*
X173405499Y-144430781D01*
X172545939Y-144430781D01*
X171686379Y-144430781D01*
X171686379Y-143377820D01*
X171686379Y-142324858D01*
X171356737Y-142324858D01*
X171027094Y-142324858D01*
X171030820Y-141669444D01*
X171034546Y-141014029D01*
X172567428Y-141014029D01*
X174100311Y-141014029D01*
X174104040Y-141655118D01*
G37*
G36*
X191370305Y-141794796D02*
G01*
X191370305Y-142640030D01*
X191056034Y-142640030D01*
X190741762Y-142640030D01*
X190749572Y-142693753D01*
X190750932Y-142701951D01*
X190764014Y-142753811D01*
X190782368Y-142804779D01*
X190783057Y-142806370D01*
X190800190Y-142850138D01*
X190820875Y-142908588D01*
X190840788Y-142969528D01*
X190844286Y-142980672D01*
X190861196Y-143032020D01*
X190875453Y-143071491D01*
X190884277Y-143091299D01*
X190891572Y-143107233D01*
X190904554Y-143144031D01*
X190919215Y-143191581D01*
X190931149Y-143231923D01*
X190945206Y-143277312D01*
X190954923Y-143306189D01*
X190977971Y-143366826D01*
X191000893Y-143425752D01*
X191017004Y-143464987D01*
X191027952Y-143488652D01*
X191035430Y-143509560D01*
X191040807Y-143547783D01*
X191044977Y-143572012D01*
X191061037Y-143598828D01*
X191069591Y-143610014D01*
X191085307Y-143644691D01*
X191099066Y-143690120D01*
X191106161Y-143718212D01*
X191118324Y-143760376D01*
X191127772Y-143786111D01*
X191135469Y-143801787D01*
X191170706Y-143885728D01*
X191199112Y-143972349D01*
X191206609Y-143997004D01*
X191227394Y-144055138D01*
X191250609Y-144111140D01*
X191263621Y-144142277D01*
X191278751Y-144187221D01*
X191284857Y-144218585D01*
X191290115Y-144248704D01*
X191305838Y-144287521D01*
X191319249Y-144319051D01*
X191327275Y-144359151D01*
X191331995Y-144385925D01*
X191349272Y-144422774D01*
X191362212Y-144443879D01*
X191370305Y-144469334D01*
X191369751Y-144470407D01*
X191362143Y-144473147D01*
X191344556Y-144475603D01*
X191315658Y-144477789D01*
X191274114Y-144479718D01*
X191218591Y-144481406D01*
X191147755Y-144482866D01*
X191060271Y-144484112D01*
X190954807Y-144485158D01*
X190830028Y-144486020D01*
X190684600Y-144486709D01*
X190517189Y-144487242D01*
X190326462Y-144487632D01*
X190111085Y-144487893D01*
X189869723Y-144488039D01*
X189601044Y-144488085D01*
X187831783Y-144488085D01*
X187831783Y-143628525D01*
X187831783Y-142768964D01*
X188137404Y-142768964D01*
X188170073Y-142768918D01*
X188257790Y-142768307D01*
X188334064Y-142767077D01*
X188394591Y-142765339D01*
X188435071Y-142763206D01*
X188451201Y-142760789D01*
X188451224Y-142760765D01*
X188451081Y-142743696D01*
X188439351Y-142714229D01*
X188425972Y-142680312D01*
X188419237Y-142643418D01*
X188416905Y-142621137D01*
X188405744Y-142586114D01*
X188377226Y-142528669D01*
X188355250Y-142472769D01*
X188347063Y-142433684D01*
X188342669Y-142410423D01*
X188325574Y-142375843D01*
X188313121Y-142353331D01*
X188304541Y-142317091D01*
X188302277Y-142302035D01*
X188289329Y-142263211D01*
X188268726Y-142218789D01*
X188256042Y-142193136D01*
X188239419Y-142151886D01*
X188232911Y-142123826D01*
X188232856Y-142121815D01*
X188226670Y-142089286D01*
X188212792Y-142042778D01*
X188194865Y-141993388D01*
X188176535Y-141952210D01*
X188168955Y-141933646D01*
X188155423Y-141893828D01*
X188140437Y-141844765D01*
X188128820Y-141807314D01*
X188107739Y-141747092D01*
X188087930Y-141698096D01*
X188081523Y-141683370D01*
X188063183Y-141634550D01*
X188051627Y-141593934D01*
X188041914Y-141561261D01*
X188030496Y-141542948D01*
X188023066Y-141532203D01*
X188017890Y-141503849D01*
X188015257Y-141486832D01*
X188002420Y-141446741D01*
X187982523Y-141400831D01*
X187969004Y-141371446D01*
X187953188Y-141330278D01*
X187946839Y-141303439D01*
X187945728Y-141294664D01*
X187935363Y-141260076D01*
X187917739Y-141218373D01*
X187910056Y-141201657D01*
X187895016Y-141162661D01*
X187888998Y-141136691D01*
X187883513Y-141111022D01*
X187868860Y-141075880D01*
X187853320Y-141039812D01*
X187839158Y-140993505D01*
X187829506Y-140949562D01*
X189599905Y-140949562D01*
X191370305Y-140949562D01*
X191370305Y-141794796D01*
G37*
G36*
X170282431Y-142733149D02*
G01*
X170282431Y-144459433D01*
X169118444Y-144459366D01*
X167954456Y-144459300D01*
X167872024Y-144425720D01*
X167834060Y-144408985D01*
X167790656Y-144386580D01*
X167763451Y-144368482D01*
X167743844Y-144353580D01*
X167723341Y-144344825D01*
X167710158Y-144339207D01*
X167682799Y-144316429D01*
X167651359Y-144283179D01*
X167622898Y-144247114D01*
X167604475Y-144215891D01*
X167604152Y-144215131D01*
X167583991Y-144178189D01*
X167557037Y-144139637D01*
X167556557Y-144139037D01*
X167547252Y-144126449D01*
X167539904Y-144112429D01*
X167534232Y-144093572D01*
X167529954Y-144066478D01*
X167526786Y-144027744D01*
X167524446Y-143973968D01*
X167522652Y-143901748D01*
X167521121Y-143807682D01*
X167519571Y-143688368D01*
X167518638Y-143583186D01*
X167518381Y-143463735D01*
X167518903Y-143348285D01*
X167520153Y-143242998D01*
X167522079Y-143154036D01*
X167524629Y-143087559D01*
X167534791Y-142897580D01*
X168115872Y-142901321D01*
X168696952Y-142905061D01*
X168724571Y-142955202D01*
X168736264Y-142975275D01*
X168797081Y-143050939D01*
X168874196Y-143105335D01*
X168882225Y-143109592D01*
X168928439Y-143136141D01*
X168967545Y-143161400D01*
X168975741Y-143166828D01*
X169000483Y-143178064D01*
X169033994Y-143184898D01*
X169082888Y-143188323D01*
X169153783Y-143189331D01*
X169217351Y-143188879D01*
X169268018Y-143186145D01*
X169306010Y-143179600D01*
X169339715Y-143167735D01*
X169377524Y-143149038D01*
X169411379Y-143129416D01*
X169449211Y-143102916D01*
X169470507Y-143082001D01*
X169483711Y-143066414D01*
X169505110Y-143055484D01*
X169512389Y-143053861D01*
X169523153Y-143036493D01*
X169523242Y-143035071D01*
X169534526Y-143011958D01*
X169558968Y-142983854D01*
X169560534Y-142982355D01*
X169584776Y-142950269D01*
X169594783Y-142919919D01*
X169595497Y-142911810D01*
X169605464Y-142875423D01*
X169623435Y-142833431D01*
X169634903Y-142805359D01*
X169646771Y-142757093D01*
X169651959Y-142708724D01*
X169649694Y-142669354D01*
X169639201Y-142648083D01*
X169633294Y-142640150D01*
X169621100Y-142610218D01*
X169608902Y-142567538D01*
X169602133Y-142543875D01*
X169583990Y-142502051D01*
X169564485Y-142478092D01*
X169548246Y-142465367D01*
X169537479Y-142448456D01*
X169534060Y-142440904D01*
X169514635Y-142417443D01*
X169483757Y-142387291D01*
X169466990Y-142372128D01*
X169429412Y-142337797D01*
X169401382Y-142311739D01*
X169373427Y-142295397D01*
X169327034Y-142278350D01*
X169272448Y-142264435D01*
X169193515Y-142254788D01*
X169110005Y-142256090D01*
X169032492Y-142267894D01*
X168968227Y-142289074D01*
X168924463Y-142318502D01*
X168922877Y-142320170D01*
X168894504Y-142343773D01*
X168871397Y-142353510D01*
X168863390Y-142356706D01*
X168839626Y-142376899D01*
X168809903Y-142409065D01*
X168780678Y-142445449D01*
X168758407Y-142478297D01*
X168749549Y-142499854D01*
X168746089Y-142510686D01*
X168729083Y-142533609D01*
X168728450Y-142534201D01*
X168718539Y-142539246D01*
X168699746Y-142543391D01*
X168669601Y-142546717D01*
X168625633Y-142549307D01*
X168565369Y-142551242D01*
X168486340Y-142552604D01*
X168386073Y-142553475D01*
X168262098Y-142553938D01*
X168111943Y-142554074D01*
X167515269Y-142554074D01*
X167519972Y-141970290D01*
X167521259Y-141827216D01*
X167522741Y-141703098D01*
X167524470Y-141602556D01*
X167526556Y-141522993D01*
X167529108Y-141461815D01*
X167532235Y-141416426D01*
X167536048Y-141384229D01*
X167540654Y-141362631D01*
X167546165Y-141349034D01*
X167557222Y-141329424D01*
X167581225Y-141285960D01*
X167607292Y-141238007D01*
X167625771Y-141206185D01*
X167646871Y-141176080D01*
X167660363Y-141164452D01*
X167660780Y-141164438D01*
X167680003Y-141154662D01*
X167706787Y-141132219D01*
X167724533Y-141117355D01*
X167768627Y-141089014D01*
X167819970Y-141062611D01*
X167868424Y-141043120D01*
X167903853Y-141035518D01*
X167919897Y-141033283D01*
X167940130Y-141021192D01*
X167940874Y-141020672D01*
X167961903Y-141017822D01*
X168011157Y-141015290D01*
X168088272Y-141013082D01*
X168192886Y-141011201D01*
X168324634Y-141009652D01*
X168483153Y-141008440D01*
X168668081Y-141007569D01*
X168879054Y-141007043D01*
X169115708Y-141006866D01*
X170282431Y-141006866D01*
X170282431Y-142733149D01*
G37*
G36*
X185293886Y-140952565D02*
G01*
X185388145Y-140952850D01*
X185637065Y-140953750D01*
X185858510Y-140954794D01*
X186053349Y-140955995D01*
X186222454Y-140957364D01*
X186366695Y-140958912D01*
X186486941Y-140960653D01*
X186584064Y-140962599D01*
X186658932Y-140964759D01*
X186712418Y-140967148D01*
X186745390Y-140969777D01*
X186758719Y-140972657D01*
X186784108Y-140986321D01*
X186821800Y-140998843D01*
X186826556Y-141000109D01*
X186868649Y-141017871D01*
X186910381Y-141043797D01*
X186918591Y-141049773D01*
X186953547Y-141070233D01*
X186979771Y-141078496D01*
X186994966Y-141083844D01*
X187011050Y-141107148D01*
X187018987Y-141123804D01*
X187037635Y-141135800D01*
X187051596Y-141141344D01*
X187081165Y-141162410D01*
X187116707Y-141192966D01*
X187151017Y-141226319D01*
X187176888Y-141255776D01*
X187187113Y-141274643D01*
X187188390Y-141280941D01*
X187205020Y-141297287D01*
X187212182Y-141302364D01*
X187233463Y-141330649D01*
X187259723Y-141377413D01*
X187288170Y-141436630D01*
X187316011Y-141502276D01*
X187340452Y-141568327D01*
X187358700Y-141628757D01*
X187360756Y-141636930D01*
X187383481Y-141769792D01*
X187383374Y-141899272D01*
X187360481Y-142035777D01*
X187337174Y-142122905D01*
X187309624Y-142198358D01*
X187275814Y-142262647D01*
X187231698Y-142324858D01*
X187209108Y-142352295D01*
X187164204Y-142401873D01*
X187117329Y-142448755D01*
X187073618Y-142488161D01*
X187038206Y-142515310D01*
X187016231Y-142525422D01*
X187014826Y-142525483D01*
X186998487Y-142536167D01*
X186995613Y-142539613D01*
X186972288Y-142555069D01*
X186932299Y-142576296D01*
X186883043Y-142599852D01*
X186831917Y-142622296D01*
X186786319Y-142640186D01*
X186753646Y-142650080D01*
X186713923Y-142661064D01*
X186672006Y-142678138D01*
X186641533Y-142690692D01*
X186609646Y-142697246D01*
X186596448Y-142699877D01*
X186592584Y-142711660D01*
X186593544Y-142712531D01*
X186615397Y-142717151D01*
X186663474Y-142720890D01*
X186735712Y-142723665D01*
X186830048Y-142725392D01*
X186944416Y-142725986D01*
X187287395Y-142725986D01*
X187287395Y-143607036D01*
X187287395Y-144488085D01*
X185930006Y-144486953D01*
X185742506Y-144486776D01*
X185526069Y-144486475D01*
X185335099Y-144486026D01*
X185167806Y-144485362D01*
X185022399Y-144484415D01*
X184897090Y-144483115D01*
X184790087Y-144481396D01*
X184699600Y-144479188D01*
X184623841Y-144476424D01*
X184561017Y-144473034D01*
X184509341Y-144468952D01*
X184467021Y-144464109D01*
X184432267Y-144458436D01*
X184403290Y-144451866D01*
X184378299Y-144444329D01*
X184355505Y-144435759D01*
X184333117Y-144426086D01*
X184322735Y-144421575D01*
X184285164Y-144407712D01*
X184260126Y-144402129D01*
X184240753Y-144395039D01*
X184214467Y-144373477D01*
X184192671Y-144354640D01*
X184169390Y-144344825D01*
X184153765Y-144338698D01*
X184132350Y-144316173D01*
X184117838Y-144298414D01*
X184098668Y-144287521D01*
X184092320Y-144285129D01*
X184067744Y-144264334D01*
X184030886Y-144224812D01*
X183984646Y-144169785D01*
X183931927Y-144102472D01*
X183922439Y-144089066D01*
X183901197Y-144050393D01*
X183892531Y-144020102D01*
X183889346Y-144000585D01*
X183877335Y-143984130D01*
X183867204Y-143969434D01*
X183854123Y-143934164D01*
X183841227Y-143886235D01*
X183829820Y-143840332D01*
X183813447Y-143782863D01*
X183798721Y-143739261D01*
X183788279Y-143702361D01*
X183779590Y-143633676D01*
X183778664Y-143557842D01*
X183785456Y-143486448D01*
X183799922Y-143431082D01*
X183811888Y-143398448D01*
X183828865Y-143343057D01*
X183844006Y-143284862D01*
X183855977Y-143238010D01*
X183867392Y-143201319D01*
X183875331Y-143184580D01*
X183877659Y-143182273D01*
X183892523Y-143160869D01*
X183912116Y-143127114D01*
X183913250Y-143125030D01*
X183962328Y-143048259D01*
X184021017Y-142976861D01*
X184083970Y-142916023D01*
X184145837Y-142870929D01*
X184201269Y-142846766D01*
X184236661Y-142833020D01*
X184275503Y-142807424D01*
X184281517Y-142802566D01*
X184320921Y-142782279D01*
X184367456Y-142769908D01*
X184381658Y-142767493D01*
X184416274Y-142756797D01*
X184432967Y-142743894D01*
X184430045Y-142738250D01*
X184413052Y-142733364D01*
X184378800Y-142729872D01*
X184324443Y-142727596D01*
X184247136Y-142726359D01*
X184144031Y-142725986D01*
X183849154Y-142725986D01*
X183849154Y-141837196D01*
X183849154Y-140948405D01*
X185293886Y-140952565D01*
G37*
G36*
X176043105Y-140861290D02*
G01*
X176047458Y-140869104D01*
X176076205Y-140917643D01*
X176101884Y-140956361D01*
X176119386Y-140977475D01*
X176131623Y-140990978D01*
X176141766Y-141016480D01*
X176141802Y-141017268D01*
X176150284Y-141039990D01*
X176170764Y-141077884D01*
X176199070Y-141123184D01*
X176201182Y-141126377D01*
X176229068Y-141171292D01*
X176248853Y-141208141D01*
X176256374Y-141229221D01*
X176258117Y-141238584D01*
X176275122Y-141260441D01*
X176276120Y-141261096D01*
X176294400Y-141282892D01*
X176312247Y-141317421D01*
X176333086Y-141356579D01*
X176357965Y-141387690D01*
X176375281Y-141409142D01*
X176385308Y-141437843D01*
X176387520Y-141452453D01*
X176403215Y-141482788D01*
X176410139Y-141490657D01*
X176443823Y-141537838D01*
X176466188Y-141583488D01*
X176472672Y-141596907D01*
X176487261Y-141608558D01*
X176490612Y-141609096D01*
X176499916Y-141623573D01*
X176506054Y-141640345D01*
X176524164Y-141674322D01*
X176550057Y-141716970D01*
X176574303Y-141756016D01*
X176593029Y-141788579D01*
X176600198Y-141804467D01*
X176601117Y-141807722D01*
X176613596Y-141829128D01*
X176636013Y-141860537D01*
X176643088Y-141870256D01*
X176663586Y-141904847D01*
X176671828Y-141929938D01*
X176673385Y-141940692D01*
X176684483Y-141952382D01*
X176692573Y-141956303D01*
X176705556Y-141977453D01*
X176719777Y-142008896D01*
X176740544Y-142043872D01*
X176758906Y-142066990D01*
X176759442Y-142067498D01*
X176771611Y-142085683D01*
X176788504Y-142117131D01*
X176797857Y-142135655D01*
X176822549Y-142181867D01*
X176844212Y-142219071D01*
X176858066Y-142238902D01*
X176872356Y-142258370D01*
X176895362Y-142296594D01*
X176921309Y-142344123D01*
X176945284Y-142392314D01*
X176954036Y-142410096D01*
X176973487Y-142443957D01*
X176987728Y-142461406D01*
X176999610Y-142475226D01*
X177020762Y-142507994D01*
X177045427Y-142551537D01*
X177051317Y-142562537D01*
X177099594Y-142650453D01*
X177137023Y-142713904D01*
X177164512Y-142754352D01*
X177182968Y-142773258D01*
X177190929Y-142780082D01*
X177201890Y-142806179D01*
X177207859Y-142825638D01*
X177225988Y-142862172D01*
X177252031Y-142906028D01*
X177276394Y-142944952D01*
X177295038Y-142976479D01*
X177302172Y-142991017D01*
X177308531Y-143004168D01*
X177326614Y-143034894D01*
X177352313Y-143076007D01*
X177376279Y-143115311D01*
X177395203Y-143150316D01*
X177402454Y-143169404D01*
X177402953Y-143173409D01*
X177416195Y-143184418D01*
X177416906Y-143184526D01*
X177430054Y-143198641D01*
X177450111Y-143231853D01*
X177473036Y-143277537D01*
X177475096Y-143281952D01*
X177498097Y-143326810D01*
X177518082Y-143358590D01*
X177530925Y-143370657D01*
X177539125Y-143375171D01*
X177545714Y-143397377D01*
X177552297Y-143424392D01*
X177570784Y-143458427D01*
X177603818Y-143505559D01*
X177631667Y-143552290D01*
X177655820Y-143603454D01*
X177661362Y-143615269D01*
X177680589Y-143645190D01*
X177697172Y-143657177D01*
X177712694Y-143669473D01*
X177724571Y-143699165D01*
X177736317Y-143732204D01*
X177754362Y-143758223D01*
X177764944Y-143769467D01*
X177774930Y-143792450D01*
X177775117Y-143793734D01*
X177784549Y-143814234D01*
X177805443Y-143851363D01*
X177833931Y-143898891D01*
X177866142Y-143950591D01*
X177898207Y-144000235D01*
X177926256Y-144041596D01*
X177946420Y-144068444D01*
X177952687Y-144077277D01*
X177961168Y-144101258D01*
X177961319Y-144103076D01*
X177970590Y-144126674D01*
X177989820Y-144159167D01*
X178017452Y-144200056D01*
X178047124Y-144243962D01*
X178050011Y-144248318D01*
X178068300Y-144280622D01*
X178075776Y-144302588D01*
X178075782Y-144302942D01*
X178084395Y-144325120D01*
X178104428Y-144355241D01*
X178105360Y-144356433D01*
X178124969Y-144385190D01*
X178133080Y-144404254D01*
X178127784Y-144406137D01*
X178097924Y-144408811D01*
X178044483Y-144410955D01*
X177970600Y-144412511D01*
X177879415Y-144413420D01*
X177774064Y-144413625D01*
X177657687Y-144413066D01*
X177182294Y-144409292D01*
X177143153Y-144337662D01*
X177130036Y-144313842D01*
X177095645Y-144252431D01*
X177063413Y-144196011D01*
X177048598Y-144170263D01*
X177018648Y-144117333D01*
X176994163Y-144073030D01*
X176991106Y-144067459D01*
X176962406Y-144019451D01*
X176933277Y-143976090D01*
X176928227Y-143969026D01*
X176908878Y-143937903D01*
X176901044Y-143918052D01*
X176900495Y-143913090D01*
X176889608Y-143883309D01*
X176869661Y-143846238D01*
X176847119Y-143814319D01*
X176841182Y-143807169D01*
X176805949Y-143757656D01*
X176770851Y-143699270D01*
X176744978Y-143646907D01*
X176744203Y-143645046D01*
X176724963Y-143608444D01*
X176705218Y-143583534D01*
X176689786Y-143564219D01*
X176666665Y-143526361D01*
X176641849Y-143479195D01*
X176619583Y-143435069D01*
X176592836Y-143385109D01*
X176571870Y-143349168D01*
X176560912Y-143331927D01*
X176509792Y-143248020D01*
X176474863Y-143182228D01*
X176454969Y-143130708D01*
X176448956Y-143089616D01*
X176455669Y-143055109D01*
X176473952Y-143023345D01*
X176510666Y-142966627D01*
X176534205Y-142907978D01*
X176546212Y-142839514D01*
X176549194Y-142752191D01*
X176548968Y-142730757D01*
X176546458Y-142671963D01*
X176539408Y-142627499D01*
X176525386Y-142586299D01*
X176501960Y-142537301D01*
X176477032Y-142492571D01*
X176443295Y-142440511D01*
X176409786Y-142396079D01*
X176380983Y-142365128D01*
X176361362Y-142353510D01*
X176361210Y-142353507D01*
X176344479Y-142344346D01*
X176318675Y-142322824D01*
X176275683Y-142293277D01*
X176205197Y-142265087D01*
X176120785Y-142246375D01*
X176030153Y-142239370D01*
X176005775Y-142239829D01*
X175933059Y-142246902D01*
X175861918Y-142261000D01*
X175799118Y-142280195D01*
X175751427Y-142302560D01*
X175725613Y-142326164D01*
X175713667Y-142342294D01*
X175693574Y-142353813D01*
X175691985Y-142354035D01*
X175672382Y-142368232D01*
X175643532Y-142400050D01*
X175610083Y-142443187D01*
X175576681Y-142491343D01*
X175547976Y-142538214D01*
X175528613Y-142577500D01*
X175527928Y-142579287D01*
X175516392Y-142622732D01*
X175506687Y-142681859D01*
X175500852Y-142744413D01*
X175499988Y-142761451D01*
X175498999Y-142816199D01*
X175503712Y-142857166D01*
X175516391Y-142896157D01*
X175539298Y-142944978D01*
X175562927Y-142990829D01*
X175609736Y-143072263D01*
X175652076Y-143133122D01*
X175688333Y-143171232D01*
X175716895Y-143184418D01*
X175720985Y-143185260D01*
X175745045Y-143197683D01*
X175777726Y-143220233D01*
X175787967Y-143227766D01*
X175820072Y-143247950D01*
X175840987Y-143256048D01*
X175854117Y-143259896D01*
X175878781Y-143277537D01*
X175901053Y-143289582D01*
X175943693Y-143296829D01*
X176010273Y-143299137D01*
X176120277Y-143299247D01*
X176154309Y-143360022D01*
X176156433Y-143363803D01*
X176179012Y-143403364D01*
X176214478Y-143464832D01*
X176261412Y-143545765D01*
X176318393Y-143643723D01*
X176384002Y-143756264D01*
X176456819Y-143880945D01*
X176535423Y-144015327D01*
X176570185Y-144075058D01*
X176600425Y-144127673D01*
X176622592Y-144166959D01*
X176633449Y-144187239D01*
X176633925Y-144188255D01*
X176651275Y-144220690D01*
X176683244Y-144275444D01*
X176730328Y-144353371D01*
X176734212Y-144360005D01*
X176747514Y-144390045D01*
X176748043Y-144407094D01*
X176741230Y-144407902D01*
X176708677Y-144409077D01*
X176651411Y-144410173D01*
X176571752Y-144411190D01*
X176472021Y-144412124D01*
X176354537Y-144412973D01*
X176221622Y-144413735D01*
X176075594Y-144414408D01*
X175918775Y-144414989D01*
X175753484Y-144415477D01*
X175582042Y-144415868D01*
X175406769Y-144416161D01*
X175229985Y-144416353D01*
X175054010Y-144416442D01*
X174881165Y-144416425D01*
X174713769Y-144416301D01*
X174554144Y-144416067D01*
X174404608Y-144415721D01*
X174267483Y-144415261D01*
X174145088Y-144414684D01*
X174039744Y-144413987D01*
X173953771Y-144413170D01*
X173889489Y-144412228D01*
X173849219Y-144411161D01*
X173835280Y-144409966D01*
X173839446Y-144393250D01*
X173855524Y-144357922D01*
X173878498Y-144317604D01*
X173902770Y-144282840D01*
X173906446Y-144278184D01*
X173927124Y-144246574D01*
X173935562Y-144223709D01*
X173938875Y-144211047D01*
X173957051Y-144187239D01*
X173968196Y-144174281D01*
X173978540Y-144144010D01*
X173978589Y-144142620D01*
X173989619Y-144115126D01*
X174014107Y-144084879D01*
X174016662Y-144082411D01*
X174040140Y-144054794D01*
X174049922Y-144033952D01*
X174053171Y-144022827D01*
X174068868Y-143992007D01*
X174093148Y-143953082D01*
X174109641Y-143927804D01*
X174128701Y-143895608D01*
X174136126Y-143878504D01*
X174137118Y-143874677D01*
X174149827Y-143852036D01*
X174172491Y-143819930D01*
X174183837Y-143804004D01*
X174213934Y-143755067D01*
X174240605Y-143703970D01*
X174251698Y-143681051D01*
X174276557Y-143634404D01*
X174297842Y-143599873D01*
X174326140Y-143559186D01*
X174362128Y-143503750D01*
X174385600Y-143462326D01*
X174393994Y-143439197D01*
X174399319Y-143423165D01*
X174417792Y-143396756D01*
X174426024Y-143387237D01*
X174461530Y-143335876D01*
X174499754Y-143263211D01*
X174520720Y-143224822D01*
X174547321Y-143184418D01*
X174557794Y-143169399D01*
X174583619Y-143127445D01*
X174609484Y-143080555D01*
X174623916Y-143054019D01*
X174642638Y-143024135D01*
X174653680Y-143012506D01*
X174654895Y-143012173D01*
X174666666Y-142996916D01*
X174681394Y-142965947D01*
X174704145Y-142921498D01*
X174733273Y-142878892D01*
X174737222Y-142873951D01*
X174758001Y-142842860D01*
X174766470Y-142820862D01*
X174771384Y-142797498D01*
X174784225Y-142765595D01*
X174799512Y-142737948D01*
X174811734Y-142726098D01*
X174814755Y-142723948D01*
X174829923Y-142703351D01*
X174853316Y-142665611D01*
X174881275Y-142616498D01*
X174886671Y-142606745D01*
X174922407Y-142545027D01*
X174959248Y-142485310D01*
X174990014Y-142439294D01*
X175010529Y-142409187D01*
X175030814Y-142374944D01*
X175038664Y-142355036D01*
X175044114Y-142339635D01*
X175062288Y-142306669D01*
X175088805Y-142265602D01*
X175111355Y-142230800D01*
X175131275Y-142195032D01*
X175138946Y-142173927D01*
X175139424Y-142170297D01*
X175151504Y-142144748D01*
X175174761Y-142112581D01*
X175181309Y-142104637D01*
X175202167Y-142076562D01*
X175210576Y-142060385D01*
X175211249Y-142057576D01*
X175222952Y-142036381D01*
X175244604Y-142005149D01*
X175249502Y-141998373D01*
X175278993Y-141951376D01*
X175304575Y-141902241D01*
X175308926Y-141893014D01*
X175335677Y-141844891D01*
X175363666Y-141804442D01*
X175366645Y-141800685D01*
X175388048Y-141765284D01*
X175396814Y-141735052D01*
X175401376Y-141717467D01*
X175425466Y-141698665D01*
X175442080Y-141689763D01*
X175454118Y-141666744D01*
X175456297Y-141656164D01*
X175471592Y-141623950D01*
X175496697Y-141586040D01*
X175510538Y-141566802D01*
X175531320Y-141533079D01*
X175539675Y-141511858D01*
X175540822Y-141505298D01*
X175554400Y-141493950D01*
X175563822Y-141485058D01*
X175568726Y-141458135D01*
X175572282Y-141434580D01*
X175583052Y-141422320D01*
X175589412Y-141420146D01*
X175597378Y-141401543D01*
X175599099Y-141391816D01*
X175616111Y-141369310D01*
X175623902Y-141362057D01*
X175644125Y-141333302D01*
X175665827Y-141293386D01*
X175695650Y-141234240D01*
X175737933Y-141162749D01*
X175780034Y-141107880D01*
X175782151Y-141105466D01*
X175803491Y-141076751D01*
X175812268Y-141056601D01*
X175812478Y-141053746D01*
X175822095Y-141024806D01*
X175842467Y-140983224D01*
X175868663Y-140938295D01*
X175895750Y-140899312D01*
X175898326Y-140895972D01*
X175918573Y-140864183D01*
X175926876Y-140840743D01*
X175935490Y-140819638D01*
X175958039Y-140792711D01*
X175989203Y-140763678D01*
X176043105Y-140861290D01*
G37*
G36*
X180226927Y-140992545D02*
G01*
X180560578Y-140992578D01*
X180867328Y-140992650D01*
X181148291Y-140992769D01*
X181404584Y-140992943D01*
X181637321Y-140993180D01*
X181847618Y-140993490D01*
X182036590Y-140993878D01*
X182205353Y-140994355D01*
X182355022Y-140994928D01*
X182486713Y-140995605D01*
X182601540Y-140996395D01*
X182700620Y-140997305D01*
X182785067Y-140998344D01*
X182855997Y-140999519D01*
X182914526Y-141000840D01*
X182961769Y-141002314D01*
X182998841Y-141003949D01*
X183026857Y-141005754D01*
X183046934Y-141007736D01*
X183060186Y-141009905D01*
X183067728Y-141012267D01*
X183070677Y-141014831D01*
X183069147Y-141036620D01*
X183048912Y-141065369D01*
X183027156Y-141092700D01*
X183008941Y-141132615D01*
X182996319Y-141162463D01*
X182972953Y-141190335D01*
X182957291Y-141205548D01*
X182946616Y-141229732D01*
X182940797Y-141248621D01*
X182920931Y-141276093D01*
X182919230Y-141277857D01*
X182896022Y-141310404D01*
X182875515Y-141351305D01*
X182866948Y-141370399D01*
X182841434Y-141417808D01*
X182811663Y-141465298D01*
X182781045Y-141510599D01*
X182752707Y-141555070D01*
X182728811Y-141597030D01*
X182702502Y-141647955D01*
X182692068Y-141667605D01*
X182673521Y-141697193D01*
X182661696Y-141708840D01*
X182659780Y-141709521D01*
X182647608Y-141726444D01*
X182633395Y-141758981D01*
X182630294Y-141767071D01*
X182614954Y-141797009D01*
X182601865Y-141809122D01*
X182594408Y-141813704D01*
X182588466Y-141836020D01*
X182585366Y-141852467D01*
X182566977Y-141880752D01*
X182555521Y-141893048D01*
X182545488Y-141916567D01*
X182541136Y-141930529D01*
X182521780Y-141954210D01*
X182521292Y-141954621D01*
X182499143Y-141981944D01*
X182478993Y-142019513D01*
X182466826Y-142045169D01*
X182438043Y-142096700D01*
X182404919Y-142149364D01*
X182375531Y-142189862D01*
X182366770Y-142203598D01*
X182353295Y-142235098D01*
X182343997Y-142253744D01*
X182322890Y-142272944D01*
X182310858Y-142282993D01*
X182301946Y-142310708D01*
X182301775Y-142313802D01*
X182290230Y-142345285D01*
X182266131Y-142379060D01*
X182262013Y-142383649D01*
X182239498Y-142415230D01*
X182230316Y-142440036D01*
X182229046Y-142450248D01*
X182215198Y-142477506D01*
X182209109Y-142484574D01*
X182185829Y-142519997D01*
X182155344Y-142574734D01*
X182120601Y-142643612D01*
X182114093Y-142656050D01*
X182093504Y-142685543D01*
X182076514Y-142697334D01*
X182067622Y-142700299D01*
X182058404Y-142720193D01*
X182051202Y-142747130D01*
X182033334Y-142781140D01*
X182033249Y-142781269D01*
X181998305Y-142835757D01*
X181972668Y-142879900D01*
X181948876Y-142926550D01*
X181937616Y-142947790D01*
X181908903Y-142995431D01*
X181876850Y-143043078D01*
X181857535Y-143071827D01*
X181837113Y-143108043D01*
X181829188Y-143130861D01*
X181825476Y-143145671D01*
X181806652Y-143170961D01*
X181800547Y-143176438D01*
X181788618Y-143190137D01*
X181773809Y-143211979D01*
X181753503Y-143246266D01*
X181725082Y-143297299D01*
X181685928Y-143369382D01*
X181674627Y-143389681D01*
X181640310Y-143447271D01*
X181606119Y-143500373D01*
X181590794Y-143523773D01*
X181562096Y-143571754D01*
X181541737Y-143611115D01*
X181539182Y-143616741D01*
X181523623Y-143645473D01*
X181512695Y-143657177D01*
X181509480Y-143659210D01*
X181495918Y-143679201D01*
X181478582Y-143713637D01*
X181471925Y-143727349D01*
X181451175Y-143760705D01*
X181433428Y-143777654D01*
X181425029Y-143782942D01*
X181413734Y-143806709D01*
X181413436Y-143810974D01*
X181403023Y-143844514D01*
X181381677Y-143888823D01*
X181354773Y-143933749D01*
X181327691Y-143969142D01*
X181308290Y-143995653D01*
X181299126Y-144021045D01*
X181297961Y-144030472D01*
X181285949Y-144050431D01*
X181284761Y-144051268D01*
X181268159Y-144071581D01*
X181245894Y-144107292D01*
X181223337Y-144148620D01*
X181205863Y-144185782D01*
X181198844Y-144208999D01*
X181196377Y-144218366D01*
X181177355Y-144235397D01*
X181167456Y-144241678D01*
X181155866Y-144265582D01*
X181154177Y-144275886D01*
X181141540Y-144287521D01*
X181134950Y-144289945D01*
X181127214Y-144309010D01*
X181119812Y-144330788D01*
X181098562Y-144359151D01*
X181079526Y-144384660D01*
X181069910Y-144413271D01*
X181063167Y-144435412D01*
X181041258Y-144463272D01*
X181022642Y-144483896D01*
X181012606Y-144507213D01*
X181005507Y-144526392D01*
X180983954Y-144552552D01*
X180965282Y-144575293D01*
X180955302Y-144602525D01*
X180954192Y-144614855D01*
X180945751Y-144636120D01*
X180940322Y-144640437D01*
X180913462Y-144644307D01*
X180892082Y-144627763D01*
X180888169Y-144620447D01*
X180871160Y-144590827D01*
X180848308Y-144552552D01*
X180839086Y-144537139D01*
X180815703Y-144496199D01*
X180799946Y-144466007D01*
X180788769Y-144446906D01*
X180763393Y-144417693D01*
X180750490Y-144403735D01*
X180740412Y-144379909D01*
X180738089Y-144368264D01*
X180722505Y-144342266D01*
X180722472Y-144342232D01*
X180703521Y-144316234D01*
X180683108Y-144280358D01*
X180682450Y-144279046D01*
X180664194Y-144245223D01*
X180650025Y-144223054D01*
X180642930Y-144213491D01*
X180621576Y-144182059D01*
X180595185Y-144141361D01*
X180570237Y-144101283D01*
X180555737Y-144074572D01*
X180537797Y-144037925D01*
X180528765Y-144018690D01*
X180506232Y-143974145D01*
X180490589Y-143950588D01*
X180479147Y-143943697D01*
X180472805Y-143938344D01*
X180468218Y-143915045D01*
X180465532Y-143898391D01*
X180453892Y-143886393D01*
X180448066Y-143884718D01*
X180439566Y-143867124D01*
X180432462Y-143848030D01*
X180410914Y-143821926D01*
X180392356Y-143798557D01*
X180382262Y-143768562D01*
X180381142Y-143761679D01*
X180368957Y-143730153D01*
X180346206Y-143684714D01*
X180316450Y-143632713D01*
X180250638Y-143524299D01*
X180289088Y-143451059D01*
X180344417Y-143349717D01*
X180418149Y-143227396D01*
X180422693Y-143220129D01*
X180444045Y-143185204D01*
X180476409Y-143131661D01*
X180517137Y-143063905D01*
X180563580Y-142986336D01*
X180613089Y-142903359D01*
X180776227Y-142629463D01*
X180893817Y-142622044D01*
X180943110Y-142617830D01*
X181002351Y-142607395D01*
X181033348Y-142592683D01*
X181058454Y-142575791D01*
X181096676Y-142561652D01*
X181102889Y-142559719D01*
X181136273Y-142541075D01*
X181179545Y-142508730D01*
X181224965Y-142468315D01*
X181299148Y-142384009D01*
X181353420Y-142291079D01*
X181380262Y-142197656D01*
X181380651Y-142194919D01*
X181389958Y-142150665D01*
X181402013Y-142115341D01*
X181408710Y-142094709D01*
X181400871Y-142055397D01*
X181391484Y-142030715D01*
X181385082Y-141989677D01*
X181376518Y-141933445D01*
X181349522Y-141862140D01*
X181308406Y-141790429D01*
X181257598Y-141727420D01*
X181227883Y-141698560D01*
X181129107Y-141624740D01*
X181023303Y-141578468D01*
X180909046Y-141559257D01*
X180784910Y-141566625D01*
X180752588Y-141572928D01*
X180645258Y-141612081D01*
X180547945Y-141676325D01*
X180463478Y-141763450D01*
X180394687Y-141871247D01*
X180381605Y-141897669D01*
X180365818Y-141936355D01*
X180356922Y-141974760D01*
X180353045Y-142022520D01*
X180352313Y-142089267D01*
X180352504Y-142117383D01*
X180354527Y-142175599D01*
X180359930Y-142216347D01*
X180370194Y-142247730D01*
X180386801Y-142277847D01*
X180412504Y-142321360D01*
X180440341Y-142384052D01*
X180448501Y-142435461D01*
X180438193Y-142480359D01*
X180436085Y-142484992D01*
X180419876Y-142513694D01*
X180407417Y-142525422D01*
X180402459Y-142527822D01*
X180396588Y-142546911D01*
X180395014Y-142556792D01*
X180382620Y-142568400D01*
X180382070Y-142568458D01*
X180369093Y-142581663D01*
X180350683Y-142611594D01*
X180331617Y-142648941D01*
X180316675Y-142684397D01*
X180310632Y-142708654D01*
X180304820Y-142722035D01*
X180284775Y-142744946D01*
X180282441Y-142747182D01*
X180259375Y-142778455D01*
X180239123Y-142818796D01*
X180235550Y-142827228D01*
X180217448Y-142857151D01*
X180200513Y-142869246D01*
X180191390Y-142872090D01*
X180181698Y-142891766D01*
X180177346Y-142910088D01*
X180160543Y-142947665D01*
X180136303Y-142991058D01*
X180110231Y-143030449D01*
X180087930Y-143056023D01*
X180077172Y-143067739D01*
X180067090Y-143092607D01*
X180066611Y-143095738D01*
X180055895Y-143121015D01*
X180033969Y-143161164D01*
X180004662Y-143209042D01*
X179967528Y-143268565D01*
X179927898Y-143334960D01*
X179895432Y-143392146D01*
X179870122Y-143436371D01*
X179843014Y-143479385D01*
X179822825Y-143506754D01*
X179804720Y-143532907D01*
X179787507Y-143573748D01*
X179775363Y-143603465D01*
X179750630Y-143636854D01*
X179733078Y-143657252D01*
X179723266Y-143680886D01*
X179722175Y-143688692D01*
X179710611Y-143700155D01*
X179702433Y-143704098D01*
X179689145Y-143725225D01*
X179687461Y-143729676D01*
X179670028Y-143766040D01*
X179643176Y-143814695D01*
X179612504Y-143866182D01*
X179583611Y-143911043D01*
X179562098Y-143939819D01*
X179546107Y-143962572D01*
X179537028Y-143989630D01*
X179533808Y-144003948D01*
X179515539Y-144029653D01*
X179504082Y-144041948D01*
X179494050Y-144065468D01*
X179490987Y-144077357D01*
X179473171Y-144100776D01*
X179468699Y-144105376D01*
X179448888Y-144132756D01*
X179421887Y-144175944D01*
X179392192Y-144227883D01*
X179383869Y-144242958D01*
X179351900Y-144298870D01*
X179322363Y-144347823D01*
X179300753Y-144380640D01*
X179300709Y-144380701D01*
X179273205Y-144424711D01*
X179251060Y-144470177D01*
X179248869Y-144475539D01*
X179233550Y-144504803D01*
X179221123Y-144516737D01*
X179214920Y-144520939D01*
X179197897Y-144544263D01*
X179177344Y-144581204D01*
X179177205Y-144581481D01*
X179151749Y-144625263D01*
X179129566Y-144644307D01*
X179108092Y-144637852D01*
X179084765Y-144605133D01*
X179057020Y-144545389D01*
X179049738Y-144528799D01*
X179024718Y-144478661D01*
X179000578Y-144438001D01*
X179000456Y-144437824D01*
X178973413Y-144396868D01*
X178949662Y-144358613D01*
X178935184Y-144334002D01*
X178909410Y-144290120D01*
X178880903Y-144241531D01*
X178856514Y-144202039D01*
X178830728Y-144164647D01*
X178812855Y-144143671D01*
X178802253Y-144131842D01*
X178792076Y-144104916D01*
X178792048Y-144104202D01*
X178783644Y-144081094D01*
X178763150Y-144042931D01*
X178734772Y-143997593D01*
X178732192Y-143993717D01*
X178704523Y-143950466D01*
X178684915Y-143916800D01*
X178677468Y-143899722D01*
X178676419Y-143895077D01*
X178663762Y-143869277D01*
X178640396Y-143830423D01*
X178610928Y-143785909D01*
X178579963Y-143743133D01*
X178558733Y-143709870D01*
X178541453Y-143671503D01*
X178531874Y-143646383D01*
X178520786Y-143628525D01*
X178518088Y-143625654D01*
X178504071Y-143602994D01*
X178486230Y-143567639D01*
X178480070Y-143555199D01*
X178461577Y-143525707D01*
X178447580Y-143513917D01*
X178439647Y-143508548D01*
X178433926Y-143485265D01*
X178431240Y-143468611D01*
X178419600Y-143456613D01*
X178414835Y-143455653D01*
X178405274Y-143439833D01*
X178401767Y-143426420D01*
X178385239Y-143400437D01*
X178375326Y-143388056D01*
X178352832Y-143354068D01*
X178322386Y-143301769D01*
X178281746Y-143227407D01*
X178276446Y-143217643D01*
X178258497Y-143186306D01*
X178247688Y-143170103D01*
X178231455Y-143148802D01*
X178210292Y-143113030D01*
X178195460Y-143080555D01*
X178188975Y-143067136D01*
X178174387Y-143055484D01*
X178169186Y-143053752D01*
X178161732Y-143035995D01*
X178160063Y-143027842D01*
X178146506Y-142998064D01*
X178123768Y-142960783D01*
X178113575Y-142945472D01*
X178080402Y-142892619D01*
X178049969Y-142840594D01*
X178036560Y-142817023D01*
X178016925Y-142784692D01*
X178005558Y-142768964D01*
X177999077Y-142759955D01*
X177982542Y-142730861D01*
X177961604Y-142690171D01*
X177957512Y-142682063D01*
X177929987Y-142631679D01*
X177894525Y-142571172D01*
X177857741Y-142511897D01*
X177844420Y-142490829D01*
X177816186Y-142443686D01*
X177796591Y-142407332D01*
X177789256Y-142388298D01*
X177786347Y-142377197D01*
X177768799Y-142354367D01*
X177757101Y-142340954D01*
X177734404Y-142306716D01*
X177709892Y-142263075D01*
X177692824Y-142231419D01*
X177668996Y-142191110D01*
X177651556Y-142166144D01*
X177640087Y-142151264D01*
X177631670Y-142133560D01*
X177631492Y-142132490D01*
X177622313Y-142113302D01*
X177601990Y-142077840D01*
X177574366Y-142032858D01*
X177571023Y-142027523D01*
X177543710Y-141980434D01*
X177524390Y-141940992D01*
X177517062Y-141917260D01*
X177511719Y-141901447D01*
X177488410Y-141884903D01*
X177471794Y-141876047D01*
X177459758Y-141853234D01*
X177458975Y-141846637D01*
X177444695Y-141809995D01*
X177412635Y-141751671D01*
X177363023Y-141672087D01*
X177350328Y-141650565D01*
X177331144Y-141612140D01*
X177319311Y-141591484D01*
X177304794Y-141579906D01*
X177301257Y-141578180D01*
X177288514Y-141558058D01*
X177275212Y-141522602D01*
X177270624Y-141508730D01*
X177256241Y-141477687D01*
X177243562Y-141465298D01*
X177241584Y-141464933D01*
X177225681Y-141449615D01*
X177208108Y-141418739D01*
X177206866Y-141415989D01*
X177189200Y-141378234D01*
X177175338Y-141350690D01*
X177162271Y-141326738D01*
X177143318Y-141291776D01*
X177139983Y-141285817D01*
X177119213Y-141251477D01*
X177089135Y-141204058D01*
X177055048Y-141151951D01*
X177044124Y-141135143D01*
X177014967Y-141086130D01*
X176994636Y-141045617D01*
X176987000Y-141021046D01*
X176987001Y-141020714D01*
X176987335Y-141017482D01*
X176989058Y-141014507D01*
X176993304Y-141011779D01*
X177001211Y-141009286D01*
X177013913Y-141007018D01*
X177032548Y-141004965D01*
X177058250Y-141003116D01*
X177092157Y-141001460D01*
X177135403Y-140999987D01*
X177189126Y-140998685D01*
X177254460Y-140997545D01*
X177332543Y-140996555D01*
X177424509Y-140995706D01*
X177531495Y-140994985D01*
X177654638Y-140994383D01*
X177795072Y-140993889D01*
X177953935Y-140993492D01*
X178132361Y-140993182D01*
X178331487Y-140992948D01*
X178552450Y-140992779D01*
X178796384Y-140992665D01*
X179064426Y-140992594D01*
X179357713Y-140992557D01*
X179677379Y-140992543D01*
X180024562Y-140992540D01*
X180226927Y-140992545D01*
G37*
G36*
X203518754Y-140252714D02*
G01*
X203518754Y-142088600D01*
X202881247Y-142725986D01*
X202243740Y-143363373D01*
X202243740Y-144241592D01*
X202243740Y-145119812D01*
X202201749Y-145137468D01*
X202174676Y-145150324D01*
X202094084Y-145205427D01*
X202022467Y-145278460D01*
X201968177Y-145361414D01*
X201953871Y-145392325D01*
X201921518Y-145501786D01*
X201915270Y-145610827D01*
X201933365Y-145716004D01*
X201974041Y-145813874D01*
X202035538Y-145900994D01*
X202116094Y-145973922D01*
X202213946Y-146029213D01*
X202327335Y-146063425D01*
X202413605Y-146068221D01*
X202511685Y-146049858D01*
X202607131Y-146009439D01*
X202694657Y-145949918D01*
X202768974Y-145874252D01*
X202824795Y-145785396D01*
X202829131Y-145775936D01*
X202860401Y-145672503D01*
X202868587Y-145561172D01*
X202853845Y-145449988D01*
X202816329Y-145347001D01*
X202812500Y-145339875D01*
X202772921Y-145285789D01*
X202717253Y-145229861D01*
X202654499Y-145180256D01*
X202593662Y-145145134D01*
X202530260Y-145117088D01*
X202530260Y-144297388D01*
X202530260Y-143477688D01*
X202716498Y-143291863D01*
X202902736Y-143106039D01*
X203088974Y-143291863D01*
X203275212Y-143477688D01*
X203275158Y-143900512D01*
X203275104Y-144323336D01*
X203207110Y-144351306D01*
X203152772Y-144380862D01*
X203083175Y-144437077D01*
X203020844Y-144506553D01*
X202973977Y-144581204D01*
X202965168Y-144601336D01*
X202942941Y-144681397D01*
X202932477Y-144771979D01*
X202934569Y-144861269D01*
X202950014Y-144937455D01*
X202954582Y-144949686D01*
X202978819Y-144999201D01*
X203011286Y-145051713D01*
X203046812Y-145100019D01*
X203080227Y-145136920D01*
X203106363Y-145155216D01*
X203120215Y-145161881D01*
X203131952Y-145177491D01*
X203141902Y-145188875D01*
X203171669Y-145208192D01*
X203214326Y-145230236D01*
X203245053Y-145243794D01*
X203292705Y-145259297D01*
X203343983Y-145266764D01*
X203411309Y-145268618D01*
X203465825Y-145267451D01*
X203516240Y-145261744D01*
X203560072Y-145248908D01*
X203609405Y-145226363D01*
X203610222Y-145225951D01*
X203712546Y-145159658D01*
X203793040Y-145076475D01*
X203850189Y-144978977D01*
X203882480Y-144869742D01*
X203888399Y-144751348D01*
X203885071Y-144717715D01*
X203856450Y-144608006D01*
X203802730Y-144509555D01*
X203725920Y-144425394D01*
X203628030Y-144358556D01*
X203561732Y-144323385D01*
X203561732Y-143843271D01*
X203561732Y-143363158D01*
X203332485Y-143134246D01*
X203103237Y-142905335D01*
X203454256Y-142554106D01*
X203805274Y-142202877D01*
X203805274Y-140434079D01*
X203805274Y-138665282D01*
X203914000Y-138772369D01*
X203941426Y-138799894D01*
X204005115Y-138866425D01*
X204071126Y-138938139D01*
X204128890Y-139003661D01*
X204235054Y-139127868D01*
X204235000Y-140944835D01*
X204234947Y-142761801D01*
X204172905Y-142787310D01*
X204163719Y-142791375D01*
X204102118Y-142830866D01*
X204039706Y-142888687D01*
X203983754Y-142957242D01*
X203941535Y-143028940D01*
X203927036Y-143063407D01*
X203910531Y-143127020D01*
X203905696Y-143201789D01*
X203911205Y-143280349D01*
X203940874Y-143390222D01*
X203995345Y-143486458D01*
X204073608Y-143567446D01*
X204174659Y-143631580D01*
X204218326Y-143651977D01*
X204266542Y-143668911D01*
X204315259Y-143676617D01*
X204378485Y-143678305D01*
X204451502Y-143673321D01*
X204548772Y-143647347D01*
X204636684Y-143597188D01*
X204720073Y-143520611D01*
X204781000Y-143437790D01*
X204823629Y-143339101D01*
X204841575Y-143236142D01*
X204835572Y-143132888D01*
X204806350Y-143033312D01*
X204754641Y-142941389D01*
X204681177Y-142861092D01*
X204586691Y-142796395D01*
X204521574Y-142761851D01*
X204521574Y-141146569D01*
X204521579Y-141074027D01*
X204521655Y-140864044D01*
X204521815Y-140662843D01*
X204522054Y-140472233D01*
X204522367Y-140294017D01*
X204522747Y-140130004D01*
X204523188Y-139981999D01*
X204523685Y-139851808D01*
X204524232Y-139741237D01*
X204524823Y-139652094D01*
X204525452Y-139586184D01*
X204526114Y-139545313D01*
X204526801Y-139531288D01*
X204533446Y-139538996D01*
X204552533Y-139567650D01*
X204581215Y-139613463D01*
X204616909Y-139672178D01*
X204657031Y-139739537D01*
X204698999Y-139811280D01*
X204740230Y-139883151D01*
X204768500Y-139934940D01*
X204820430Y-140037672D01*
X204875883Y-140155349D01*
X204931327Y-140280379D01*
X204983228Y-140405174D01*
X205012205Y-140481117D01*
X205048964Y-140585874D01*
X205086632Y-140700959D01*
X205123667Y-140821055D01*
X205158530Y-140940845D01*
X205189680Y-141055009D01*
X205215577Y-141158230D01*
X205234681Y-141245190D01*
X205245452Y-141310571D01*
X205247839Y-141330458D01*
X205255279Y-141388415D01*
X205264715Y-141458525D01*
X205274676Y-141529765D01*
X205291668Y-141663729D01*
X205316223Y-141982347D01*
X205320443Y-142307909D01*
X205304578Y-142633394D01*
X205268874Y-142951780D01*
X205213582Y-143256048D01*
X205186291Y-143370790D01*
X205149761Y-143507256D01*
X205108480Y-143647870D01*
X205064508Y-143786180D01*
X205019903Y-143915735D01*
X204976723Y-144030083D01*
X204937028Y-144122772D01*
X204915480Y-144170408D01*
X204887644Y-144235522D01*
X204865498Y-144291127D01*
X204848147Y-144332398D01*
X204817607Y-144394970D01*
X204785250Y-144453133D01*
X204760508Y-144495107D01*
X204722308Y-144562752D01*
X204689266Y-144624182D01*
X204684438Y-144633402D01*
X204632894Y-144723883D01*
X204566455Y-144829814D01*
X204488859Y-144945868D01*
X204403842Y-145066720D01*
X204315140Y-145187044D01*
X204226490Y-145301513D01*
X204141627Y-145404803D01*
X204077223Y-145477242D01*
X203990394Y-145568982D01*
X203893055Y-145667192D01*
X203791033Y-145766226D01*
X203690159Y-145860435D01*
X203596259Y-145944172D01*
X203515163Y-146011791D01*
X203472295Y-146045432D01*
X203224969Y-146226909D01*
X202972146Y-146391910D01*
X202719244Y-146537076D01*
X202471682Y-146659046D01*
X202466204Y-146661501D01*
X202384852Y-146696703D01*
X202294602Y-146733777D01*
X202199390Y-146771310D01*
X202103149Y-146807884D01*
X202009814Y-146842085D01*
X201923319Y-146872497D01*
X201847598Y-146897704D01*
X201786585Y-146916290D01*
X201744215Y-146926840D01*
X201724422Y-146927938D01*
X201723462Y-146919389D01*
X201722221Y-146884113D01*
X201721027Y-146823035D01*
X201719890Y-146737782D01*
X201718818Y-146629980D01*
X201717821Y-146501256D01*
X201716906Y-146353236D01*
X201716083Y-146187546D01*
X201715360Y-146005814D01*
X201714746Y-145809666D01*
X201714250Y-145600727D01*
X201713881Y-145380626D01*
X201713648Y-145150987D01*
X201713558Y-144913438D01*
X201713439Y-142905061D01*
X201405549Y-142577689D01*
X201097660Y-142250317D01*
X201097660Y-141413701D01*
X201097738Y-141242678D01*
X201098018Y-141089033D01*
X201098549Y-140960110D01*
X201099379Y-140853895D01*
X201100555Y-140768375D01*
X201102126Y-140701536D01*
X201104139Y-140651365D01*
X201106642Y-140615848D01*
X201109684Y-140592971D01*
X201113311Y-140580722D01*
X201117573Y-140577086D01*
X201118975Y-140576965D01*
X201141799Y-140567123D01*
X201179060Y-140544615D01*
X201223426Y-140513821D01*
X201247783Y-140495266D01*
X201292230Y-140454776D01*
X201326952Y-140409095D01*
X201361099Y-140347147D01*
X201381073Y-140305504D01*
X201400830Y-140254218D01*
X201410360Y-140207375D01*
X201412832Y-140153082D01*
X201404436Y-140063116D01*
X201370313Y-139955629D01*
X201311916Y-139859794D01*
X201231370Y-139778903D01*
X201130800Y-139716250D01*
X201125719Y-139713832D01*
X201074618Y-139691378D01*
X201033051Y-139679376D01*
X200988345Y-139675371D01*
X200927827Y-139676905D01*
X200874017Y-139681977D01*
X200762564Y-139711230D01*
X200666257Y-139764711D01*
X200585877Y-139841909D01*
X200522205Y-139942313D01*
X200507965Y-139972262D01*
X200487633Y-140025252D01*
X200477905Y-140075848D01*
X200475281Y-140138694D01*
X200482240Y-140220347D01*
X200514551Y-140326990D01*
X200570978Y-140422654D01*
X200649082Y-140503498D01*
X200746423Y-140565680D01*
X200811140Y-140597122D01*
X200811140Y-141479022D01*
X200811140Y-142360923D01*
X201119149Y-142688014D01*
X201427158Y-143015105D01*
X201427158Y-143591161D01*
X201427158Y-144167217D01*
X201251664Y-144338418D01*
X201203586Y-144385337D01*
X201131280Y-144455940D01*
X201047661Y-144537618D01*
X200957727Y-144625489D01*
X200866476Y-144714672D01*
X200778906Y-144800282D01*
X200481642Y-145090944D01*
X200481642Y-145402655D01*
X200481642Y-145714365D01*
X200431010Y-145732674D01*
X200386036Y-145757387D01*
X200332282Y-145800351D01*
X200278223Y-145853956D01*
X200231055Y-145911044D01*
X200197974Y-145964456D01*
X200191985Y-145977488D01*
X200161744Y-146080016D01*
X200159944Y-146121610D01*
X200157157Y-146186034D01*
X200176832Y-146290746D01*
X200219379Y-146389355D01*
X200283406Y-146477065D01*
X200367524Y-146549081D01*
X200395869Y-146566927D01*
X200501131Y-146614579D01*
X200607338Y-146633652D01*
X200714189Y-146624122D01*
X200821382Y-146585965D01*
X200880101Y-146554433D01*
X200940760Y-146510214D01*
X200989960Y-146455418D01*
X201036795Y-146381407D01*
X201054502Y-146349327D01*
X201074274Y-146307850D01*
X201085020Y-146270441D01*
X201089417Y-146226201D01*
X201090144Y-146164227D01*
X201089520Y-146123409D01*
X201085078Y-146064768D01*
X201074863Y-146019016D01*
X201057100Y-145976039D01*
X201016040Y-145905750D01*
X200939969Y-145818682D01*
X200847690Y-145754478D01*
X200768230Y-145712958D01*
X200768196Y-145461254D01*
X200768162Y-145209550D01*
X201000959Y-144980371D01*
X201022327Y-144959353D01*
X201096685Y-144886462D01*
X201169345Y-144815581D01*
X201235640Y-144751245D01*
X201290900Y-144697989D01*
X201330457Y-144660346D01*
X201427158Y-144569499D01*
X201427158Y-145786884D01*
X201427158Y-147004269D01*
X201292912Y-147028056D01*
X201216816Y-147040406D01*
X201119273Y-147054459D01*
X201011390Y-147068710D01*
X200902398Y-147081989D01*
X200801531Y-147093125D01*
X200718021Y-147100948D01*
X200656984Y-147103843D01*
X200572247Y-147104866D01*
X200471126Y-147104121D01*
X200359787Y-147101806D01*
X200244396Y-147098119D01*
X200131118Y-147093257D01*
X200026120Y-147087419D01*
X199935567Y-147080801D01*
X199865624Y-147073603D01*
X199663666Y-147043927D01*
X199298008Y-146970323D01*
X198946078Y-146872593D01*
X198605885Y-146750146D01*
X198275437Y-146602392D01*
X198260467Y-146595022D01*
X198180309Y-146555460D01*
X198119954Y-146525298D01*
X198074293Y-146501766D01*
X198038219Y-146482092D01*
X198006623Y-146463506D01*
X197974396Y-146443236D01*
X197936432Y-146418513D01*
X197914913Y-146404777D01*
X197883591Y-146386341D01*
X197867491Y-146379117D01*
X197860338Y-146376345D01*
X197832363Y-146360043D01*
X197788463Y-146331876D01*
X197733205Y-146295007D01*
X197671152Y-146252600D01*
X197606870Y-146207817D01*
X197544925Y-146163821D01*
X197489882Y-146123776D01*
X197446304Y-146090845D01*
X197418759Y-146068192D01*
X197358573Y-146013177D01*
X197358573Y-145063187D01*
X197530485Y-145063187D01*
X197537694Y-145123889D01*
X197566721Y-145209039D01*
X197614094Y-145294045D01*
X197675615Y-145371706D01*
X197747086Y-145434819D01*
X197765305Y-145446353D01*
X197812657Y-145470799D01*
X197864112Y-145492414D01*
X197914350Y-145506037D01*
X197977512Y-145515357D01*
X198041126Y-145518745D01*
X198095808Y-145515732D01*
X198132177Y-145505848D01*
X198139844Y-145501865D01*
X198172786Y-145486597D01*
X198214681Y-145468641D01*
X198225582Y-145463699D01*
X198284229Y-145425042D01*
X198343944Y-145369063D01*
X198397169Y-145303663D01*
X198436351Y-145236746D01*
X198441325Y-145225371D01*
X198457007Y-145177143D01*
X198465324Y-145121036D01*
X198467984Y-145046799D01*
X198468014Y-145035588D01*
X198466552Y-144974018D01*
X198460597Y-144928427D01*
X198447923Y-144887843D01*
X198426304Y-144841291D01*
X198401076Y-144798370D01*
X198354770Y-144738185D01*
X198302133Y-144684926D01*
X198249557Y-144644821D01*
X198203432Y-144624099D01*
X198160829Y-144614742D01*
X198160829Y-143412496D01*
X198160829Y-142210250D01*
X198017569Y-142210250D01*
X197874309Y-142210250D01*
X197874309Y-143405360D01*
X197874309Y-144600471D01*
X197825376Y-144616620D01*
X197808487Y-144623514D01*
X197756791Y-144655031D01*
X197700752Y-144700352D01*
X197648750Y-144752235D01*
X197609161Y-144803443D01*
X197587807Y-144842895D01*
X197558674Y-144917141D01*
X197538211Y-144995049D01*
X197530485Y-145063187D01*
X197358573Y-145063187D01*
X197358573Y-144158211D01*
X197358573Y-142303246D01*
X197465916Y-142195924D01*
X198547631Y-142195924D01*
X198547987Y-143302608D01*
X198548342Y-144409292D01*
X198884648Y-144721706D01*
X199220954Y-145034121D01*
X199220954Y-145035588D01*
X199220919Y-145344887D01*
X199220885Y-145655654D01*
X199141517Y-145697125D01*
X199090999Y-145727717D01*
X199009077Y-145800378D01*
X198947355Y-145888124D01*
X198907353Y-145986547D01*
X198890590Y-146091245D01*
X198898587Y-146197813D01*
X198932862Y-146301845D01*
X198988659Y-146395209D01*
X199066097Y-146475347D01*
X199162411Y-146534613D01*
X199209102Y-146551910D01*
X199285493Y-146568808D01*
X199366311Y-146576782D01*
X199441326Y-146574984D01*
X199500311Y-146562570D01*
X199520741Y-146554386D01*
X199623981Y-146497089D01*
X199708724Y-146421877D01*
X199772532Y-146332036D01*
X199812965Y-146230852D01*
X199827586Y-146121610D01*
X199826040Y-146076168D01*
X199803774Y-145963695D01*
X199755719Y-145863093D01*
X199682610Y-145775638D01*
X199585188Y-145702606D01*
X199507474Y-145656123D01*
X199507250Y-145283412D01*
X199507026Y-144910702D01*
X199170589Y-144597761D01*
X198834151Y-144284821D01*
X198834151Y-143240373D01*
X198834151Y-142195924D01*
X198690891Y-142195924D01*
X198547631Y-142195924D01*
X197465916Y-142195924D01*
X197981754Y-141680188D01*
X198604935Y-141057131D01*
X198604970Y-140183183D01*
X198605004Y-139309235D01*
X198684238Y-139267834D01*
X198778641Y-139204595D01*
X198853342Y-139125418D01*
X198906641Y-139034992D01*
X198938551Y-138937119D01*
X198949084Y-138835599D01*
X198938251Y-138734234D01*
X198906066Y-138636823D01*
X198852539Y-138547168D01*
X198777682Y-138469069D01*
X198681509Y-138406327D01*
X198663857Y-138397620D01*
X198622214Y-138379970D01*
X198582392Y-138369813D01*
X198534244Y-138365140D01*
X198467627Y-138363939D01*
X198433946Y-138364060D01*
X198378042Y-138366269D01*
X198336158Y-138372779D01*
X198298337Y-138385589D01*
X198254624Y-138406697D01*
X198174637Y-138459005D01*
X198091352Y-138544077D01*
X198024923Y-138651133D01*
X198000426Y-138714742D01*
X197984562Y-138816416D01*
X197993246Y-138919815D01*
X198024897Y-139020484D01*
X198077933Y-139113971D01*
X198150770Y-139195822D01*
X198241828Y-139261584D01*
X198318415Y-139304807D01*
X198318415Y-140123404D01*
X198318415Y-140942001D01*
X198135966Y-141124857D01*
X197953516Y-141307712D01*
X197777816Y-141132434D01*
X197602115Y-140957155D01*
X197602115Y-140523771D01*
X197602115Y-140090387D01*
X197651953Y-140069563D01*
X197662807Y-140064611D01*
X197722495Y-140025703D01*
X197784049Y-139969523D01*
X197839878Y-139903761D01*
X197882389Y-139836111D01*
X197884394Y-139832121D01*
X197905172Y-139786286D01*
X197917244Y-139744930D01*
X197922868Y-139697033D01*
X197924304Y-139631570D01*
X197923694Y-139584824D01*
X197919250Y-139528882D01*
X197908973Y-139484688D01*
X197891073Y-139442028D01*
X197867500Y-139399810D01*
X197804331Y-139316020D01*
X197728446Y-139243875D01*
X197647996Y-139191767D01*
X197646576Y-139191071D01*
X197600380Y-139170589D01*
X197558647Y-139158718D01*
X197510367Y-139153317D01*
X197444529Y-139152249D01*
X197430637Y-139152351D01*
X197370013Y-139154512D01*
X197324782Y-139161165D01*
X197283805Y-139174733D01*
X197235943Y-139197641D01*
X197150581Y-139252756D01*
X197066687Y-139337847D01*
X197002454Y-139443613D01*
X196976626Y-139515752D01*
X196962257Y-139619481D01*
X196971633Y-139722792D01*
X197004707Y-139817808D01*
X197025934Y-139855940D01*
X197095271Y-139949615D01*
X197178359Y-140026985D01*
X197269036Y-140081895D01*
X197315595Y-140102866D01*
X197315595Y-140586932D01*
X197315595Y-141070997D01*
X197533924Y-141289668D01*
X197752253Y-141508338D01*
X197412153Y-141848659D01*
X197072053Y-142188981D01*
X197072053Y-143968877D01*
X197071974Y-144181396D01*
X197071727Y-144397039D01*
X197071323Y-144602959D01*
X197070771Y-144797434D01*
X197070084Y-144978744D01*
X197069271Y-145145167D01*
X197068344Y-145294983D01*
X197067313Y-145426471D01*
X197066188Y-145537911D01*
X197064981Y-145627582D01*
X197063703Y-145693763D01*
X197062363Y-145734733D01*
X197060973Y-145748773D01*
X197058575Y-145747939D01*
X197038890Y-145732563D01*
X197004362Y-145700478D01*
X196958441Y-145655191D01*
X196904578Y-145600208D01*
X196846220Y-145539037D01*
X196786819Y-145475183D01*
X196729824Y-145412154D01*
X196627947Y-145297588D01*
X196628317Y-143478144D01*
X196628686Y-141658699D01*
X196682904Y-141633747D01*
X196760965Y-141586857D01*
X196840631Y-141509425D01*
X196903121Y-141411276D01*
X196922850Y-141369145D01*
X196940271Y-141320186D01*
X196948325Y-141270994D01*
X196950282Y-141207430D01*
X196949483Y-141162745D01*
X196943789Y-141110073D01*
X196929875Y-141062669D01*
X196904562Y-141006565D01*
X196847034Y-140911604D01*
X196774232Y-140836021D01*
X196685663Y-140782655D01*
X196578275Y-140749096D01*
X196497428Y-140739618D01*
X196388659Y-140749935D01*
X196286407Y-140785777D01*
X196194078Y-140845335D01*
X196115078Y-140926797D01*
X196052811Y-141028355D01*
X196051351Y-141031455D01*
X196018612Y-141131978D01*
X196012970Y-141236855D01*
X196034254Y-141349034D01*
X196044274Y-141377976D01*
X196066429Y-141420696D01*
X196100750Y-141465892D01*
X196152443Y-141521145D01*
X196173332Y-141541683D01*
X196221107Y-141584892D01*
X196264058Y-141619106D01*
X196294868Y-141638306D01*
X196341427Y-141658531D01*
X196341427Y-143266709D01*
X196341418Y-143333297D01*
X196341258Y-143543016D01*
X196340914Y-143743996D01*
X196340397Y-143934427D01*
X196339719Y-144112498D01*
X196338895Y-144276399D01*
X196337936Y-144424320D01*
X196336856Y-144554451D01*
X196335667Y-144664980D01*
X196334382Y-144754099D01*
X196333013Y-144819996D01*
X196331574Y-144860862D01*
X196330078Y-144874887D01*
X196328393Y-144874242D01*
X196313741Y-144857842D01*
X196290351Y-144823812D01*
X196262442Y-144778186D01*
X196260781Y-144775336D01*
X196228455Y-144720889D01*
X196197253Y-144669961D01*
X196173717Y-144633233D01*
X196173508Y-144632920D01*
X196155696Y-144602847D01*
X196129713Y-144554591D01*
X196097927Y-144493003D01*
X196062702Y-144422933D01*
X196026405Y-144349231D01*
X195991401Y-144276748D01*
X195960058Y-144210334D01*
X195934740Y-144154838D01*
X195917815Y-144115112D01*
X195911647Y-144096005D01*
X195911156Y-144089624D01*
X195902141Y-144067899D01*
X195897504Y-144061395D01*
X195890626Y-144047238D01*
X195880482Y-144022363D01*
X195865842Y-143983499D01*
X195845476Y-143927378D01*
X195818156Y-143850733D01*
X195782650Y-143750296D01*
X195772643Y-143721119D01*
X195735675Y-143600933D01*
X195698130Y-143461455D01*
X195661675Y-143309900D01*
X195627980Y-143153483D01*
X195598713Y-142999419D01*
X195575544Y-142854920D01*
X195573191Y-142838173D01*
X195539240Y-142491871D01*
X195532027Y-142139355D01*
X195551495Y-141784363D01*
X195597586Y-141430635D01*
X195615936Y-141327339D01*
X195693912Y-140973397D01*
X195792977Y-140636446D01*
X195914420Y-140313320D01*
X196059530Y-140000854D01*
X196229594Y-139695880D01*
X196425903Y-139395233D01*
X196437332Y-139378985D01*
X196663317Y-139082389D01*
X196906833Y-138808092D01*
X197168813Y-138555258D01*
X197450191Y-138323050D01*
X197751900Y-138110631D01*
X198074873Y-137917165D01*
X198104804Y-137900945D01*
X198190867Y-137856530D01*
X198289374Y-137808122D01*
X198394030Y-137758615D01*
X198498536Y-137710906D01*
X198596597Y-137667891D01*
X198681916Y-137632464D01*
X198748195Y-137607522D01*
X198753976Y-137605557D01*
X198799175Y-137590637D01*
X198861751Y-137570432D01*
X198933267Y-137547619D01*
X199005287Y-137524881D01*
X199069373Y-137504896D01*
X199117090Y-137490344D01*
X199149324Y-137480739D01*
X199149588Y-139498089D01*
X199149852Y-141515439D01*
X199464876Y-141848495D01*
X199779900Y-142181551D01*
X199776202Y-143008367D01*
X199772505Y-143835182D01*
X199724836Y-143848852D01*
X199703738Y-143856797D01*
X199647217Y-143892070D01*
X199588999Y-143944616D01*
X199535708Y-144007929D01*
X199493973Y-144075504D01*
X199465773Y-144148182D01*
X199448307Y-144252571D01*
X199454563Y-144357225D01*
X199484732Y-144454269D01*
X199517704Y-144514999D01*
X199589586Y-144605215D01*
X199676865Y-144673522D01*
X199776473Y-144718279D01*
X199885344Y-144737841D01*
X200000410Y-144730565D01*
X200054057Y-144718827D01*
X200129812Y-144690901D01*
X200195630Y-144647853D01*
X200261768Y-144583929D01*
X200283488Y-144558632D01*
X200342690Y-144463901D01*
X200374732Y-144360433D01*
X200379684Y-144247901D01*
X200357614Y-144125978D01*
X200355152Y-144117727D01*
X200319367Y-144040243D01*
X200264913Y-143965515D01*
X200199108Y-143902113D01*
X200129270Y-143858604D01*
X200066188Y-143830700D01*
X200066188Y-142952205D01*
X200066188Y-142073710D01*
X199751049Y-141737271D01*
X199435911Y-141400831D01*
X199436310Y-140820628D01*
X199436710Y-140240425D01*
X199909035Y-139784393D01*
X200381360Y-139328361D01*
X200381360Y-139017249D01*
X200381360Y-138706136D01*
X200432502Y-138687642D01*
X200479902Y-138661699D01*
X200535262Y-138617372D01*
X200590335Y-138562254D01*
X200637928Y-138503559D01*
X200670848Y-138448505D01*
X200672888Y-138443930D01*
X200698295Y-138355632D01*
X200702383Y-138299252D01*
X201033661Y-138299252D01*
X201034374Y-138353814D01*
X201039081Y-138406499D01*
X201049794Y-138449286D01*
X201068395Y-138492653D01*
X201103912Y-138551006D01*
X201162351Y-138621497D01*
X201229475Y-138683616D01*
X201296237Y-138728018D01*
X201355528Y-138758266D01*
X201356558Y-139134033D01*
X201357589Y-139509799D01*
X201686056Y-139815229D01*
X202014524Y-140120659D01*
X202014524Y-141165455D01*
X202014524Y-142210250D01*
X202157784Y-142210250D01*
X202301044Y-142210250D01*
X202300992Y-141103567D01*
X202300941Y-139996883D01*
X201971494Y-139690587D01*
X201642048Y-139384290D01*
X201642048Y-139342015D01*
X202380531Y-139342015D01*
X202388686Y-139449127D01*
X202420760Y-139551683D01*
X202474602Y-139644807D01*
X202548061Y-139723621D01*
X202638986Y-139783248D01*
X202716498Y-139821171D01*
X202716498Y-141015710D01*
X202716498Y-142210250D01*
X202859758Y-142210250D01*
X203003018Y-142210250D01*
X203003018Y-141017273D01*
X203003018Y-139824296D01*
X203099494Y-139760167D01*
X203183299Y-139693908D01*
X203252368Y-139610361D01*
X203295974Y-139515449D01*
X203315198Y-139407405D01*
X203315531Y-139401840D01*
X203309818Y-139282154D01*
X203278814Y-139175868D01*
X203222769Y-139083399D01*
X203141932Y-139005164D01*
X203036553Y-138941580D01*
X202984722Y-138920920D01*
X202881565Y-138901136D01*
X202777866Y-138906216D01*
X202677817Y-138934224D01*
X202585612Y-138983220D01*
X202505443Y-139051266D01*
X202441504Y-139136425D01*
X202397987Y-139236758D01*
X202380531Y-139342015D01*
X201642048Y-139342015D01*
X201642048Y-139072265D01*
X201642048Y-138760240D01*
X201706031Y-138729266D01*
X201746490Y-138704052D01*
X201796143Y-138664177D01*
X201842036Y-138619490D01*
X201889125Y-138559020D01*
X201937503Y-138463190D01*
X201962404Y-138362157D01*
X201964755Y-138259961D01*
X201945482Y-138160641D01*
X201905514Y-138068237D01*
X201845776Y-137986787D01*
X201767195Y-137920331D01*
X201670700Y-137872909D01*
X201668795Y-137872249D01*
X201549038Y-137844197D01*
X201435385Y-137843797D01*
X201329484Y-137870407D01*
X201232982Y-137923382D01*
X201147526Y-138002078D01*
X201074766Y-138105851D01*
X201070385Y-138113659D01*
X201051328Y-138152406D01*
X201040282Y-138189538D01*
X201035107Y-138235128D01*
X201033661Y-138299252D01*
X200702383Y-138299252D01*
X200705482Y-138256502D01*
X200694590Y-138157082D01*
X200665760Y-138067916D01*
X200613470Y-137981084D01*
X200532259Y-137897176D01*
X200429982Y-137832139D01*
X200402733Y-137819335D01*
X200353609Y-137801454D01*
X200303269Y-137792882D01*
X200238100Y-137790679D01*
X200203176Y-137791156D01*
X200147053Y-137796141D01*
X200098813Y-137808994D01*
X200044699Y-137832703D01*
X199955177Y-137888162D01*
X199877442Y-137963258D01*
X199820501Y-138049983D01*
X199784486Y-138144566D01*
X199769532Y-138243238D01*
X199775771Y-138342231D01*
X199803335Y-138437775D01*
X199852358Y-138526101D01*
X199922972Y-138603440D01*
X200015311Y-138666023D01*
X200094772Y-138707543D01*
X200094806Y-138958652D01*
X200094840Y-139209761D01*
X199773658Y-139520948D01*
X199734769Y-139558566D01*
X199658317Y-139632159D01*
X199589678Y-139697751D01*
X199531393Y-139752945D01*
X199486004Y-139795339D01*
X199456052Y-139822536D01*
X199444078Y-139832134D01*
X199443247Y-139825958D01*
X199442106Y-139794165D01*
X199441110Y-139737194D01*
X199440267Y-139657134D01*
X199439585Y-139556077D01*
X199439073Y-139436112D01*
X199438739Y-139299330D01*
X199438591Y-139147819D01*
X199438637Y-138983672D01*
X199438885Y-138808977D01*
X199439344Y-138625825D01*
X199443007Y-137419517D01*
X199564778Y-137395042D01*
X199715564Y-137368873D01*
X199911659Y-137344249D01*
X200118998Y-137326894D01*
X200328535Y-137317363D01*
X200531225Y-137316216D01*
X200718021Y-137324007D01*
X200790449Y-137329924D01*
X200909569Y-137342134D01*
X201038485Y-137357724D01*
X201170804Y-137375759D01*
X201300132Y-137395306D01*
X201420075Y-137415432D01*
X201524240Y-137435203D01*
X201606233Y-137453687D01*
X201642627Y-137463171D01*
X201782180Y-137502610D01*
X201929766Y-137548387D01*
X202073316Y-137596649D01*
X202200762Y-137643543D01*
X202271767Y-137672668D01*
X202369315Y-137715499D01*
X202477943Y-137765392D01*
X202590194Y-137818792D01*
X202698607Y-137872143D01*
X202795724Y-137921889D01*
X202874084Y-137964476D01*
X202883730Y-137970015D01*
X202934777Y-138000421D01*
X202996500Y-138038471D01*
X203063887Y-138080929D01*
X203131926Y-138124560D01*
X203195604Y-138166128D01*
X203249910Y-138202398D01*
X203289831Y-138230135D01*
X203310355Y-138246103D01*
X203314551Y-138250024D01*
X203341188Y-138272307D01*
X203376023Y-138299252D01*
X203381965Y-138303720D01*
X203427588Y-138339557D01*
X203471411Y-138375948D01*
X203518754Y-138416828D01*
X203518754Y-139401840D01*
X203518754Y-140252714D01*
G37*
G36*
X206395390Y-142370010D02*
G01*
X206387573Y-142600652D01*
X206373636Y-142820002D01*
X206353774Y-143019669D01*
X206349404Y-143052400D01*
X206338427Y-143122860D01*
X206324047Y-143205884D01*
X206307194Y-143296942D01*
X206288798Y-143391502D01*
X206269789Y-143485033D01*
X206251095Y-143573003D01*
X206233648Y-143650880D01*
X206218376Y-143714133D01*
X206206209Y-143758230D01*
X206198077Y-143778640D01*
X206191270Y-143793521D01*
X206180695Y-143830278D01*
X206170418Y-143878117D01*
X206162165Y-143915592D01*
X206147685Y-143963720D01*
X206133279Y-143995802D01*
X206119497Y-144023577D01*
X206111760Y-144057513D01*
X206109273Y-144072353D01*
X206097958Y-144111486D01*
X206079588Y-144165169D01*
X206056472Y-144226347D01*
X206040536Y-144267351D01*
X206018013Y-144327678D01*
X206000604Y-144377208D01*
X205991142Y-144408065D01*
X205984295Y-144429101D01*
X205966531Y-144473806D01*
X205941612Y-144531313D01*
X205912624Y-144594303D01*
X205890023Y-144643005D01*
X205864008Y-144701827D01*
X205844455Y-144749284D01*
X205834422Y-144778186D01*
X205823821Y-144805342D01*
X205810641Y-144817583D01*
X205806883Y-144818132D01*
X205796588Y-144832601D01*
X205794840Y-144841928D01*
X205780066Y-144878715D01*
X205750730Y-144937859D01*
X205707416Y-145018147D01*
X205706792Y-145019274D01*
X205681392Y-145065513D01*
X205649428Y-145124192D01*
X205617663Y-145182896D01*
X205617493Y-145183211D01*
X205583689Y-145242741D01*
X205547006Y-145302489D01*
X205515357Y-145349564D01*
X205495025Y-145378431D01*
X205474885Y-145409636D01*
X205467090Y-145425597D01*
X205466260Y-145429299D01*
X205461816Y-145438224D01*
X205451880Y-145454367D01*
X205434624Y-145480433D01*
X205408217Y-145519128D01*
X205370830Y-145573155D01*
X205320635Y-145645221D01*
X205255802Y-145738028D01*
X205236181Y-145765510D01*
X205203570Y-145808452D01*
X205178442Y-145838036D01*
X205165051Y-145849055D01*
X205159933Y-145850541D01*
X205151918Y-145867744D01*
X205148606Y-145878022D01*
X205130460Y-145906477D01*
X205101777Y-145941175D01*
X205083039Y-145961975D01*
X205060450Y-145988345D01*
X205051636Y-146000627D01*
X205051329Y-146001597D01*
X205039980Y-146017071D01*
X205017344Y-146043327D01*
X205000919Y-146061654D01*
X204965277Y-146101826D01*
X204927806Y-146144413D01*
X204896697Y-146178781D01*
X204845482Y-146232961D01*
X204783177Y-146297137D01*
X204713230Y-146367914D01*
X204639090Y-146441896D01*
X204564208Y-146515689D01*
X204492033Y-146585897D01*
X204426014Y-146649125D01*
X204369600Y-146701977D01*
X204326242Y-146741059D01*
X204299388Y-146762974D01*
X204293152Y-146767627D01*
X204267459Y-146788120D01*
X204233613Y-146816060D01*
X204222742Y-146825165D01*
X204157957Y-146879354D01*
X204106651Y-146921771D01*
X204063501Y-146956381D01*
X204023184Y-146987149D01*
X203980377Y-147018038D01*
X203929757Y-147053013D01*
X203866000Y-147096039D01*
X203783785Y-147151080D01*
X203760547Y-147166658D01*
X203700030Y-147207524D01*
X203649000Y-147242404D01*
X203612250Y-147268006D01*
X203594570Y-147281040D01*
X203585671Y-147287572D01*
X203564091Y-147295981D01*
X203555140Y-147298728D01*
X203534452Y-147315816D01*
X203533934Y-147316414D01*
X203512323Y-147333083D01*
X203473413Y-147357006D01*
X203425253Y-147383216D01*
X203332516Y-147430781D01*
X203332030Y-149508700D01*
X203332008Y-149597430D01*
X203331929Y-149874050D01*
X203331821Y-150123855D01*
X203331666Y-150348256D01*
X203331447Y-150548664D01*
X203331143Y-150726491D01*
X203330737Y-150883147D01*
X203330210Y-151020046D01*
X203329543Y-151138597D01*
X203328718Y-151240213D01*
X203327716Y-151326305D01*
X203326518Y-151398284D01*
X203325106Y-151457562D01*
X203323461Y-151505551D01*
X203321565Y-151543661D01*
X203319398Y-151573305D01*
X203316943Y-151595893D01*
X203314181Y-151612837D01*
X203311093Y-151625549D01*
X203307660Y-151635441D01*
X203303864Y-151643922D01*
X203297184Y-151658426D01*
X203281994Y-151697879D01*
X203275698Y-151725061D01*
X203273634Y-151735227D01*
X203260016Y-151770510D01*
X203236003Y-151821780D01*
X203204339Y-151883333D01*
X203167767Y-151949466D01*
X203161825Y-151958667D01*
X203137008Y-151990504D01*
X203101437Y-152031613D01*
X203060019Y-152076830D01*
X203017661Y-152120989D01*
X202979270Y-152158926D01*
X202949754Y-152185476D01*
X202934021Y-152195473D01*
X202923005Y-152201062D01*
X202900184Y-152219272D01*
X202880015Y-152235962D01*
X202829867Y-152268404D01*
X202759476Y-152304238D01*
X202707566Y-152328075D01*
X202657066Y-152348818D01*
X202607252Y-152365362D01*
X202544586Y-152382650D01*
X202534609Y-152385067D01*
X202518016Y-152388262D01*
X202497472Y-152391139D01*
X202471524Y-152393715D01*
X202438720Y-152396008D01*
X202397607Y-152398037D01*
X202346731Y-152399820D01*
X202284639Y-152401373D01*
X202209878Y-152402715D01*
X202120996Y-152403865D01*
X202016538Y-152404839D01*
X201895053Y-152405656D01*
X201755088Y-152406333D01*
X201595188Y-152406889D01*
X201413902Y-152407341D01*
X201209775Y-152407707D01*
X200981356Y-152408005D01*
X200727191Y-152408253D01*
X200445827Y-152408469D01*
X200434739Y-152408477D01*
X200148373Y-152408669D01*
X199889158Y-152408799D01*
X199655645Y-152408830D01*
X199446387Y-152408720D01*
X199259936Y-152408431D01*
X199094844Y-152407924D01*
X198949663Y-152407159D01*
X198822944Y-152406096D01*
X198713240Y-152404697D01*
X198619104Y-152402922D01*
X198539086Y-152400731D01*
X198471739Y-152398086D01*
X198415615Y-152394946D01*
X198369266Y-152391273D01*
X198331244Y-152387026D01*
X198300101Y-152382168D01*
X198274389Y-152376658D01*
X198252661Y-152370456D01*
X198233467Y-152363525D01*
X198215361Y-152355823D01*
X198196894Y-152347312D01*
X198195227Y-152346535D01*
X198150469Y-152325841D01*
X198103525Y-152304375D01*
X197993673Y-152243952D01*
X197871178Y-152149372D01*
X197761774Y-152034249D01*
X197669214Y-151902626D01*
X197597247Y-151758549D01*
X197587370Y-151734475D01*
X197577344Y-151709910D01*
X197568312Y-151686322D01*
X197560221Y-151662232D01*
X197553021Y-151636156D01*
X197546658Y-151606615D01*
X197541081Y-151572126D01*
X197536238Y-151531207D01*
X197532077Y-151482377D01*
X197528547Y-151424156D01*
X197525594Y-151355060D01*
X197523167Y-151273609D01*
X197521215Y-151178321D01*
X197519685Y-151067715D01*
X197518525Y-150940309D01*
X197517683Y-150794622D01*
X197517108Y-150629171D01*
X197516747Y-150442477D01*
X197516549Y-150233056D01*
X197516461Y-149999428D01*
X197516431Y-149740111D01*
X197516408Y-149453623D01*
X197516394Y-149348746D01*
X197516334Y-149077710D01*
X197516231Y-148833419D01*
X197516068Y-148614471D01*
X197515828Y-148419466D01*
X197515492Y-148247003D01*
X197515045Y-148095682D01*
X197514468Y-147964101D01*
X197513743Y-147850860D01*
X197512854Y-147754557D01*
X197511783Y-147673793D01*
X197510513Y-147607166D01*
X197509026Y-147553275D01*
X197507305Y-147510720D01*
X197505333Y-147478099D01*
X197503091Y-147454012D01*
X197500564Y-147437059D01*
X197497732Y-147425838D01*
X197494580Y-147418948D01*
X197491089Y-147414989D01*
X197461408Y-147394840D01*
X197423040Y-147373477D01*
X197406097Y-147364561D01*
X197361866Y-147338971D01*
X197315595Y-147310004D01*
X197290826Y-147294075D01*
X197253455Y-147271150D01*
X197229639Y-147257986D01*
X197211259Y-147248087D01*
X197171170Y-147222910D01*
X197124688Y-147191278D01*
X197081538Y-147159881D01*
X197051445Y-147135407D01*
X197029439Y-147118684D01*
X197007586Y-147109743D01*
X196990479Y-147103686D01*
X196963728Y-147084544D01*
X196948912Y-147071755D01*
X196912942Y-147042468D01*
X196871489Y-147010092D01*
X196741510Y-146908500D01*
X196485946Y-146694432D01*
X196247860Y-146475229D01*
X196029915Y-146253535D01*
X195834775Y-146031991D01*
X195665103Y-145813240D01*
X195660170Y-145806761D01*
X195639410Y-145780918D01*
X195611299Y-145746881D01*
X195598028Y-145730265D01*
X195576373Y-145698864D01*
X195567823Y-145679545D01*
X195566244Y-145672268D01*
X195549916Y-145652784D01*
X195544688Y-145648829D01*
X195521618Y-145624052D01*
X195496322Y-145589913D01*
X195475923Y-145556640D01*
X195467541Y-145534463D01*
X195467146Y-145530608D01*
X195455959Y-145519557D01*
X195445785Y-145508916D01*
X195424083Y-145478047D01*
X195394041Y-145431761D01*
X195358665Y-145374896D01*
X195320965Y-145312290D01*
X195283945Y-145248782D01*
X195250615Y-145189209D01*
X195246331Y-145181475D01*
X195220686Y-145137780D01*
X195192630Y-145092817D01*
X195178366Y-145068805D01*
X195153740Y-145023601D01*
X195123754Y-144966085D01*
X195091071Y-144901641D01*
X195058355Y-144835654D01*
X195028271Y-144773511D01*
X195003484Y-144720595D01*
X194986658Y-144682292D01*
X194980457Y-144663988D01*
X194979581Y-144658886D01*
X194970081Y-144632091D01*
X194953501Y-144594639D01*
X194926240Y-144536852D01*
X194892557Y-144461884D01*
X194870165Y-144406094D01*
X194857527Y-144365817D01*
X194846973Y-144333895D01*
X194835802Y-144315828D01*
X194830521Y-144308389D01*
X194818613Y-144279122D01*
X194806012Y-144237035D01*
X194798764Y-144210922D01*
X194787011Y-144175511D01*
X194778568Y-144158587D01*
X194776582Y-144156600D01*
X194770184Y-144145310D01*
X194761420Y-144122366D01*
X194748979Y-144083777D01*
X194731544Y-144025551D01*
X194707801Y-143943697D01*
X194687734Y-143873367D01*
X194658387Y-143767209D01*
X194636062Y-143680996D01*
X194619573Y-143610060D01*
X194607736Y-143549732D01*
X194600226Y-143510725D01*
X194589514Y-143464523D01*
X194580449Y-143435124D01*
X194579382Y-143432189D01*
X194572325Y-143402454D01*
X194562524Y-143350224D01*
X194550721Y-143280395D01*
X194537655Y-143197861D01*
X194524066Y-143107518D01*
X194510694Y-143014260D01*
X194498279Y-142922982D01*
X194487561Y-142838580D01*
X194479281Y-142765948D01*
X194479165Y-142764829D01*
X194475333Y-142712566D01*
X194471885Y-142637132D01*
X194468960Y-142543853D01*
X194466698Y-142438054D01*
X194465239Y-142325060D01*
X194464721Y-142210196D01*
X194465656Y-142059396D01*
X195025105Y-142059396D01*
X195025833Y-142405494D01*
X195049551Y-142745182D01*
X195096261Y-143073119D01*
X195105980Y-143127627D01*
X195118017Y-143197996D01*
X195127750Y-143258114D01*
X195133696Y-143299026D01*
X195136251Y-143316937D01*
X195144046Y-143355718D01*
X195151838Y-143377820D01*
X195158162Y-143393215D01*
X195168599Y-143430134D01*
X195179558Y-143478102D01*
X195198045Y-143558204D01*
X195223526Y-143654883D01*
X195253702Y-143760495D01*
X195286329Y-143867673D01*
X195319165Y-143969050D01*
X195349967Y-144057260D01*
X195376492Y-144124937D01*
X195377363Y-144126981D01*
X195390492Y-144164012D01*
X195395911Y-144191231D01*
X195399158Y-144205070D01*
X195417400Y-144230217D01*
X195428761Y-144242726D01*
X195438889Y-144268294D01*
X195441525Y-144279611D01*
X195454310Y-144313891D01*
X195475301Y-144363042D01*
X195501803Y-144420544D01*
X195516604Y-144451724D01*
X195547827Y-144518179D01*
X195576035Y-144579035D01*
X195596525Y-144624182D01*
X195609408Y-144651875D01*
X195630415Y-144692329D01*
X195646276Y-144717301D01*
X195652173Y-144725655D01*
X195671410Y-144757820D01*
X195697569Y-144805105D01*
X195726745Y-144860561D01*
X195735454Y-144877267D01*
X195773734Y-144946705D01*
X195814562Y-145015879D01*
X195850460Y-145072008D01*
X195855525Y-145079481D01*
X195883990Y-145123485D01*
X195904054Y-145157920D01*
X195911647Y-145175872D01*
X195912029Y-145179165D01*
X195925605Y-145190059D01*
X195927829Y-145190530D01*
X195944296Y-145206025D01*
X195963447Y-145236618D01*
X195969592Y-145247843D01*
X196000750Y-145296531D01*
X196047160Y-145361757D01*
X196105934Y-145439810D01*
X196174182Y-145526979D01*
X196249015Y-145619554D01*
X196327542Y-145713824D01*
X196406875Y-145806077D01*
X196508561Y-145917858D01*
X196662788Y-146074418D01*
X196826428Y-146227523D01*
X196991707Y-146369976D01*
X197150846Y-146494579D01*
X197155707Y-146498182D01*
X197198520Y-146531250D01*
X197231645Y-146559095D01*
X197248259Y-146576015D01*
X197254462Y-146583297D01*
X197277912Y-146594007D01*
X197284609Y-146595604D01*
X197311190Y-146610844D01*
X197344247Y-146636985D01*
X197357871Y-146648525D01*
X197389773Y-146671024D01*
X197411295Y-146679963D01*
X197418771Y-146681002D01*
X197430203Y-146692645D01*
X197430931Y-146694598D01*
X197447674Y-146710228D01*
X197482272Y-146735355D01*
X197529016Y-146766295D01*
X197582199Y-146799363D01*
X197636113Y-146830875D01*
X197685050Y-146857147D01*
X197697028Y-146863312D01*
X197729056Y-146881330D01*
X197745375Y-146892962D01*
X197747630Y-146895346D01*
X197755881Y-146901458D01*
X197772323Y-146911344D01*
X197800401Y-146926893D01*
X197843562Y-146949993D01*
X197905252Y-146982533D01*
X197988917Y-147026400D01*
X198006002Y-147035425D01*
X198054642Y-147062044D01*
X198091607Y-147083633D01*
X198109972Y-147096199D01*
X198119319Y-147102564D01*
X198148581Y-147109743D01*
X198150539Y-147109859D01*
X198177682Y-147117553D01*
X198220648Y-147134913D01*
X198271068Y-147158599D01*
X198326486Y-147184370D01*
X198401189Y-147215226D01*
X198468838Y-147239550D01*
X198475079Y-147241560D01*
X198523816Y-147258192D01*
X198560031Y-147272148D01*
X198576283Y-147280586D01*
X198579647Y-147282742D01*
X198605330Y-147293290D01*
X198652057Y-147310022D01*
X198715271Y-147331438D01*
X198790416Y-147356036D01*
X198872937Y-147382317D01*
X198958276Y-147408779D01*
X199041879Y-147433923D01*
X199046535Y-147435289D01*
X199114966Y-147453781D01*
X199185097Y-147470382D01*
X199242443Y-147481646D01*
X199242673Y-147481683D01*
X199290801Y-147489924D01*
X199358096Y-147502058D01*
X199435671Y-147516457D01*
X199514637Y-147531495D01*
X199600741Y-147546678D01*
X199705298Y-147562739D01*
X199812342Y-147577242D01*
X199908602Y-147588275D01*
X200099279Y-147604456D01*
X200362853Y-147615950D01*
X200621207Y-147613320D01*
X200881672Y-147596227D01*
X201151581Y-147564330D01*
X201438265Y-147517289D01*
X201447899Y-147515511D01*
X201528793Y-147500144D01*
X201606897Y-147484624D01*
X201673738Y-147470669D01*
X201720841Y-147459999D01*
X201752263Y-147451769D01*
X201816758Y-147433309D01*
X201895006Y-147409656D01*
X201981116Y-147382712D01*
X202069200Y-147354382D01*
X202153367Y-147326567D01*
X202227728Y-147301172D01*
X202286394Y-147280100D01*
X202323474Y-147265253D01*
X202339099Y-147258400D01*
X202376318Y-147244292D01*
X202399560Y-147238677D01*
X202407672Y-147236909D01*
X202438922Y-147225462D01*
X202485625Y-147205726D01*
X202541093Y-147180455D01*
X202568829Y-147167666D01*
X202626467Y-147142684D01*
X202675028Y-147123663D01*
X202706199Y-147113951D01*
X202736816Y-147102850D01*
X202755077Y-147086217D01*
X202759904Y-147078223D01*
X202782342Y-147066765D01*
X202798426Y-147061713D01*
X202835171Y-147045053D01*
X202885808Y-147019520D01*
X202944458Y-146987972D01*
X202995908Y-146960044D01*
X203046801Y-146933675D01*
X203084123Y-146915775D01*
X203102199Y-146909179D01*
X203106520Y-146908701D01*
X203117626Y-146897274D01*
X203117627Y-146897190D01*
X203129290Y-146883094D01*
X203157022Y-146865969D01*
X203182441Y-146852179D01*
X203232080Y-146822659D01*
X203294422Y-146783870D01*
X203363278Y-146739786D01*
X203432461Y-146694380D01*
X203495785Y-146651625D01*
X203547062Y-146615496D01*
X203585204Y-146588271D01*
X203627767Y-146558806D01*
X203628774Y-146558123D01*
X203670307Y-146528529D01*
X203712155Y-146496786D01*
X203713042Y-146496084D01*
X203754834Y-146463211D01*
X203795184Y-146431704D01*
X203835783Y-146399157D01*
X203921047Y-146326293D01*
X204017820Y-146239049D01*
X204121327Y-146142012D01*
X204226796Y-146039765D01*
X204329454Y-145936895D01*
X204424529Y-145837987D01*
X204507248Y-145747626D01*
X204540858Y-145710278D01*
X204574407Y-145674139D01*
X204596785Y-145651345D01*
X204612359Y-145633425D01*
X204621856Y-145612676D01*
X204627210Y-145598503D01*
X204646926Y-145574796D01*
X204668512Y-145552017D01*
X204705424Y-145507420D01*
X204750945Y-145448776D01*
X204801309Y-145381304D01*
X204852748Y-145310222D01*
X204901495Y-145240749D01*
X204943782Y-145178103D01*
X204975842Y-145127502D01*
X204993907Y-145094165D01*
X205007951Y-145067790D01*
X205033312Y-145026305D01*
X205064078Y-144979557D01*
X205085218Y-144946253D01*
X205120973Y-144884753D01*
X205163534Y-144807694D01*
X205209905Y-144720857D01*
X205257092Y-144630025D01*
X205302100Y-144540977D01*
X205341936Y-144459496D01*
X205373605Y-144391363D01*
X205394111Y-144342360D01*
X205394906Y-144340228D01*
X205411986Y-144295871D01*
X205436655Y-144233558D01*
X205465731Y-144161262D01*
X205496031Y-144086957D01*
X205525705Y-144011429D01*
X205556997Y-143925399D01*
X205584187Y-143844365D01*
X205603567Y-143778948D01*
X205614843Y-143736211D01*
X205636326Y-143655037D01*
X205659648Y-143567137D01*
X205681429Y-143485265D01*
X205689472Y-143454801D01*
X205707772Y-143381953D01*
X205722860Y-143314440D01*
X205735954Y-143245493D01*
X205748269Y-143168344D01*
X205761022Y-143076224D01*
X205775430Y-142962365D01*
X205784657Y-142895303D01*
X205795021Y-142833696D01*
X205804913Y-142787059D01*
X205813062Y-142762151D01*
X205815867Y-142750687D01*
X205819510Y-142712940D01*
X205822634Y-142653666D01*
X205825227Y-142576723D01*
X205827281Y-142485971D01*
X205828784Y-142385269D01*
X205829728Y-142278478D01*
X205830101Y-142169455D01*
X205829895Y-142062062D01*
X205829098Y-141960156D01*
X205827701Y-141867598D01*
X205825694Y-141788247D01*
X205823066Y-141725963D01*
X205819808Y-141684604D01*
X205815910Y-141668030D01*
X205815593Y-141667771D01*
X205808715Y-141649424D01*
X205800214Y-141609795D01*
X205791073Y-141555746D01*
X205782277Y-141494139D01*
X205774809Y-141431835D01*
X205769655Y-141375698D01*
X205767798Y-141332588D01*
X205764883Y-141301358D01*
X205755124Y-141268121D01*
X205754892Y-141267661D01*
X205746330Y-141240747D01*
X205736249Y-141195312D01*
X205726783Y-141140932D01*
X205719889Y-141101591D01*
X205704523Y-141028344D01*
X205684161Y-140940886D01*
X205660392Y-140845246D01*
X205634805Y-140747453D01*
X205608989Y-140653535D01*
X205584533Y-140569520D01*
X205563027Y-140501437D01*
X205546058Y-140455315D01*
X205534536Y-140427675D01*
X205513910Y-140377215D01*
X205487763Y-140312688D01*
X205458777Y-140240751D01*
X205429633Y-140168058D01*
X205403010Y-140101264D01*
X205381590Y-140047024D01*
X205361069Y-139998565D01*
X205325585Y-139922251D01*
X205281907Y-139833464D01*
X205233497Y-139738941D01*
X205183816Y-139645417D01*
X205136325Y-139559628D01*
X205094486Y-139488310D01*
X205068136Y-139445012D01*
X205031620Y-139384210D01*
X205000690Y-139331815D01*
X204980089Y-139295808D01*
X204974862Y-139286614D01*
X204942112Y-139235598D01*
X204907208Y-139188680D01*
X204895393Y-139173650D01*
X204873912Y-139141526D01*
X204865398Y-139120927D01*
X204864834Y-139115577D01*
X204853296Y-139099120D01*
X204851290Y-139097679D01*
X204834459Y-139079289D01*
X204805052Y-139043450D01*
X204766562Y-138994495D01*
X204722479Y-138936759D01*
X204662095Y-138858668D01*
X204573089Y-138749291D01*
X204478221Y-138638189D01*
X204381287Y-138529504D01*
X204286083Y-138427379D01*
X204196406Y-138335954D01*
X204116051Y-138259371D01*
X204048816Y-138201773D01*
X204038001Y-138193002D01*
X204000900Y-138160987D01*
X203961932Y-138125402D01*
X203936915Y-138103326D01*
X203886098Y-138061574D01*
X203816220Y-138006248D01*
X203729605Y-137939160D01*
X203628574Y-137862123D01*
X203515450Y-137776949D01*
X203484782Y-137754882D01*
X203452833Y-137734198D01*
X203435776Y-137726212D01*
X203419179Y-137718378D01*
X203393396Y-137697817D01*
X203380828Y-137687658D01*
X203344048Y-137662070D01*
X203293648Y-137629716D01*
X203236691Y-137595219D01*
X203199475Y-137573034D01*
X203151802Y-137543574D01*
X203117666Y-137521166D01*
X203102715Y-137509428D01*
X203097463Y-137504918D01*
X203070925Y-137491113D01*
X203031670Y-137475507D01*
X203012281Y-137468300D01*
X202977777Y-137453307D01*
X202960625Y-137442563D01*
X202959238Y-137441157D01*
X202938943Y-137428046D01*
X202901107Y-137407182D01*
X202852595Y-137382388D01*
X202841754Y-137376996D01*
X202795075Y-137352935D01*
X202760605Y-137333815D01*
X202745150Y-137323375D01*
X202740989Y-137320172D01*
X202715660Y-137308780D01*
X202677101Y-137295748D01*
X202659878Y-137290157D01*
X202628608Y-137276923D01*
X202616216Y-137266623D01*
X202615100Y-137264059D01*
X202596579Y-137252077D01*
X202562493Y-137238985D01*
X202550561Y-137235119D01*
X202499809Y-137217083D01*
X202434991Y-137192568D01*
X202365366Y-137165195D01*
X202300195Y-137138583D01*
X202248738Y-137116351D01*
X202246655Y-137115417D01*
X202208980Y-137101579D01*
X202180294Y-137095868D01*
X202165301Y-137093289D01*
X202126692Y-137082979D01*
X202072866Y-137066620D01*
X202010547Y-137046181D01*
X201950370Y-137026591D01*
X201861990Y-136999975D01*
X201768267Y-136973697D01*
X201674650Y-136949126D01*
X201586586Y-136927633D01*
X201509524Y-136910585D01*
X201448911Y-136899352D01*
X201410196Y-136895304D01*
X201402360Y-136895166D01*
X201367537Y-136890882D01*
X201349286Y-136882468D01*
X201347082Y-136880210D01*
X201321224Y-136870556D01*
X201271122Y-136860721D01*
X201200326Y-136850987D01*
X201112388Y-136841633D01*
X201010856Y-136832942D01*
X200899284Y-136825193D01*
X200781220Y-136818669D01*
X200660216Y-136813648D01*
X200539822Y-136810413D01*
X200423589Y-136809245D01*
X200395728Y-136809313D01*
X200282399Y-136811007D01*
X200164931Y-136814754D01*
X200046967Y-136820256D01*
X199932149Y-136827220D01*
X199824120Y-136835349D01*
X199726523Y-136844348D01*
X199643001Y-136853920D01*
X199577196Y-136863771D01*
X199532752Y-136873604D01*
X199513310Y-136883124D01*
X199511210Y-136885211D01*
X199488216Y-136892400D01*
X199451051Y-136895304D01*
X199415457Y-136898372D01*
X199351462Y-136909543D01*
X199268887Y-136927669D01*
X199172389Y-136951461D01*
X199066628Y-136979633D01*
X198956264Y-137010894D01*
X198845955Y-137043959D01*
X198740362Y-137077538D01*
X198644143Y-137110344D01*
X198561957Y-137141088D01*
X198496972Y-137166572D01*
X198420884Y-137195799D01*
X198354230Y-137220835D01*
X198299988Y-137242377D01*
X198226946Y-137274578D01*
X198163221Y-137305789D01*
X198160668Y-137307134D01*
X198113338Y-137330663D01*
X198074812Y-137347378D01*
X198053218Y-137353736D01*
X198039597Y-137356966D01*
X198013596Y-137374082D01*
X198007002Y-137379431D01*
X197976450Y-137398721D01*
X197930264Y-137424441D01*
X197875598Y-137452526D01*
X197853809Y-137463462D01*
X197797693Y-137493163D01*
X197750641Y-137520134D01*
X197721076Y-137539625D01*
X197720281Y-137540247D01*
X197688894Y-137560311D01*
X197664650Y-137568626D01*
X197656595Y-137569669D01*
X197645093Y-137580299D01*
X197644595Y-137582259D01*
X197629060Y-137597378D01*
X197598534Y-137616025D01*
X197578732Y-137627080D01*
X197533112Y-137654952D01*
X197474612Y-137692418D01*
X197408526Y-137735909D01*
X197340146Y-137781856D01*
X197274764Y-137826691D01*
X197217673Y-137866843D01*
X197174166Y-137898744D01*
X197149534Y-137918824D01*
X197145559Y-137922465D01*
X197120146Y-137943440D01*
X197086035Y-137969754D01*
X197081150Y-137973441D01*
X197037896Y-138007912D01*
X196999030Y-138041384D01*
X196955344Y-138081253D01*
X196920360Y-138112755D01*
X196899091Y-138131071D01*
X196887587Y-138139581D01*
X196881900Y-138141666D01*
X196874878Y-138145879D01*
X196849991Y-138166779D01*
X196811379Y-138201843D01*
X196762892Y-138247324D01*
X196708380Y-138299471D01*
X196651692Y-138354537D01*
X196596679Y-138408772D01*
X196547190Y-138458427D01*
X196507074Y-138499754D01*
X196480181Y-138529004D01*
X196470361Y-138542428D01*
X196466322Y-138550191D01*
X196445555Y-138572830D01*
X196413057Y-138601843D01*
X196392340Y-138620208D01*
X196366038Y-138648508D01*
X196355753Y-138667316D01*
X196345630Y-138686513D01*
X196319938Y-138708861D01*
X196295010Y-138729920D01*
X196284123Y-138748985D01*
X196278869Y-138763841D01*
X196259053Y-138787988D01*
X196236468Y-138810212D01*
X196189114Y-138864488D01*
X196131680Y-138937318D01*
X196066956Y-139024888D01*
X195997733Y-139123383D01*
X195926799Y-139228988D01*
X195856945Y-139337887D01*
X195836966Y-139369248D01*
X195812751Y-139405694D01*
X195797416Y-139426820D01*
X195790824Y-139435549D01*
X195782713Y-139453212D01*
X195782687Y-139453639D01*
X195773883Y-139470987D01*
X195754061Y-139498727D01*
X195733903Y-139531784D01*
X195725409Y-139560678D01*
X195723707Y-139574564D01*
X195713663Y-139590980D01*
X195708909Y-139596177D01*
X195692552Y-139622088D01*
X195668676Y-139664259D01*
X195640491Y-139716668D01*
X195611206Y-139773294D01*
X195584033Y-139828116D01*
X195562180Y-139875112D01*
X195549646Y-139900820D01*
X195538562Y-139918090D01*
X195535096Y-139923989D01*
X195521658Y-139952354D01*
X195500519Y-139999759D01*
X195473750Y-140061527D01*
X195443422Y-140132980D01*
X195416376Y-140198941D01*
X195367992Y-140324336D01*
X195320835Y-140455173D01*
X195277003Y-140585133D01*
X195238596Y-140707900D01*
X195207712Y-140817156D01*
X195186448Y-140906584D01*
X195181636Y-140929510D01*
X195169522Y-140981468D01*
X195159000Y-141019111D01*
X195151925Y-141035518D01*
X195148825Y-141040248D01*
X195141084Y-141066888D01*
X195134457Y-141107148D01*
X195129753Y-141141390D01*
X195120873Y-141199347D01*
X195109508Y-141269551D01*
X195097001Y-141343527D01*
X195092609Y-141369340D01*
X195047365Y-141712231D01*
X195025105Y-142059396D01*
X194465656Y-142059396D01*
X194465694Y-142053329D01*
X194470157Y-141866836D01*
X194478551Y-141700294D01*
X194491216Y-141548856D01*
X194508495Y-141407673D01*
X194530727Y-141271897D01*
X194531070Y-141270027D01*
X194542785Y-141200944D01*
X194553357Y-141129665D01*
X194560534Y-141071333D01*
X194565662Y-141032163D01*
X194573435Y-140994973D01*
X194581077Y-140977592D01*
X194588492Y-140962203D01*
X194597740Y-140925924D01*
X194606298Y-140877310D01*
X194616676Y-140819091D01*
X194632919Y-140745780D01*
X194650848Y-140677368D01*
X194657391Y-140654824D01*
X194677604Y-140585095D01*
X194693092Y-140531430D01*
X194706446Y-140484800D01*
X194720253Y-140436174D01*
X194737104Y-140376522D01*
X194740102Y-140366057D01*
X194756214Y-140314537D01*
X194770730Y-140275061D01*
X194780819Y-140255468D01*
X194786419Y-140247686D01*
X194794219Y-140219100D01*
X194795045Y-140212060D01*
X194805085Y-140179978D01*
X194822871Y-140140143D01*
X194829979Y-140125633D01*
X194845382Y-140089053D01*
X194851523Y-140065843D01*
X194851608Y-140064541D01*
X194858525Y-140040855D01*
X194874359Y-140000242D01*
X194896026Y-139950682D01*
X194920051Y-139896918D01*
X194952390Y-139821677D01*
X194980554Y-139753341D01*
X195004438Y-139697059D01*
X195038883Y-139622463D01*
X195072149Y-139556153D01*
X195076413Y-139548072D01*
X195100405Y-139499840D01*
X195117317Y-139461138D01*
X195123717Y-139439718D01*
X195127562Y-139425689D01*
X195146431Y-139401338D01*
X195150623Y-139397325D01*
X195171435Y-139367713D01*
X195190964Y-139327954D01*
X195196264Y-139315377D01*
X195211712Y-139285405D01*
X195222677Y-139273420D01*
X195224550Y-139272738D01*
X195236557Y-139255812D01*
X195250701Y-139223279D01*
X195253808Y-139215128D01*
X195268664Y-139185232D01*
X195280829Y-139173138D01*
X195293746Y-139161808D01*
X195308536Y-139133742D01*
X195315956Y-139116366D01*
X195327094Y-139094137D01*
X195343091Y-139066264D01*
X195366202Y-139029141D01*
X195398682Y-138979159D01*
X195442785Y-138912713D01*
X195500766Y-138826195D01*
X195510839Y-138811254D01*
X195554303Y-138747975D01*
X195594172Y-138691679D01*
X195626392Y-138648013D01*
X195646907Y-138622627D01*
X195658472Y-138609517D01*
X195691076Y-138568988D01*
X195723566Y-138524904D01*
X195732545Y-138512260D01*
X195802571Y-138423349D01*
X195883201Y-138334563D01*
X195902794Y-138312693D01*
X195911806Y-138298748D01*
X195911908Y-138298216D01*
X195923238Y-138282375D01*
X195950711Y-138250508D01*
X195990631Y-138206538D01*
X196039301Y-138154389D01*
X196093024Y-138097983D01*
X196148103Y-138041244D01*
X196200841Y-137988095D01*
X196247541Y-137942461D01*
X196279142Y-137912218D01*
X196336567Y-137857104D01*
X196390122Y-137805529D01*
X196431370Y-137765609D01*
X196431469Y-137765513D01*
X196468374Y-137731281D01*
X196497913Y-137706870D01*
X196513700Y-137697560D01*
X196524859Y-137692393D01*
X196544760Y-137671843D01*
X196552974Y-137662229D01*
X196582883Y-137634172D01*
X196620784Y-137603835D01*
X196633902Y-137593944D01*
X196683574Y-137554009D01*
X196728229Y-137515068D01*
X196744705Y-137500342D01*
X196773422Y-137477518D01*
X196789892Y-137468468D01*
X196794569Y-137466897D01*
X196816838Y-137451564D01*
X196847196Y-137425206D01*
X196856180Y-137417065D01*
X196896307Y-137385891D01*
X196932375Y-137364404D01*
X196960177Y-137349175D01*
X196971771Y-137337312D01*
X196980425Y-137328371D01*
X197008622Y-137306926D01*
X197051315Y-137276874D01*
X197103254Y-137241708D01*
X197159190Y-137204925D01*
X197213873Y-137170018D01*
X197262053Y-137140483D01*
X197298480Y-137119815D01*
X197305850Y-137115869D01*
X197342387Y-137093873D01*
X197366663Y-137075499D01*
X197368084Y-137074151D01*
X197395077Y-137056061D01*
X197432565Y-137037831D01*
X197436108Y-137036354D01*
X197473154Y-137017989D01*
X197498252Y-137000796D01*
X197499945Y-136996950D01*
X197502377Y-136981918D01*
X197504573Y-136954826D01*
X197506542Y-136914488D01*
X197508297Y-136859719D01*
X197509847Y-136789334D01*
X197511202Y-136702149D01*
X197512374Y-136596978D01*
X197513373Y-136472635D01*
X197514209Y-136327936D01*
X197514894Y-136161696D01*
X197515437Y-135972730D01*
X197515849Y-135759852D01*
X197516142Y-135521878D01*
X197516324Y-135257622D01*
X197516408Y-134965899D01*
X197516439Y-134805898D01*
X197516559Y-134532085D01*
X197516771Y-134284839D01*
X197517087Y-134062806D01*
X197517521Y-133864633D01*
X197518085Y-133688970D01*
X197518793Y-133534461D01*
X197519658Y-133399756D01*
X197520692Y-133283502D01*
X197521909Y-133184345D01*
X197523321Y-133100934D01*
X197524942Y-133031915D01*
X197526784Y-132975937D01*
X197528860Y-132931646D01*
X197531183Y-132897690D01*
X197533767Y-132872716D01*
X197536623Y-132855372D01*
X197544389Y-132823387D01*
X197561119Y-132765686D01*
X197581754Y-132702503D01*
X197603907Y-132640434D01*
X197625187Y-132586077D01*
X197643206Y-132546027D01*
X197655576Y-132526881D01*
X197663275Y-132518449D01*
X197683065Y-132492435D01*
X197708199Y-132457215D01*
X197733081Y-132420849D01*
X197752113Y-132391396D01*
X197759701Y-132376917D01*
X197759914Y-132376210D01*
X197771741Y-132361711D01*
X197796921Y-132335146D01*
X197828832Y-132303072D01*
X197860849Y-132272044D01*
X197886345Y-132248619D01*
X197898698Y-132239354D01*
X197900161Y-132238860D01*
X197918715Y-132227625D01*
X197952960Y-132204594D01*
X197996860Y-132173797D01*
X198001279Y-132170670D01*
X198053702Y-132136845D01*
X198104300Y-132109183D01*
X198142687Y-132093409D01*
X198152586Y-132090562D01*
X198186510Y-132078648D01*
X198203807Y-132069013D01*
X198207303Y-132066785D01*
X198232918Y-132058212D01*
X198277038Y-132046913D01*
X198332741Y-132034726D01*
X198343425Y-132032662D01*
X198363529Y-132029373D01*
X198387015Y-132026416D01*
X198415369Y-132023774D01*
X198450078Y-132021429D01*
X198492629Y-132019365D01*
X198544507Y-132017563D01*
X198607199Y-132016006D01*
X198682192Y-132014676D01*
X198770972Y-132013557D01*
X198875026Y-132012631D01*
X198995840Y-132011880D01*
X199134901Y-132011287D01*
X199293694Y-132010835D01*
X199473708Y-132010505D01*
X199676427Y-132010282D01*
X199903339Y-132010147D01*
X200155930Y-132010082D01*
X200435686Y-132010071D01*
X200666636Y-132010097D01*
X200925817Y-132010184D01*
X201158990Y-132010349D01*
X201367613Y-132010607D01*
X201553146Y-132010974D01*
X201717045Y-132011466D01*
X201860770Y-132012099D01*
X201985778Y-132012888D01*
X202093528Y-132013850D01*
X202185479Y-132015001D01*
X202263088Y-132016356D01*
X202327813Y-132017932D01*
X202381114Y-132019744D01*
X202424448Y-132021808D01*
X202459273Y-132024141D01*
X202487049Y-132026758D01*
X202509232Y-132029675D01*
X202527282Y-132032907D01*
X202538973Y-132035364D01*
X202591574Y-132047584D01*
X202631907Y-132058802D01*
X202652031Y-132066855D01*
X202654930Y-132068817D01*
X202681376Y-132081274D01*
X202719479Y-132095139D01*
X202747097Y-132105977D01*
X202804049Y-132136199D01*
X202867950Y-132177500D01*
X202934318Y-132226156D01*
X202998671Y-132278448D01*
X203056525Y-132330652D01*
X203103400Y-132379047D01*
X203134811Y-132419911D01*
X203146278Y-132449522D01*
X203147326Y-132457123D01*
X203158820Y-132468570D01*
X203165912Y-132473823D01*
X203183756Y-132499029D01*
X203206726Y-132538577D01*
X203231089Y-132585206D01*
X203253113Y-132631655D01*
X203269065Y-132670662D01*
X203275212Y-132694968D01*
X203281992Y-132721667D01*
X203300282Y-132755484D01*
X203302487Y-132759046D01*
X203305716Y-132766752D01*
X203308636Y-132778197D01*
X203311265Y-132794765D01*
X203313622Y-132817841D01*
X203315727Y-132848809D01*
X203317597Y-132889052D01*
X203319252Y-132939955D01*
X203320710Y-133002901D01*
X203321990Y-133079275D01*
X203323111Y-133170460D01*
X203324091Y-133277842D01*
X203324950Y-133402803D01*
X203325705Y-133546727D01*
X203326376Y-133711000D01*
X203326982Y-133897004D01*
X203327540Y-134106125D01*
X203328071Y-134339745D01*
X203328592Y-134599249D01*
X203329122Y-134886021D01*
X203332891Y-136981137D01*
X203386426Y-137014479D01*
X203398978Y-137022136D01*
X203437420Y-137043862D01*
X203465031Y-137057069D01*
X203478484Y-137064354D01*
X203490102Y-137081092D01*
X203493370Y-137088554D01*
X203513820Y-137095868D01*
X203519344Y-137096555D01*
X203549085Y-137108854D01*
X203584494Y-137131683D01*
X203595429Y-137139878D01*
X203623796Y-137159607D01*
X203638617Y-137167498D01*
X203650532Y-137171733D01*
X203679576Y-137187963D01*
X203716204Y-137211320D01*
X203752352Y-137236380D01*
X203779955Y-137257722D01*
X203790948Y-137269921D01*
X203793159Y-137275356D01*
X203811879Y-137282106D01*
X203830937Y-137287972D01*
X203858438Y-137307948D01*
X203865702Y-137314650D01*
X203896444Y-137339820D01*
X203940700Y-137373796D01*
X203991512Y-137411181D01*
X204082145Y-137478329D01*
X204259154Y-137620433D01*
X204440307Y-137780545D01*
X204629988Y-137962451D01*
X204706465Y-138038859D01*
X204803401Y-138137703D01*
X204886244Y-138225300D01*
X204959231Y-138306400D01*
X205026602Y-138385755D01*
X205092595Y-138468117D01*
X205161448Y-138558237D01*
X205168569Y-138567725D01*
X205211876Y-138625191D01*
X205249520Y-138674764D01*
X205277675Y-138711424D01*
X205292512Y-138730149D01*
X205305682Y-138746830D01*
X205330425Y-138782022D01*
X205354922Y-138820127D01*
X205373662Y-138852433D01*
X205381134Y-138870227D01*
X205388620Y-138885754D01*
X205408856Y-138910972D01*
X205419937Y-138924019D01*
X205451270Y-138966752D01*
X205490345Y-139025193D01*
X205533094Y-139092972D01*
X205575446Y-139163718D01*
X205613333Y-139231062D01*
X205613530Y-139231427D01*
X205646823Y-139292152D01*
X205686054Y-139362382D01*
X205722770Y-139426985D01*
X205732291Y-139443648D01*
X205757796Y-139489556D01*
X205775581Y-139523505D01*
X205782262Y-139539115D01*
X205785855Y-139549499D01*
X205799595Y-139581423D01*
X205821222Y-139628963D01*
X205848176Y-139686396D01*
X205864294Y-139720299D01*
X205904532Y-139805258D01*
X205934742Y-139869903D01*
X205956706Y-139918354D01*
X205972202Y-139954737D01*
X205983011Y-139983173D01*
X205990912Y-140007786D01*
X205997687Y-140032698D01*
X206002828Y-140051532D01*
X206015210Y-140089736D01*
X206025123Y-140111491D01*
X206027568Y-140115238D01*
X206041357Y-140145121D01*
X206059062Y-140191866D01*
X206077820Y-140246796D01*
X206094766Y-140301234D01*
X206107034Y-140346500D01*
X206111760Y-140373919D01*
X206114300Y-140393053D01*
X206123818Y-140405174D01*
X206129106Y-140408820D01*
X206141652Y-140432059D01*
X206154687Y-140468372D01*
X206164921Y-140507895D01*
X206169064Y-140540768D01*
X206169087Y-140541977D01*
X206175643Y-140572648D01*
X206190327Y-140610736D01*
X206203162Y-140645253D01*
X206218333Y-140698258D01*
X206231672Y-140756161D01*
X206233597Y-140765732D01*
X206245211Y-140822626D01*
X206260589Y-140897043D01*
X206277955Y-140980413D01*
X206295532Y-141064170D01*
X206298967Y-141080543D01*
X206320988Y-141190746D01*
X206338505Y-141290795D01*
X206352524Y-141388450D01*
X206364049Y-141491471D01*
X206374084Y-141607620D01*
X206383634Y-141744655D01*
X206391875Y-141908412D01*
X206396889Y-142136466D01*
X206396677Y-142169455D01*
X206395390Y-142370010D01*
G37*
D11*
%TO.C,JP605*%
X251500000Y-127700000D02*
X251500000Y-128300000D01*
X252200000Y-129000000D02*
X253600000Y-129000000D01*
X253600000Y-127000000D02*
X252200000Y-127000000D01*
X254300000Y-128300000D02*
X254300000Y-127700000D01*
X251500000Y-127700000D02*
G75*
G02*
X252200000Y-127000000I699999J1D01*
G01*
X252200000Y-129000000D02*
G75*
G02*
X251500000Y-128300000I-1J699999D01*
G01*
X253600000Y-127000000D02*
G75*
G02*
X254300000Y-127700000I0J-700000D01*
G01*
X254300000Y-128300000D02*
G75*
G02*
X253600000Y-129000000I-700000J0D01*
G01*
D10*
%TO.C,G\u002A\u002A\u002A*%
G36*
X167343776Y-126955732D02*
G01*
X167343776Y-127215627D01*
X167084174Y-127215627D01*
X166823985Y-127215627D01*
X166829140Y-126960886D01*
X166834294Y-126706145D01*
X167089035Y-126700991D01*
X167343776Y-126695836D01*
X167343776Y-126955732D01*
G37*
G36*
X167343776Y-132366028D02*
G01*
X167343776Y-132885819D01*
X167089035Y-132880665D01*
X166834294Y-132875511D01*
X166834294Y-132366028D01*
X166834294Y-131856546D01*
X167089035Y-131851392D01*
X167343776Y-131846237D01*
X167343776Y-132366028D01*
G37*
G36*
X167343776Y-134681333D02*
G01*
X167343776Y-134941229D01*
X167083881Y-134941229D01*
X166823985Y-134941229D01*
X166829140Y-134686488D01*
X166834294Y-134431747D01*
X167089035Y-134426592D01*
X167343776Y-134421438D01*
X167343776Y-134681333D01*
G37*
G36*
X168381267Y-124381054D02*
G01*
X168381267Y-124640427D01*
X167862522Y-124640427D01*
X167343776Y-124640427D01*
X167343776Y-124381054D01*
X167343776Y-124121681D01*
X167862522Y-124121681D01*
X168381267Y-124121681D01*
X168381267Y-124381054D01*
G37*
G36*
X169400231Y-121805853D02*
G01*
X169400231Y-122583972D01*
X168631377Y-122583972D01*
X167862522Y-122583972D01*
X167862522Y-121805853D01*
X167862522Y-121027735D01*
X168631377Y-121027735D01*
X169400231Y-121027735D01*
X169400231Y-121805853D01*
G37*
G36*
X170437722Y-131597174D02*
G01*
X170437722Y-131847283D01*
X170178350Y-131847283D01*
X169918977Y-131847283D01*
X169918977Y-131597174D01*
X169918977Y-131347064D01*
X170178350Y-131347064D01*
X170437722Y-131347064D01*
X170437722Y-131597174D01*
G37*
G36*
X172494177Y-127734373D02*
G01*
X172494177Y-128253118D01*
X172234805Y-128253118D01*
X171975432Y-128253118D01*
X171975432Y-127734373D01*
X171975432Y-127215627D01*
X172233934Y-127215627D01*
X172494177Y-127215627D01*
X172494177Y-127734373D01*
G37*
G36*
X175069378Y-120268666D02*
G01*
X175069378Y-120528562D01*
X174814637Y-120523408D01*
X174559896Y-120518253D01*
X174554741Y-120263512D01*
X174549587Y-120008771D01*
X174809483Y-120008771D01*
X175069378Y-120008771D01*
X175069378Y-120268666D01*
G37*
G36*
X176625614Y-127993745D02*
G01*
X176625614Y-128253118D01*
X176366242Y-128253118D01*
X176106869Y-128253118D01*
X176106869Y-127993745D01*
X176106869Y-127734373D01*
X176366242Y-127734373D01*
X176625614Y-127734373D01*
X176625614Y-127993745D01*
G37*
G36*
X177644579Y-123352826D02*
G01*
X177644579Y-123602936D01*
X177385206Y-123602936D01*
X177125833Y-123602936D01*
X177125833Y-123352826D01*
X177125833Y-123102717D01*
X177385206Y-123102717D01*
X177644579Y-123102717D01*
X177644579Y-123352826D01*
G37*
G36*
X178682070Y-127475000D02*
G01*
X178682070Y-127734373D01*
X178422174Y-127734373D01*
X178163324Y-127734373D01*
X178163324Y-127475000D01*
X178163324Y-127215627D01*
X178422697Y-127215627D01*
X178682070Y-127215627D01*
X178682070Y-127475000D01*
G37*
G36*
X180738525Y-121805853D02*
G01*
X180738525Y-122583972D01*
X179969670Y-122583972D01*
X179200815Y-122583972D01*
X179200815Y-121805853D01*
X179200815Y-121027735D01*
X179969670Y-121027735D01*
X180738525Y-121027735D01*
X180738525Y-121805853D01*
G37*
G36*
X180738525Y-133144147D02*
G01*
X180738525Y-133922265D01*
X179969670Y-133922265D01*
X179200815Y-133922265D01*
X179200815Y-133144147D01*
X179200815Y-132366028D01*
X179969670Y-132366028D01*
X180738525Y-132366028D01*
X180738525Y-133144147D01*
G37*
G36*
X171976354Y-126451404D02*
G01*
X171976558Y-126550060D01*
X171976502Y-126691550D01*
X171976133Y-126834993D01*
X171975484Y-126960886D01*
X171973691Y-127215627D01*
X171206577Y-127215627D01*
X170437722Y-127215627D01*
X170437722Y-126956255D01*
X170437722Y-126696882D01*
X170697095Y-126696882D01*
X170956468Y-126696882D01*
X170956468Y-126446772D01*
X170956468Y-126196663D01*
X171465950Y-126196663D01*
X171975432Y-126196663D01*
X171976354Y-126451404D01*
G37*
G36*
X171211209Y-129276191D02*
G01*
X171465950Y-129281346D01*
X171471181Y-129511901D01*
X171471289Y-129516758D01*
X171472496Y-129606632D01*
X171472120Y-129683599D01*
X171470289Y-129739616D01*
X171467131Y-129766642D01*
X171462510Y-129772344D01*
X171438481Y-129781057D01*
X171390905Y-129786764D01*
X171315294Y-129789881D01*
X171207159Y-129790828D01*
X170956468Y-129790828D01*
X170956468Y-129530932D01*
X170956468Y-129271037D01*
X171211209Y-129276191D01*
G37*
G36*
X170437722Y-123602936D02*
G01*
X168631377Y-123602936D01*
X166825031Y-123602936D01*
X166825031Y-121805853D01*
X166825031Y-120527516D01*
X167343776Y-120527516D01*
X167343776Y-121815117D01*
X167343776Y-123102717D01*
X168631377Y-123102717D01*
X169918977Y-123102717D01*
X169918977Y-121815117D01*
X169918977Y-120527516D01*
X168631377Y-120527516D01*
X167343776Y-120527516D01*
X166825031Y-120527516D01*
X166825031Y-120008771D01*
X168631377Y-120008771D01*
X170437722Y-120008771D01*
X170437722Y-121805853D01*
X170437722Y-121815117D01*
X170437722Y-123602936D01*
G37*
G36*
X181776016Y-123602936D02*
G01*
X179969670Y-123602936D01*
X178163324Y-123602936D01*
X178163324Y-121805853D01*
X178163324Y-120527516D01*
X178682070Y-120527516D01*
X178682070Y-121815117D01*
X178682070Y-123102717D01*
X179969670Y-123102717D01*
X181257270Y-123102717D01*
X181257270Y-121815117D01*
X181257270Y-120527516D01*
X179969670Y-120527516D01*
X178682070Y-120527516D01*
X178163324Y-120527516D01*
X178163324Y-120008771D01*
X179969670Y-120008771D01*
X181776016Y-120008771D01*
X181776016Y-121805853D01*
X181776016Y-121815117D01*
X181776016Y-123602936D01*
G37*
G36*
X181776016Y-133144147D02*
G01*
X181776016Y-134941229D01*
X179969670Y-134941229D01*
X178163324Y-134941229D01*
X178163324Y-133144147D01*
X178163324Y-131847283D01*
X178682070Y-131847283D01*
X178682070Y-133134883D01*
X178682070Y-134422484D01*
X179969670Y-134422484D01*
X181257270Y-134422484D01*
X181257270Y-133134883D01*
X181257270Y-131847283D01*
X179969670Y-131847283D01*
X178682070Y-131847283D01*
X178163324Y-131847283D01*
X178163324Y-131347064D01*
X179969670Y-131347064D01*
X181776016Y-131347064D01*
X181776016Y-133134883D01*
X181776016Y-133144147D01*
G37*
G36*
X177644579Y-133144147D02*
G01*
X177644579Y-133403519D01*
X177385206Y-133403519D01*
X177125833Y-133403519D01*
X177125833Y-134172374D01*
X177125833Y-134941229D01*
X176616351Y-134941229D01*
X176106869Y-134941229D01*
X176106869Y-134681856D01*
X176106869Y-134422484D01*
X176366684Y-134422484D01*
X176626499Y-134422484D01*
X176625123Y-133908370D01*
X176624849Y-133791913D01*
X176624588Y-133637656D01*
X176624435Y-133486899D01*
X176624397Y-133348031D01*
X176624477Y-133229441D01*
X176624681Y-133139515D01*
X176625614Y-132884774D01*
X177135097Y-132884774D01*
X177644579Y-132884774D01*
X177644579Y-133144147D01*
G37*
G36*
X172753550Y-130309573D02*
G01*
X173012923Y-130309573D01*
X173012923Y-130828319D01*
X173012923Y-131347064D01*
X173272296Y-131347064D01*
X173531668Y-131347064D01*
X173531668Y-131597174D01*
X173531668Y-131847283D01*
X173272296Y-131847283D01*
X173012923Y-131847283D01*
X173012923Y-132106656D01*
X173012923Y-132366028D01*
X172753550Y-132366028D01*
X172494177Y-132366028D01*
X172494177Y-131337801D01*
X172494177Y-130309573D01*
X172753550Y-130309573D01*
G37*
G36*
X172494177Y-129790305D02*
G01*
X172494177Y-130309573D01*
X172234276Y-130309573D01*
X171974846Y-130309573D01*
X171979771Y-129795459D01*
X171984695Y-129281346D01*
X172239436Y-129276191D01*
X172494177Y-129271037D01*
X172494177Y-129790305D01*
G37*
G36*
X175588124Y-134421438D02*
G01*
X175333382Y-134426592D01*
X175078641Y-134431747D01*
X175073487Y-134686488D01*
X175068332Y-134941229D01*
X174550110Y-134941229D01*
X174031887Y-134941229D01*
X174031887Y-134681856D01*
X174031887Y-134422484D01*
X173781778Y-134422484D01*
X173531668Y-134422484D01*
X173531668Y-134172374D01*
X173531668Y-133922265D01*
X173781778Y-133922265D01*
X174031887Y-133922265D01*
X174031887Y-133662892D01*
X174031887Y-133403519D01*
X174550633Y-133403519D01*
X174550633Y-133913001D01*
X174550633Y-134422484D01*
X174810005Y-134422484D01*
X175069378Y-134422484D01*
X175069378Y-133913001D01*
X175069378Y-133403519D01*
X174810005Y-133403519D01*
X174550633Y-133403519D01*
X174031887Y-133403519D01*
X173781778Y-133403519D01*
X173531668Y-133403519D01*
X173531668Y-133144147D01*
X173531668Y-132884774D01*
X174819269Y-132884774D01*
X176106869Y-132884774D01*
X176106869Y-133144147D01*
X176106869Y-133403519D01*
X175847496Y-133403519D01*
X175588124Y-133403519D01*
X175588124Y-133912479D01*
X175588124Y-133913001D01*
X175588124Y-134421438D01*
G37*
G36*
X180219779Y-124381054D02*
G01*
X180219779Y-124640427D01*
X180479152Y-124640427D01*
X180738525Y-124640427D01*
X180738525Y-125159695D01*
X180738525Y-125678963D01*
X180993266Y-125673809D01*
X181248007Y-125668654D01*
X181253165Y-125413394D01*
X181258323Y-125158133D01*
X181512537Y-125163284D01*
X181766752Y-125168435D01*
X181766752Y-125928027D01*
X181766752Y-126687618D01*
X181252638Y-126692543D01*
X180738525Y-126697468D01*
X180738525Y-127215920D01*
X180738525Y-127734373D01*
X180997897Y-127734373D01*
X181257270Y-127734373D01*
X181257270Y-127474477D01*
X181257270Y-127214582D01*
X181512011Y-127219736D01*
X181766752Y-127224891D01*
X181771700Y-127715556D01*
X181772661Y-127840919D01*
X181772961Y-127961984D01*
X181772570Y-128066522D01*
X181771528Y-128149403D01*
X181769874Y-128205496D01*
X181767650Y-128229670D01*
X181761748Y-128234894D01*
X181738430Y-128241087D01*
X181694651Y-128245818D01*
X181627095Y-128249236D01*
X181532444Y-128251493D01*
X181407381Y-128252737D01*
X181248588Y-128253118D01*
X180738525Y-128253118D01*
X180738525Y-127993745D01*
X180738525Y-127734373D01*
X180479152Y-127734373D01*
X180219779Y-127734373D01*
X180219779Y-127215627D01*
X180219779Y-126696882D01*
X180479152Y-126696882D01*
X180738525Y-126696882D01*
X180738525Y-126446772D01*
X180738525Y-126196663D01*
X180224411Y-126195741D01*
X180107955Y-126195585D01*
X179953698Y-126195519D01*
X179802941Y-126195598D01*
X179664073Y-126195813D01*
X179545482Y-126196154D01*
X179455556Y-126196611D01*
X179200815Y-126198404D01*
X179200815Y-125938161D01*
X179200815Y-125677918D01*
X179450924Y-125677918D01*
X179701034Y-125677918D01*
X179701034Y-124899799D01*
X179701034Y-124121681D01*
X179960407Y-124121681D01*
X180219779Y-124121681D01*
X180219779Y-124381054D01*
G37*
G36*
X174031887Y-122065226D02*
G01*
X173522405Y-122065226D01*
X173012923Y-122065226D01*
X173012923Y-122324599D01*
X173012923Y-122583972D01*
X172753550Y-122583972D01*
X172494177Y-122583972D01*
X172494177Y-123612199D01*
X172494177Y-124640427D01*
X172233934Y-124640427D01*
X171973691Y-124640427D01*
X171975484Y-124895168D01*
X171976062Y-125003560D01*
X171976465Y-125144471D01*
X171976572Y-125287436D01*
X171976354Y-125413913D01*
X171975432Y-125677918D01*
X171725845Y-125677918D01*
X171476259Y-125677918D01*
X171471104Y-125423176D01*
X171465950Y-125168435D01*
X171211735Y-125163284D01*
X170957520Y-125158133D01*
X170952362Y-125413394D01*
X170947204Y-125668654D01*
X170692983Y-125673805D01*
X170438761Y-125678956D01*
X170433610Y-125933178D01*
X170428459Y-126187400D01*
X170173718Y-126192554D01*
X169918977Y-126197709D01*
X169918977Y-126447295D01*
X169918977Y-126696882D01*
X169659604Y-126696882D01*
X169400231Y-126696882D01*
X169400231Y-126447295D01*
X169400231Y-126196663D01*
X169659604Y-126196663D01*
X169918977Y-126196663D01*
X169918977Y-125937813D01*
X169918977Y-125678963D01*
X169664236Y-125673809D01*
X169409495Y-125668654D01*
X169404340Y-125413913D01*
X169399186Y-125159172D01*
X170177827Y-125159172D01*
X170956468Y-125159172D01*
X170956468Y-124899799D01*
X170956468Y-124640427D01*
X170697095Y-124640427D01*
X170437722Y-124640427D01*
X170437722Y-124381054D01*
X170437722Y-124121681D01*
X170697095Y-124121681D01*
X170956468Y-124121681D01*
X170956468Y-124381054D01*
X170956468Y-124640427D01*
X171203489Y-124640427D01*
X171224491Y-124640382D01*
X171314278Y-124639139D01*
X171388770Y-124636443D01*
X171440715Y-124632640D01*
X171462862Y-124628076D01*
X171463910Y-124626140D01*
X171468337Y-124596843D01*
X171471927Y-124539336D01*
X171474334Y-124460872D01*
X171475213Y-124368703D01*
X171475213Y-124121681D01*
X171215841Y-124121681D01*
X170956468Y-124121681D01*
X170956468Y-123612199D01*
X170956468Y-123102717D01*
X171215841Y-123102717D01*
X171475213Y-123102717D01*
X171475213Y-123612199D01*
X171475213Y-124121681D01*
X171725323Y-124121681D01*
X171975432Y-124121681D01*
X171975432Y-123612199D01*
X171975432Y-123102717D01*
X171725323Y-123102717D01*
X171475213Y-123102717D01*
X171475213Y-122843344D01*
X171475213Y-122583972D01*
X171725323Y-122583972D01*
X171975432Y-122583972D01*
X171975432Y-122324599D01*
X171975432Y-122065226D01*
X171465950Y-122065226D01*
X170956468Y-122065226D01*
X170956468Y-121555744D01*
X171984695Y-121555744D01*
X171984695Y-121805853D01*
X171984695Y-122055963D01*
X172239436Y-122061117D01*
X172494177Y-122066272D01*
X172494177Y-121805853D01*
X172494177Y-121545435D01*
X172239436Y-121550589D01*
X171984695Y-121555744D01*
X170956468Y-121555744D01*
X170956468Y-121036999D01*
X170956468Y-120008771D01*
X171215841Y-120008771D01*
X171475213Y-120008771D01*
X171475213Y-120518253D01*
X171475213Y-121027735D01*
X171725323Y-121027735D01*
X171975432Y-121027735D01*
X171975432Y-120518253D01*
X171975432Y-120008771D01*
X172234805Y-120008771D01*
X172494177Y-120008771D01*
X172494177Y-120518253D01*
X172494177Y-121027735D01*
X172753550Y-121027735D01*
X173012923Y-121027735D01*
X173012923Y-120778149D01*
X173012923Y-120528562D01*
X173267664Y-120523408D01*
X173522405Y-120518253D01*
X173527560Y-120263512D01*
X173532714Y-120008771D01*
X173782301Y-120008771D01*
X174031887Y-120008771D01*
X174031887Y-120518253D01*
X174031887Y-121027735D01*
X173781778Y-121027735D01*
X173531668Y-121027735D01*
X173531668Y-121287108D01*
X173531668Y-121546481D01*
X173781778Y-121546481D01*
X174031887Y-121546481D01*
X174031887Y-121805853D01*
X174031887Y-122065226D01*
G37*
G36*
X171475213Y-128753337D02*
G01*
X170956468Y-128753337D01*
X170437722Y-128753337D01*
X170437722Y-129272082D01*
X170437722Y-129790828D01*
X170178350Y-129790828D01*
X169918977Y-129790828D01*
X169918977Y-130050201D01*
X169918977Y-130309573D01*
X170946911Y-130309573D01*
X171974374Y-130309573D01*
X171975447Y-130823687D01*
X171975665Y-130940142D01*
X171975886Y-131094400D01*
X171976033Y-131245157D01*
X171976101Y-131384025D01*
X171976084Y-131502616D01*
X171975976Y-131592542D01*
X171975966Y-131597174D01*
X171975432Y-131847283D01*
X171725323Y-131847283D01*
X171475213Y-131847283D01*
X171475213Y-132366028D01*
X171475213Y-132884774D01*
X171984695Y-132884774D01*
X172494177Y-132884774D01*
X172494177Y-133144147D01*
X172494177Y-133403519D01*
X171984695Y-133403519D01*
X171475213Y-133403519D01*
X171475213Y-133913001D01*
X171475213Y-134422484D01*
X172244068Y-134422484D01*
X173012923Y-134422484D01*
X173012923Y-134681856D01*
X173012923Y-134941229D01*
X172244591Y-134941229D01*
X171476259Y-134941229D01*
X171471104Y-134686488D01*
X171465950Y-134431747D01*
X171211209Y-134426592D01*
X170956468Y-134421438D01*
X170956468Y-133913001D01*
X170956468Y-133403519D01*
X170697618Y-133403519D01*
X170438768Y-133403519D01*
X170433614Y-133658260D01*
X170428459Y-133913001D01*
X170173718Y-133918156D01*
X169918977Y-133923310D01*
X169918977Y-134172897D01*
X169918977Y-134422484D01*
X170437722Y-134422484D01*
X170956468Y-134422484D01*
X170956468Y-134681333D01*
X170956468Y-134941229D01*
X170178350Y-134941229D01*
X169400231Y-134941229D01*
X169400231Y-134431747D01*
X169400231Y-133922265D01*
X169659604Y-133922265D01*
X169918977Y-133922265D01*
X169918977Y-133663415D01*
X169918977Y-133404565D01*
X169664236Y-133399410D01*
X169409495Y-133394256D01*
X169404340Y-133139515D01*
X169399186Y-132884774D01*
X168890227Y-132884774D01*
X168381267Y-132884774D01*
X168381267Y-133144147D01*
X168381267Y-133403519D01*
X168630374Y-133403519D01*
X168879481Y-133403519D01*
X168885115Y-133657593D01*
X168886671Y-133756999D01*
X168887440Y-133898141D01*
X168886931Y-134041289D01*
X168885141Y-134167075D01*
X168879533Y-134422484D01*
X168630400Y-134422484D01*
X168381267Y-134422484D01*
X168381267Y-134681856D01*
X168381267Y-134941229D01*
X168121894Y-134941229D01*
X167862522Y-134941229D01*
X167862522Y-133653629D01*
X167862522Y-132366028D01*
X168121894Y-132366028D01*
X168381267Y-132366028D01*
X168381267Y-132106656D01*
X168381267Y-131847283D01*
X168640321Y-131847283D01*
X168899374Y-131847283D01*
X168899374Y-131337801D01*
X168899374Y-130828319D01*
X169400231Y-130828319D01*
X169400231Y-131597174D01*
X169400231Y-132366028D01*
X170178350Y-132366028D01*
X170956468Y-132366028D01*
X170956468Y-131597174D01*
X170956468Y-130828319D01*
X170178350Y-130828319D01*
X169400231Y-130828319D01*
X168899374Y-130828319D01*
X168640843Y-130828319D01*
X168382313Y-130828319D01*
X168377158Y-131083060D01*
X168372004Y-131337801D01*
X167603149Y-131337801D01*
X166834294Y-131337801D01*
X166829369Y-130823687D01*
X166824445Y-130309573D01*
X167343483Y-130309573D01*
X167862522Y-130309573D01*
X167862522Y-130568946D01*
X167862522Y-130828319D01*
X168122050Y-130828319D01*
X168381578Y-130828319D01*
X168376791Y-129795459D01*
X168372004Y-128762600D01*
X167598517Y-128757765D01*
X166825031Y-128752930D01*
X166825031Y-128503547D01*
X166825031Y-128254164D01*
X167079772Y-128249009D01*
X167334513Y-128243855D01*
X167339438Y-127729741D01*
X167344362Y-127215627D01*
X167603149Y-127215627D01*
X167862522Y-127215627D01*
X167862522Y-127734666D01*
X167862522Y-128253704D01*
X167923706Y-128253118D01*
X169400231Y-128253118D01*
X169400231Y-128762600D01*
X169400231Y-129272082D01*
X169659081Y-129272082D01*
X169917931Y-129272082D01*
X169923086Y-129017341D01*
X169928240Y-128762600D01*
X170182981Y-128757446D01*
X170437722Y-128752291D01*
X170437722Y-128502705D01*
X170437722Y-128253118D01*
X169918977Y-128253118D01*
X169400231Y-128253118D01*
X167923706Y-128253118D01*
X168376636Y-128248780D01*
X168890749Y-128243855D01*
X168895904Y-127989114D01*
X168901058Y-127734373D01*
X168641163Y-127734373D01*
X168381267Y-127734373D01*
X168381267Y-127475523D01*
X168381267Y-127216673D01*
X168636008Y-127211518D01*
X168890749Y-127206364D01*
X168890749Y-126956255D01*
X168890749Y-126706145D01*
X168636008Y-126700991D01*
X168381267Y-126695836D01*
X168381267Y-126446250D01*
X168381267Y-126196663D01*
X168630839Y-126196663D01*
X168880411Y-126196663D01*
X168885580Y-126442141D01*
X168890749Y-126687618D01*
X169145490Y-126692773D01*
X169400231Y-126697927D01*
X169400231Y-126955732D01*
X169400231Y-127214582D01*
X169145490Y-127219736D01*
X168890749Y-127224891D01*
X168890749Y-127475000D01*
X168890749Y-127725109D01*
X170182981Y-127729867D01*
X171475213Y-127734625D01*
X171475213Y-128243981D01*
X171475213Y-128502705D01*
X171475213Y-128753337D01*
G37*
G36*
X172753550Y-133403519D02*
G01*
X173012923Y-133403519D01*
X173012923Y-133662892D01*
X173012923Y-133922265D01*
X172753550Y-133922265D01*
X172494177Y-133922265D01*
X172494177Y-133662892D01*
X172494177Y-133403519D01*
X172753550Y-133403519D01*
G37*
G36*
X168381267Y-125677918D02*
G01*
X168381267Y-126196663D01*
X168121894Y-126196663D01*
X167862522Y-126196663D01*
X167862522Y-125937290D01*
X167862522Y-125677918D01*
X167603672Y-125677918D01*
X167344822Y-125677918D01*
X167339667Y-125932659D01*
X167334513Y-126187400D01*
X167084404Y-126187400D01*
X166834294Y-126187400D01*
X166829140Y-125932659D01*
X166823985Y-125677918D01*
X167083881Y-125677918D01*
X167343776Y-125677918D01*
X167343776Y-125418545D01*
X167343776Y-125159172D01*
X167862522Y-125159172D01*
X168381267Y-125159172D01*
X168381267Y-125677918D01*
G37*
G36*
X175946526Y-127618557D02*
G01*
X175943900Y-127701511D01*
X175938508Y-127767163D01*
X175929410Y-127824227D01*
X175915666Y-127881411D01*
X175896333Y-127947429D01*
X175811881Y-128168748D01*
X175691811Y-128385050D01*
X175541774Y-128580350D01*
X175363136Y-128752888D01*
X175157260Y-128900905D01*
X175110196Y-128928087D01*
X174982704Y-128989764D01*
X174839616Y-129046279D01*
X174695787Y-129092084D01*
X174566071Y-129121634D01*
X174365596Y-129141409D01*
X174130339Y-129131771D01*
X173897833Y-129088405D01*
X173672582Y-129012871D01*
X173459091Y-128906729D01*
X173261864Y-128771538D01*
X173085405Y-128608859D01*
X173057163Y-128578023D01*
X172906131Y-128384529D01*
X172789781Y-128179124D01*
X172707469Y-127960164D01*
X172658553Y-127726004D01*
X172642390Y-127475000D01*
X172642421Y-127463384D01*
X172642689Y-127459248D01*
X172905066Y-127459248D01*
X172908104Y-127597214D01*
X172928397Y-127735024D01*
X172941564Y-127795687D01*
X172998607Y-127986683D01*
X173077419Y-128156355D01*
X173182917Y-128313911D01*
X173320014Y-128468555D01*
X173363426Y-128511701D01*
X173431486Y-128573819D01*
X173496281Y-128622576D01*
X173570390Y-128666956D01*
X173666391Y-128715942D01*
X173745501Y-128752886D01*
X173832327Y-128786855D01*
X173892396Y-128800110D01*
X173927768Y-128793028D01*
X173940501Y-128765983D01*
X173940626Y-128763093D01*
X173941468Y-128729903D01*
X173942684Y-128668944D01*
X173944129Y-128587778D01*
X173945660Y-128493964D01*
X173946246Y-128459823D01*
X173948978Y-128363485D01*
X173953643Y-128293983D01*
X173961313Y-128243404D01*
X173973061Y-128203835D01*
X173989961Y-128167362D01*
X174030350Y-128090868D01*
X173952380Y-128078950D01*
X173864394Y-128060246D01*
X173727263Y-128007204D01*
X173610523Y-127930457D01*
X173518886Y-127833424D01*
X173457063Y-127719524D01*
X173438522Y-127664028D01*
X173408820Y-127512352D01*
X173408204Y-127363039D01*
X173436252Y-127223458D01*
X173492540Y-127100983D01*
X173522631Y-127046951D01*
X173533717Y-127003376D01*
X173528488Y-126956255D01*
X173524159Y-126928425D01*
X173522850Y-126847536D01*
X173532483Y-126759966D01*
X173551407Y-126685234D01*
X173552608Y-126682086D01*
X173566891Y-126659435D01*
X173592787Y-126653118D01*
X173642390Y-126659748D01*
X173692015Y-126673300D01*
X173763532Y-126700106D01*
X173835586Y-126733036D01*
X173861042Y-126745862D01*
X173916295Y-126771152D01*
X173958363Y-126782330D01*
X174001619Y-126781912D01*
X174060433Y-126772417D01*
X174116812Y-126763834D01*
X174258800Y-126753802D01*
X174406020Y-126756525D01*
X174538467Y-126772020D01*
X174577030Y-126778728D01*
X174621609Y-126782539D01*
X174661212Y-126776612D01*
X174708452Y-126758486D01*
X174775941Y-126725703D01*
X174778622Y-126724367D01*
X174872613Y-126684227D01*
X174951724Y-126663417D01*
X175010909Y-126662737D01*
X175045126Y-126682987D01*
X175048175Y-126691113D01*
X175054479Y-126732071D01*
X175059052Y-126795951D01*
X175061064Y-126872885D01*
X175061308Y-126896383D01*
X175065483Y-126985425D01*
X175075417Y-127046260D01*
X175092140Y-127085941D01*
X175097519Y-127094313D01*
X175140427Y-127174012D01*
X175166316Y-127255826D01*
X175177661Y-127350978D01*
X175176936Y-127470693D01*
X175171130Y-127563219D01*
X175161095Y-127635343D01*
X175144410Y-127695444D01*
X175118466Y-127756269D01*
X175110995Y-127771188D01*
X175032261Y-127883643D01*
X174926688Y-127974740D01*
X174799608Y-128040763D01*
X174656358Y-128077998D01*
X174625878Y-128083185D01*
X174586186Y-128093451D01*
X174572988Y-128102584D01*
X174577235Y-128112588D01*
X174592436Y-128149955D01*
X174613479Y-128202565D01*
X174623709Y-128226690D01*
X174652711Y-128273939D01*
X174691297Y-128299881D01*
X174748246Y-128308591D01*
X174832338Y-128304146D01*
X174833832Y-128304001D01*
X174878902Y-128297963D01*
X174914514Y-128286370D01*
X174949187Y-128263690D01*
X174991443Y-128224390D01*
X175049804Y-128162935D01*
X175107098Y-128102559D01*
X175148814Y-128063449D01*
X175181453Y-128041881D01*
X175212839Y-128032712D01*
X175250795Y-128030799D01*
X175270821Y-128031348D01*
X175312256Y-128037112D01*
X175328751Y-128047126D01*
X175327294Y-128051805D01*
X175306376Y-128076874D01*
X175268539Y-128109391D01*
X175267763Y-128109989D01*
X175227763Y-128150006D01*
X175180927Y-128209894D01*
X175137233Y-128276925D01*
X175133308Y-128283600D01*
X175094571Y-128345986D01*
X175059527Y-128396942D01*
X175035336Y-128425992D01*
X174994454Y-128450750D01*
X174921292Y-128474675D01*
X174834563Y-128488978D01*
X174747035Y-128490790D01*
X174652529Y-128484701D01*
X174647128Y-128616926D01*
X174646293Y-128641103D01*
X174647131Y-128709515D01*
X174655124Y-128752541D01*
X174671610Y-128779034D01*
X174687244Y-128793266D01*
X174709329Y-128803872D01*
X174739161Y-128802384D01*
X174785471Y-128787881D01*
X174856991Y-128759440D01*
X174911190Y-128734586D01*
X175032443Y-128664312D01*
X175156619Y-128575684D01*
X175272173Y-128477329D01*
X175367560Y-128377877D01*
X175385722Y-128355779D01*
X175511088Y-128172528D01*
X175603818Y-127977515D01*
X175664458Y-127774436D01*
X175693557Y-127566989D01*
X175691663Y-127358871D01*
X175659324Y-127153778D01*
X175597086Y-126955406D01*
X175505499Y-126767454D01*
X175385109Y-126593617D01*
X175236465Y-126437592D01*
X175060115Y-126303077D01*
X174929529Y-126229599D01*
X174739678Y-126152744D01*
X174539858Y-126101730D01*
X174339349Y-126078761D01*
X174147430Y-126086045D01*
X173944982Y-126125414D01*
X173733437Y-126199696D01*
X173540776Y-126303474D01*
X173369250Y-126434342D01*
X173221111Y-126589893D01*
X173098612Y-126767722D01*
X173004005Y-126965421D01*
X172939541Y-127180585D01*
X172907474Y-127410808D01*
X172905066Y-127459248D01*
X172642689Y-127459248D01*
X172657512Y-127230723D01*
X172701713Y-127012863D01*
X172777257Y-126801695D01*
X172886376Y-126589113D01*
X172900307Y-126566718D01*
X172965244Y-126479620D01*
X173050797Y-126382306D01*
X173148960Y-126282618D01*
X173251725Y-126188401D01*
X173351086Y-126107497D01*
X173439035Y-126047749D01*
X173444166Y-126044759D01*
X173666397Y-125935661D01*
X173894087Y-125861323D01*
X174124220Y-125820573D01*
X174353778Y-125812238D01*
X174579747Y-125835147D01*
X174799109Y-125888129D01*
X175008850Y-125970010D01*
X175205952Y-126079619D01*
X175387401Y-126215785D01*
X175550179Y-126377335D01*
X175691271Y-126563097D01*
X175807661Y-126771900D01*
X175896333Y-127002571D01*
X175902093Y-127021547D01*
X175919842Y-127084355D01*
X175932254Y-127140655D01*
X175940271Y-127199158D01*
X175944832Y-127268576D01*
X175946879Y-127357620D01*
X175947352Y-127475000D01*
X175947327Y-127509592D01*
X175946905Y-127566989D01*
X175946526Y-127618557D01*
G37*
G36*
X177125833Y-122065226D02*
G01*
X177125833Y-122583972D01*
X176616351Y-122583972D01*
X176106869Y-122583972D01*
X176106869Y-122324599D01*
X176106869Y-122065226D01*
X175588124Y-122065226D01*
X175069378Y-122065226D01*
X175069378Y-122324599D01*
X175069378Y-122583972D01*
X175328751Y-122583972D01*
X175588124Y-122583972D01*
X175588124Y-123093454D01*
X175588124Y-123602936D01*
X175847496Y-123602936D01*
X176106869Y-123602936D01*
X176106869Y-123352826D01*
X176106869Y-123102717D01*
X176366242Y-123102717D01*
X176625614Y-123102717D01*
X176625614Y-123352826D01*
X176625614Y-123602936D01*
X176366242Y-123602936D01*
X176106869Y-123602936D01*
X176106869Y-123861786D01*
X176106869Y-124120636D01*
X176361610Y-124125790D01*
X176616351Y-124130945D01*
X176621506Y-124385686D01*
X176626660Y-124640427D01*
X176875724Y-124640427D01*
X177124788Y-124640427D01*
X177129942Y-124895168D01*
X177130036Y-124899799D01*
X177135097Y-125149909D01*
X177389838Y-125155063D01*
X177644579Y-125160218D01*
X177644579Y-124640949D01*
X177644579Y-124121681D01*
X178422697Y-124121681D01*
X179200815Y-124121681D01*
X179200815Y-124381054D01*
X179200815Y-124640427D01*
X178682070Y-124640427D01*
X178163324Y-124640427D01*
X178163324Y-124899799D01*
X178163324Y-125159172D01*
X178423220Y-125159172D01*
X178683115Y-125159172D01*
X178677961Y-125413913D01*
X178672806Y-125668654D01*
X178417546Y-125673812D01*
X178162285Y-125678970D01*
X178167436Y-125933185D01*
X178172587Y-126187400D01*
X178427328Y-126192554D01*
X178682070Y-126197709D01*
X178682070Y-126447295D01*
X178682070Y-126696882D01*
X178163324Y-126696882D01*
X177644579Y-126696882D01*
X177644579Y-127215627D01*
X177644579Y-127734373D01*
X177903951Y-127734373D01*
X178162278Y-127734373D01*
X178167433Y-127989114D01*
X178172587Y-128243855D01*
X178682070Y-128243855D01*
X179191552Y-128243855D01*
X179196706Y-127989114D01*
X179201861Y-127734373D01*
X179450924Y-127734373D01*
X179699988Y-127734373D01*
X179705143Y-127989114D01*
X179710297Y-128243855D01*
X179965038Y-128249009D01*
X180219779Y-128254164D01*
X180219779Y-128503228D01*
X180219779Y-128503750D01*
X180219779Y-128753337D01*
X180479152Y-128753337D01*
X180738525Y-128753337D01*
X180738525Y-129012417D01*
X180738525Y-129271496D01*
X181252638Y-129276421D01*
X181766752Y-129281346D01*
X181766752Y-129790828D01*
X181766752Y-130300310D01*
X181252638Y-130305235D01*
X180738525Y-130310159D01*
X180738525Y-129791121D01*
X180738525Y-129272082D01*
X180479152Y-129272082D01*
X180219779Y-129272082D01*
X180219779Y-129790828D01*
X180219779Y-130309573D01*
X179960407Y-130309573D01*
X179701034Y-130309573D01*
X179701034Y-130568946D01*
X179701034Y-130828319D01*
X178412911Y-130828319D01*
X177125833Y-130828319D01*
X177125833Y-130309573D01*
X177125833Y-129790828D01*
X176875724Y-129790828D01*
X176625614Y-129790828D01*
X176625614Y-130309573D01*
X176625614Y-130828319D01*
X176875724Y-130828319D01*
X177124788Y-130828319D01*
X177129942Y-131083060D01*
X177135097Y-131337801D01*
X177389838Y-131342955D01*
X177644579Y-131348110D01*
X177644579Y-131597174D01*
X177644579Y-131857069D01*
X177644579Y-132366028D01*
X176875724Y-132366028D01*
X176106869Y-132366028D01*
X176106869Y-132106656D01*
X176106869Y-131847283D01*
X175068508Y-131847283D01*
X174030146Y-131847283D01*
X174031939Y-131592542D01*
X174032480Y-131493886D01*
X174032908Y-131352396D01*
X174032912Y-131347064D01*
X176106869Y-131347064D01*
X176106869Y-131597174D01*
X176106869Y-131847283D01*
X176616351Y-131847283D01*
X177125833Y-131847283D01*
X177125833Y-131597174D01*
X177125833Y-131347064D01*
X176616351Y-131347064D01*
X176106869Y-131347064D01*
X174032912Y-131347064D01*
X174033029Y-131208953D01*
X174032809Y-131083060D01*
X174031887Y-130828319D01*
X174290737Y-130828319D01*
X174549587Y-130828319D01*
X174554741Y-131083060D01*
X174559896Y-131337801D01*
X174801773Y-131342945D01*
X174818355Y-131343267D01*
X174907706Y-131343897D01*
X174982085Y-131342618D01*
X175034139Y-131339653D01*
X175056514Y-131335226D01*
X175057601Y-131333259D01*
X175062214Y-131303797D01*
X175065954Y-131246142D01*
X175068462Y-131167566D01*
X175069378Y-131075340D01*
X175069378Y-130828319D01*
X174810005Y-130828319D01*
X174550633Y-130828319D01*
X174550633Y-130568946D01*
X174550633Y-130309573D01*
X174291260Y-130309573D01*
X174031887Y-130309573D01*
X174031887Y-130568946D01*
X174031887Y-130828319D01*
X173781778Y-130828319D01*
X173531668Y-130828319D01*
X173531668Y-130568946D01*
X173531668Y-130309573D01*
X173781255Y-130309573D01*
X174030842Y-130309573D01*
X174035996Y-130054832D01*
X174041151Y-129800091D01*
X174295372Y-129794940D01*
X174549594Y-129789789D01*
X174554745Y-129535567D01*
X174559896Y-129281346D01*
X174814637Y-129276191D01*
X175069378Y-129271037D01*
X175069378Y-129790305D01*
X175069378Y-130309573D01*
X175328458Y-130309573D01*
X175587537Y-130309573D01*
X175592462Y-130823687D01*
X175592506Y-130828319D01*
X175597387Y-131337801D01*
X175847496Y-131337801D01*
X176097606Y-131337801D01*
X176102441Y-130564314D01*
X176107276Y-129790828D01*
X175847700Y-129790828D01*
X175588124Y-129790828D01*
X175588124Y-129531455D01*
X175588124Y-129272082D01*
X175847496Y-129272082D01*
X176106869Y-129272082D01*
X176106869Y-129012187D01*
X176106869Y-128752291D01*
X176361610Y-128757446D01*
X176616351Y-128762600D01*
X176621506Y-129017341D01*
X176626660Y-129272082D01*
X176875724Y-129272082D01*
X177124788Y-129272082D01*
X177129942Y-129017341D01*
X177130042Y-129012417D01*
X177644579Y-129012417D01*
X177644579Y-129271496D01*
X178158692Y-129276421D01*
X178672806Y-129281346D01*
X178677961Y-129536087D01*
X178683115Y-129790828D01*
X178163847Y-129790828D01*
X177644579Y-129790828D01*
X177644579Y-130050201D01*
X177644579Y-130309573D01*
X178672806Y-130309573D01*
X179701034Y-130309573D01*
X179701034Y-129790828D01*
X179701034Y-129272082D01*
X179450924Y-129272082D01*
X179200815Y-129272082D01*
X179200815Y-129012710D01*
X179200815Y-128753337D01*
X178422697Y-128753337D01*
X177644579Y-128753337D01*
X177644579Y-129012417D01*
X177130042Y-129012417D01*
X177135097Y-128762600D01*
X177389838Y-128757446D01*
X177644579Y-128752291D01*
X177644579Y-128503228D01*
X177644579Y-128254164D01*
X177592890Y-128253118D01*
X179200815Y-128253118D01*
X179200815Y-128503228D01*
X179200815Y-128753337D01*
X179450924Y-128753337D01*
X179701034Y-128753337D01*
X179701034Y-128503228D01*
X179701034Y-128253118D01*
X179450924Y-128253118D01*
X179200815Y-128253118D01*
X177592890Y-128253118D01*
X177389838Y-128249009D01*
X177135097Y-128243855D01*
X177135097Y-127475000D01*
X177135097Y-126706145D01*
X177389838Y-126700991D01*
X177644579Y-126695836D01*
X177644579Y-126446250D01*
X177644579Y-126196663D01*
X177135097Y-126196663D01*
X176625614Y-126196663D01*
X176625614Y-126446772D01*
X176625614Y-126696882D01*
X176366242Y-126696882D01*
X176106869Y-126696882D01*
X176106869Y-126447295D01*
X176106869Y-126197709D01*
X176361610Y-126192554D01*
X176616351Y-126187400D01*
X176616351Y-125677918D01*
X176616351Y-125168435D01*
X176362136Y-125163284D01*
X176107921Y-125158133D01*
X176102764Y-125413394D01*
X176097606Y-125668654D01*
X175588124Y-125668654D01*
X175078641Y-125668654D01*
X175073806Y-124895168D01*
X175072214Y-124640427D01*
X175588124Y-124640427D01*
X175588124Y-124899799D01*
X175588124Y-125159172D01*
X175847496Y-125159172D01*
X176106869Y-125159172D01*
X176106869Y-124899799D01*
X176106869Y-124640427D01*
X175847496Y-124640427D01*
X175588124Y-124640427D01*
X175072214Y-124640427D01*
X175068972Y-124121681D01*
X175328548Y-124121681D01*
X175588124Y-124121681D01*
X175588124Y-123862308D01*
X175588124Y-123602936D01*
X175328751Y-123602936D01*
X175069378Y-123602936D01*
X175069378Y-123352826D01*
X175069378Y-123102717D01*
X174810005Y-123102717D01*
X174550633Y-123102717D01*
X174550633Y-123352304D01*
X174550633Y-123601890D01*
X174295892Y-123607045D01*
X174041151Y-123612199D01*
X174037230Y-123871572D01*
X174037031Y-123885653D01*
X174036149Y-123969933D01*
X174035307Y-124084228D01*
X174034530Y-124222781D01*
X174033845Y-124379836D01*
X174033278Y-124549634D01*
X174032853Y-124726418D01*
X174032598Y-124904431D01*
X174031887Y-125677918D01*
X173781778Y-125677918D01*
X173531668Y-125677918D01*
X173531668Y-125418545D01*
X173531668Y-125159172D01*
X173272296Y-125159172D01*
X173012923Y-125159172D01*
X173012923Y-124899799D01*
X173012923Y-124640427D01*
X173272589Y-124640427D01*
X173532255Y-124640427D01*
X173527330Y-124126313D01*
X173522405Y-123612199D01*
X173267664Y-123607045D01*
X173012923Y-123601890D01*
X173012923Y-123352304D01*
X173012923Y-123102717D01*
X173272296Y-123102717D01*
X173531668Y-123102717D01*
X173531668Y-123352826D01*
X173531668Y-123602936D01*
X173781778Y-123602936D01*
X174031887Y-123602936D01*
X174031887Y-123352826D01*
X174031887Y-123102717D01*
X173781778Y-123102717D01*
X173531668Y-123102717D01*
X173531668Y-122843344D01*
X173531668Y-122583972D01*
X174040628Y-122583972D01*
X174549587Y-122583972D01*
X174554741Y-122329230D01*
X174559896Y-122074489D01*
X174814637Y-122069335D01*
X175069378Y-122064180D01*
X175069378Y-121805331D01*
X175069378Y-121546481D01*
X174809483Y-121546481D01*
X174549587Y-121546481D01*
X174554741Y-121291740D01*
X174559896Y-121036999D01*
X174814637Y-121031844D01*
X175069378Y-121026690D01*
X175069378Y-121286585D01*
X175069378Y-121546481D01*
X175328751Y-121546481D01*
X175588124Y-121546481D01*
X175588124Y-121545435D01*
X176106869Y-121545435D01*
X176106869Y-121805331D01*
X176106869Y-122065226D01*
X176357560Y-122065226D01*
X176416753Y-122064991D01*
X176507830Y-122062996D01*
X176568660Y-122058617D01*
X176603732Y-122051438D01*
X176617532Y-122041040D01*
X176617726Y-122040480D01*
X176620819Y-122011756D01*
X176622578Y-121954455D01*
X176622875Y-121876623D01*
X176621582Y-121786299D01*
X176616351Y-121555744D01*
X176361610Y-121550589D01*
X176106869Y-121545435D01*
X175588124Y-121545435D01*
X175588124Y-121036999D01*
X175588124Y-120527516D01*
X175847496Y-120527516D01*
X176106869Y-120527516D01*
X176106869Y-120777626D01*
X176106869Y-121027735D01*
X176367112Y-121027735D01*
X176625614Y-121027735D01*
X176625614Y-121287108D01*
X176625614Y-121546481D01*
X176875724Y-121546481D01*
X177125833Y-121546481D01*
X177125833Y-121287108D01*
X177125833Y-121027735D01*
X176875724Y-121027735D01*
X176627355Y-121027735D01*
X176625563Y-120772994D01*
X176625022Y-120674339D01*
X176624594Y-120532848D01*
X176624473Y-120389405D01*
X176624692Y-120263512D01*
X176625614Y-120008771D01*
X176875201Y-120008771D01*
X177124788Y-120008771D01*
X177129942Y-120263512D01*
X177135097Y-120518253D01*
X177389838Y-120523408D01*
X177644579Y-120528562D01*
X177644579Y-121037521D01*
X177644579Y-121546481D01*
X177385206Y-121546481D01*
X177125833Y-121546481D01*
X177125833Y-121876623D01*
X177125833Y-122065226D01*
G37*
D11*
%TO.C,JP602*%
X248900000Y-137750000D02*
X248900000Y-139150000D01*
X249600000Y-139850000D02*
X250200000Y-139850000D01*
X250200000Y-137050000D02*
X249600000Y-137050000D01*
X250900000Y-139150000D02*
X250900000Y-137750000D01*
X248900000Y-137750000D02*
G75*
G02*
X249600000Y-137050000I699999J1D01*
G01*
X249600000Y-139850000D02*
G75*
G02*
X248900000Y-139150000I0J700000D01*
G01*
X250200000Y-137050000D02*
G75*
G02*
X250900000Y-137750000I1J-699999D01*
G01*
X250900000Y-139150000D02*
G75*
G02*
X250200000Y-139850000I-700000J0D01*
G01*
%TO.C,JP604*%
X251500000Y-125200000D02*
X251500000Y-125800000D01*
X252200000Y-126500000D02*
X253600000Y-126500000D01*
X253600000Y-124500000D02*
X252200000Y-124500000D01*
X254300000Y-125800000D02*
X254300000Y-125200000D01*
X251500000Y-125200000D02*
G75*
G02*
X252200000Y-124500000I699999J1D01*
G01*
X252200000Y-126500000D02*
G75*
G02*
X251500000Y-125800000I-1J699999D01*
G01*
X253600000Y-124500000D02*
G75*
G02*
X254300000Y-125200000I0J-700000D01*
G01*
X254300000Y-125800000D02*
G75*
G02*
X253600000Y-126500000I-700000J0D01*
G01*
%TO.C,JP603*%
X251400000Y-137750000D02*
X251400000Y-139150000D01*
X252100000Y-139850000D02*
X252700000Y-139850000D01*
X252700000Y-137050000D02*
X252100000Y-137050000D01*
X253400000Y-139150000D02*
X253400000Y-137750000D01*
X251400000Y-137750000D02*
G75*
G02*
X252100000Y-137050000I699999J1D01*
G01*
X252100000Y-139850000D02*
G75*
G02*
X251400000Y-139150000I0J700000D01*
G01*
X252700000Y-137050000D02*
G75*
G02*
X253400000Y-137750000I1J-699999D01*
G01*
X253400000Y-139150000D02*
G75*
G02*
X252700000Y-139850000I-700000J0D01*
G01*
%TO.C,JP601*%
X246400000Y-137750000D02*
X246400000Y-139150000D01*
X247100000Y-139850000D02*
X247700000Y-139850000D01*
X247700000Y-137050000D02*
X247100000Y-137050000D01*
X248400000Y-139150000D02*
X248400000Y-137750000D01*
X246400000Y-137750000D02*
G75*
G02*
X247100000Y-137050000I699999J1D01*
G01*
X247100000Y-139850000D02*
G75*
G02*
X246400000Y-139150000I0J700000D01*
G01*
X247700000Y-137050000D02*
G75*
G02*
X248400000Y-137750000I1J-699999D01*
G01*
X248400000Y-139150000D02*
G75*
G02*
X247700000Y-139850000I-700000J0D01*
G01*
%TD*%
%LPC*%
%TO.C,JP605*%
G36*
X252750000Y-128750000D02*
G01*
X253050000Y-128750000D01*
X253050000Y-127250000D01*
X252750000Y-127250000D01*
X252750000Y-128750000D01*
G37*
%TO.C,JP602*%
G36*
X249150000Y-138300000D02*
G01*
X250650000Y-138300000D01*
X250650000Y-138600000D01*
X249150000Y-138600000D01*
X249150000Y-138300000D01*
G37*
%TO.C,JP604*%
G36*
X252750000Y-126250000D02*
G01*
X253050000Y-126250000D01*
X253050000Y-124750000D01*
X252750000Y-124750000D01*
X252750000Y-126250000D01*
G37*
%TO.C,JP603*%
G36*
X251650000Y-138300000D02*
G01*
X253150000Y-138300000D01*
X253150000Y-138600000D01*
X251650000Y-138600000D01*
X251650000Y-138300000D01*
G37*
%TO.C,JP601*%
G36*
X246650000Y-138300000D02*
G01*
X248150000Y-138300000D01*
X248150000Y-138600000D01*
X246650000Y-138600000D01*
X246650000Y-138300000D01*
G37*
%TD*%
D12*
%TO.C,X508*%
X200900000Y-120700000D03*
D13*
X200900000Y-118160000D03*
%TD*%
D12*
%TO.C,X503*%
X175100000Y-175400000D03*
D13*
X175100000Y-177940000D03*
%TD*%
D14*
%TO.C,REF\u002A\u002A*%
X200500000Y-157000000D03*
D15*
X200500000Y-157000000D03*
%TD*%
D12*
%TO.C,X610*%
X209600000Y-156600000D03*
D13*
X209600000Y-159140000D03*
%TD*%
D12*
%TO.C,X403*%
X163200000Y-172220000D03*
D13*
X163200000Y-174760000D03*
X163200000Y-177300000D03*
X163200000Y-179840000D03*
%TD*%
D12*
%TO.C,X504*%
X194800000Y-172490000D03*
D13*
X194800000Y-175030000D03*
X194800000Y-177570000D03*
X194800000Y-180110000D03*
%TD*%
D12*
%TO.C,X606*%
X225700000Y-159640000D03*
D13*
X225700000Y-157100000D03*
%TD*%
D12*
%TO.C,X401*%
X219100000Y-116000000D03*
D13*
X216560000Y-116000000D03*
%TD*%
D12*
%TO.C,X501*%
X229200000Y-179500000D03*
D13*
X226660000Y-179500000D03*
%TD*%
D12*
%TO.C,X502*%
X181500000Y-167460000D03*
D13*
X181500000Y-170000000D03*
X181500000Y-172540000D03*
X181500000Y-175080000D03*
X181500000Y-177620000D03*
X181500000Y-180160000D03*
%TD*%
D12*
%TO.C,X506*%
X237840000Y-179500000D03*
D13*
X235300000Y-179500000D03*
%TD*%
D12*
%TO.C,X607*%
X209600000Y-130525000D03*
D13*
X209600000Y-133065000D03*
%TD*%
D12*
%TO.C,X505*%
X219340000Y-179500000D03*
D13*
X216800000Y-179500000D03*
%TD*%
D12*
%TO.C,X604*%
X255700000Y-132270000D03*
D13*
X255700000Y-134810000D03*
X255700000Y-137350000D03*
%TD*%
D12*
%TO.C,X507*%
X247300000Y-179500000D03*
D13*
X244760000Y-179500000D03*
%TD*%
D16*
%TO.C,X603*%
X250400000Y-122560000D03*
D17*
X243200000Y-122560000D03*
D18*
X251290000Y-115360000D03*
X250930000Y-121310000D03*
X242670000Y-121310000D03*
X242310000Y-115360000D03*
%TD*%
D12*
%TO.C,X609*%
X208475000Y-148700000D03*
D13*
X205935000Y-148700000D03*
%TD*%
D12*
%TO.C,X404*%
X218500000Y-136500000D03*
D13*
X221040000Y-136500000D03*
X223580000Y-136500000D03*
X226120000Y-136500000D03*
%TD*%
D14*
%TO.C,REF\u002A\u002A*%
X163000000Y-157000000D03*
D15*
X163000000Y-157000000D03*
%TD*%
D14*
%TO.C,REF\u002A\u002A*%
X200500000Y-128000000D03*
D15*
X200500000Y-128000000D03*
%TD*%
D12*
%TO.C,X510*%
X201600000Y-175020000D03*
D13*
X201600000Y-177560000D03*
X201600000Y-180100000D03*
%TD*%
D12*
%TO.C,X605*%
X218500000Y-149050000D03*
D13*
X218500000Y-151590000D03*
X218500000Y-154130000D03*
X218500000Y-156670000D03*
X218500000Y-159210000D03*
X218500000Y-161750000D03*
%TD*%
D14*
%TO.C,REF\u002A\u002A*%
X163000000Y-128000000D03*
D15*
X163000000Y-128000000D03*
%TD*%
D12*
%TO.C,X602*%
X243300000Y-141900000D03*
D13*
X240760000Y-141900000D03*
%TD*%
D19*
%TO.C,JP605*%
X252250000Y-128000000D03*
D20*
X253550000Y-128000000D03*
%TD*%
D21*
%TO.C,JP602*%
X249900000Y-137800000D03*
D22*
X249900000Y-139100000D03*
%TD*%
D19*
%TO.C,JP604*%
X252250000Y-125500000D03*
D20*
X253550000Y-125500000D03*
%TD*%
D21*
%TO.C,JP603*%
X252400000Y-137800000D03*
D22*
X252400000Y-139100000D03*
%TD*%
D21*
%TO.C,JP601*%
X247400000Y-137800000D03*
D22*
X247400000Y-139100000D03*
%TD*%
%LPD*%
M02*
