%TF.GenerationSoftware,KiCad,Pcbnew,9.0.6+1*%
%TF.CreationDate,2025-12-31T10:00:21+00:00*%
%TF.ProjectId,ZSWatch-Watch-DevKit,5a535761-7463-4682-9d57-617463682d44,1.2.2*%
%TF.SameCoordinates,Original*%
%TF.FileFunction,Soldermask,Bot*%
%TF.FilePolarity,Negative*%
%FSLAX46Y46*%
G04 Gerber Fmt 4.6, Leading zero omitted, Abs format (unit mm)*
G04 Created by KiCad (PCBNEW 9.0.6+1) date 2025-12-31 10:00:21*
%MOMM*%
%LPD*%
G01*
G04 APERTURE LIST*
G04 Aperture macros list*
%AMFreePoly0*
4,1,23,0.500000,-0.750000,0.000000,-0.750000,0.000000,-0.745722,-0.065263,-0.745722,-0.191342,-0.711940,-0.304381,-0.646677,-0.396677,-0.554381,-0.461940,-0.441342,-0.495722,-0.315263,-0.495722,-0.250000,-0.500000,-0.250000,-0.500000,0.250000,-0.495722,0.250000,-0.495722,0.315263,-0.461940,0.441342,-0.396677,0.554381,-0.304381,0.646677,-0.191342,0.711940,-0.065263,0.745722,0.000000,0.745722,
0.000000,0.750000,0.500000,0.750000,0.500000,-0.750000,0.500000,-0.750000,$1*%
%AMFreePoly1*
4,1,23,0.000000,0.745722,0.065263,0.745722,0.191342,0.711940,0.304381,0.646677,0.396677,0.554381,0.461940,0.441342,0.495722,0.315263,0.495722,0.250000,0.500000,0.250000,0.500000,-0.250000,0.495722,-0.250000,0.495722,-0.315263,0.461940,-0.441342,0.396677,-0.554381,0.304381,-0.646677,0.191342,-0.711940,0.065263,-0.745722,0.000000,-0.745722,0.000000,-0.750000,-0.500000,-0.750000,
-0.500000,0.750000,0.000000,0.750000,0.000000,0.745722,0.000000,0.745722,$1*%
G04 Aperture macros list end*
%ADD10R,1.700000X1.700000*%
%ADD11C,1.700000*%
%ADD12C,2.900000*%
%ADD13C,5.000000*%
%ADD14C,0.650000*%
%ADD15O,0.950000X0.650000*%
%ADD16O,0.800000X1.400000*%
%ADD17FreePoly0,0.000000*%
%ADD18FreePoly1,0.000000*%
%ADD19FreePoly0,270.000000*%
%ADD20FreePoly1,270.000000*%
G04 APERTURE END LIST*
%TO.C,JP605*%
G36*
X252750000Y-128750000D02*
G01*
X253050000Y-128750000D01*
X253050000Y-127250000D01*
X252750000Y-127250000D01*
X252750000Y-128750000D01*
G37*
%TO.C,JP602*%
G36*
X249150000Y-138300000D02*
G01*
X250650000Y-138300000D01*
X250650000Y-138600000D01*
X249150000Y-138600000D01*
X249150000Y-138300000D01*
G37*
%TO.C,JP604*%
G36*
X252750000Y-126250000D02*
G01*
X253050000Y-126250000D01*
X253050000Y-124750000D01*
X252750000Y-124750000D01*
X252750000Y-126250000D01*
G37*
%TO.C,JP603*%
G36*
X251650000Y-138300000D02*
G01*
X253150000Y-138300000D01*
X253150000Y-138600000D01*
X251650000Y-138600000D01*
X251650000Y-138300000D01*
G37*
%TO.C,JP601*%
G36*
X246650000Y-138300000D02*
G01*
X248150000Y-138300000D01*
X248150000Y-138600000D01*
X246650000Y-138600000D01*
X246650000Y-138300000D01*
G37*
%TD*%
D10*
%TO.C,X508*%
X200900000Y-120700000D03*
D11*
X200900000Y-118160000D03*
%TD*%
D10*
%TO.C,X503*%
X175100000Y-175400000D03*
D11*
X175100000Y-177940000D03*
%TD*%
D12*
%TO.C,REF\u002A\u002A*%
X200500000Y-157000000D03*
D13*
X200500000Y-157000000D03*
%TD*%
D10*
%TO.C,X610*%
X209600000Y-156600000D03*
D11*
X209600000Y-159140000D03*
%TD*%
D10*
%TO.C,X403*%
X163200000Y-172220000D03*
D11*
X163200000Y-174760000D03*
X163200000Y-177300000D03*
X163200000Y-179840000D03*
%TD*%
D10*
%TO.C,X504*%
X194800000Y-172490000D03*
D11*
X194800000Y-175030000D03*
X194800000Y-177570000D03*
X194800000Y-180110000D03*
%TD*%
D10*
%TO.C,X606*%
X225700000Y-159640000D03*
D11*
X225700000Y-157100000D03*
%TD*%
D10*
%TO.C,X401*%
X219100000Y-116000000D03*
D11*
X216560000Y-116000000D03*
%TD*%
D10*
%TO.C,X501*%
X229200000Y-179500000D03*
D11*
X226660000Y-179500000D03*
%TD*%
D10*
%TO.C,X502*%
X181500000Y-167460000D03*
D11*
X181500000Y-170000000D03*
X181500000Y-172540000D03*
X181500000Y-175080000D03*
X181500000Y-177620000D03*
X181500000Y-180160000D03*
%TD*%
D10*
%TO.C,X506*%
X237840000Y-179500000D03*
D11*
X235300000Y-179500000D03*
%TD*%
D10*
%TO.C,X607*%
X209600000Y-130525000D03*
D11*
X209600000Y-133065000D03*
%TD*%
D10*
%TO.C,X505*%
X219340000Y-179500000D03*
D11*
X216800000Y-179500000D03*
%TD*%
D10*
%TO.C,X604*%
X255700000Y-132270000D03*
D11*
X255700000Y-134810000D03*
X255700000Y-137350000D03*
%TD*%
D10*
%TO.C,X507*%
X247300000Y-179500000D03*
D11*
X244760000Y-179500000D03*
%TD*%
D14*
%TO.C,X603*%
X250400000Y-122560000D03*
D15*
X243200000Y-122560000D03*
D16*
X251290000Y-115360000D03*
X250930000Y-121310000D03*
X242670000Y-121310000D03*
X242310000Y-115360000D03*
%TD*%
D10*
%TO.C,X609*%
X208475000Y-148700000D03*
D11*
X205935000Y-148700000D03*
%TD*%
D10*
%TO.C,X404*%
X218500000Y-136500000D03*
D11*
X221040000Y-136500000D03*
X223580000Y-136500000D03*
X226120000Y-136500000D03*
%TD*%
D12*
%TO.C,REF\u002A\u002A*%
X163000000Y-157000000D03*
D13*
X163000000Y-157000000D03*
%TD*%
D12*
%TO.C,REF\u002A\u002A*%
X200500000Y-128000000D03*
D13*
X200500000Y-128000000D03*
%TD*%
D10*
%TO.C,X510*%
X201600000Y-175020000D03*
D11*
X201600000Y-177560000D03*
X201600000Y-180100000D03*
%TD*%
D10*
%TO.C,X605*%
X218500000Y-149050000D03*
D11*
X218500000Y-151590000D03*
X218500000Y-154130000D03*
X218500000Y-156670000D03*
X218500000Y-159210000D03*
X218500000Y-161750000D03*
%TD*%
D12*
%TO.C,REF\u002A\u002A*%
X163000000Y-128000000D03*
D13*
X163000000Y-128000000D03*
%TD*%
D10*
%TO.C,X602*%
X243300000Y-141900000D03*
D11*
X240760000Y-141900000D03*
%TD*%
D17*
%TO.C,JP605*%
X252250000Y-128000000D03*
D18*
X253550000Y-128000000D03*
%TD*%
D19*
%TO.C,JP602*%
X249900000Y-137800000D03*
D20*
X249900000Y-139100000D03*
%TD*%
D17*
%TO.C,JP604*%
X252250000Y-125500000D03*
D18*
X253550000Y-125500000D03*
%TD*%
D19*
%TO.C,JP603*%
X252400000Y-137800000D03*
D20*
X252400000Y-139100000D03*
%TD*%
D19*
%TO.C,JP601*%
X247400000Y-137800000D03*
D20*
X247400000Y-139100000D03*
%TD*%
M02*
