%TF.GenerationSoftware,KiCad,Pcbnew,9.0.6+1*%
%TF.CreationDate,2025-12-31T10:00:21+00:00*%
%TF.ProjectId,ZSWatch-Watch-DevKit,5a535761-7463-4682-9d57-617463682d44,1.2.2*%
%TF.SameCoordinates,Original*%
%TF.FileFunction,Copper,L4,Bot*%
%TF.FilePolarity,Positive*%
%FSLAX46Y46*%
G04 Gerber Fmt 4.6, Leading zero omitted, Abs format (unit mm)*
G04 Created by KiCad (PCBNEW 9.0.6+1) date 2025-12-31 10:00:21*
%MOMM*%
%LPD*%
G01*
G04 APERTURE LIST*
G04 Aperture macros list*
%AMFreePoly0*
4,1,23,0.500000,-0.750000,0.000000,-0.750000,0.000000,-0.745722,-0.065263,-0.745722,-0.191342,-0.711940,-0.304381,-0.646677,-0.396677,-0.554381,-0.461940,-0.441342,-0.495722,-0.315263,-0.495722,-0.250000,-0.500000,-0.250000,-0.500000,0.250000,-0.495722,0.250000,-0.495722,0.315263,-0.461940,0.441342,-0.396677,0.554381,-0.304381,0.646677,-0.191342,0.711940,-0.065263,0.745722,0.000000,0.745722,
0.000000,0.750000,0.500000,0.750000,0.500000,-0.750000,0.500000,-0.750000,$1*%
%AMFreePoly1*
4,1,23,0.000000,0.745722,0.065263,0.745722,0.191342,0.711940,0.304381,0.646677,0.396677,0.554381,0.461940,0.441342,0.495722,0.315263,0.495722,0.250000,0.500000,0.250000,0.500000,-0.250000,0.495722,-0.250000,0.495722,-0.315263,0.461940,-0.441342,0.396677,-0.554381,0.304381,-0.646677,0.191342,-0.711940,0.065263,-0.745722,0.000000,-0.745722,0.000000,-0.750000,-0.500000,-0.750000,
-0.500000,0.750000,0.000000,0.750000,0.000000,0.745722,0.000000,0.745722,$1*%
G04 Aperture macros list end*
%TA.AperFunction,NonConductor*%
%ADD10C,0.200000*%
%TD*%
%ADD11C,0.120000*%
%TA.AperFunction,NonConductor*%
%ADD12C,0.120000*%
%TD*%
%TA.AperFunction,EtchedComponent*%
%ADD13C,0.000000*%
%TD*%
%TA.AperFunction,ComponentPad*%
%ADD14R,1.700000X1.700000*%
%TD*%
%TA.AperFunction,ComponentPad*%
%ADD15C,1.700000*%
%TD*%
%TA.AperFunction,ComponentPad*%
%ADD16C,0.500000*%
%TD*%
%TA.AperFunction,SMDPad,CuDef*%
%ADD17R,2.500000X2.500000*%
%TD*%
%TA.AperFunction,ComponentPad*%
%ADD18C,2.900000*%
%TD*%
%TA.AperFunction,ConnectorPad*%
%ADD19C,5.000000*%
%TD*%
%TA.AperFunction,HeatsinkPad*%
%ADD20O,0.800000X1.400000*%
%TD*%
%TA.AperFunction,SMDPad,CuDef*%
%ADD21FreePoly0,0.000000*%
%TD*%
%TA.AperFunction,SMDPad,CuDef*%
%ADD22FreePoly1,0.000000*%
%TD*%
%TA.AperFunction,SMDPad,CuDef*%
%ADD23FreePoly0,270.000000*%
%TD*%
%TA.AperFunction,SMDPad,CuDef*%
%ADD24FreePoly1,270.000000*%
%TD*%
%TA.AperFunction,ViaPad*%
%ADD25C,0.450000*%
%TD*%
%TA.AperFunction,Conductor*%
%ADD26C,0.200000*%
%TD*%
%TA.AperFunction,Conductor*%
%ADD27C,0.170000*%
%TD*%
%TA.AperFunction,Conductor*%
%ADD28C,0.127000*%
%TD*%
%TA.AperFunction,Conductor*%
%ADD29C,0.300000*%
%TD*%
G04 APERTURE END LIST*
D10*
X172100000Y-116200000D02*
X180200000Y-116200000D01*
X180200000Y-118800000D01*
X172100000Y-118800000D01*
X172100000Y-116200000D01*
D11*
D12*
X177064285Y-117863855D02*
X177521428Y-117863855D01*
X177292856Y-117863855D02*
X177292856Y-117063855D01*
X177292856Y-117063855D02*
X177369047Y-117178140D01*
X177369047Y-117178140D02*
X177445237Y-117254331D01*
X177445237Y-117254331D02*
X177521428Y-117292426D01*
X176721427Y-117787664D02*
X176683332Y-117825760D01*
X176683332Y-117825760D02*
X176721427Y-117863855D01*
X176721427Y-117863855D02*
X176759523Y-117825760D01*
X176759523Y-117825760D02*
X176721427Y-117787664D01*
X176721427Y-117787664D02*
X176721427Y-117863855D01*
X176378571Y-117140045D02*
X176340475Y-117101950D01*
X176340475Y-117101950D02*
X176264285Y-117063855D01*
X176264285Y-117063855D02*
X176073809Y-117063855D01*
X176073809Y-117063855D02*
X175997618Y-117101950D01*
X175997618Y-117101950D02*
X175959523Y-117140045D01*
X175959523Y-117140045D02*
X175921428Y-117216236D01*
X175921428Y-117216236D02*
X175921428Y-117292426D01*
X175921428Y-117292426D02*
X175959523Y-117406712D01*
X175959523Y-117406712D02*
X176416666Y-117863855D01*
X176416666Y-117863855D02*
X175921428Y-117863855D01*
X175578570Y-117787664D02*
X175540475Y-117825760D01*
X175540475Y-117825760D02*
X175578570Y-117863855D01*
X175578570Y-117863855D02*
X175616666Y-117825760D01*
X175616666Y-117825760D02*
X175578570Y-117787664D01*
X175578570Y-117787664D02*
X175578570Y-117863855D01*
X175235714Y-117140045D02*
X175197618Y-117101950D01*
X175197618Y-117101950D02*
X175121428Y-117063855D01*
X175121428Y-117063855D02*
X174930952Y-117063855D01*
X174930952Y-117063855D02*
X174854761Y-117101950D01*
X174854761Y-117101950D02*
X174816666Y-117140045D01*
X174816666Y-117140045D02*
X174778571Y-117216236D01*
X174778571Y-117216236D02*
X174778571Y-117292426D01*
X174778571Y-117292426D02*
X174816666Y-117406712D01*
X174816666Y-117406712D02*
X175273809Y-117863855D01*
X175273809Y-117863855D02*
X174778571Y-117863855D01*
D13*
%TA.AperFunction,EtchedComponent*%
%TO.C,JP605*%
G36*
X253150000Y-128300000D02*
G01*
X252650000Y-128300000D01*
X252650000Y-127700000D01*
X253150000Y-127700000D01*
X253150000Y-128300000D01*
G37*
%TD.AperFunction*%
%TA.AperFunction,EtchedComponent*%
%TO.C,JP602*%
G36*
X250200000Y-138700000D02*
G01*
X249600000Y-138700000D01*
X249600000Y-138200000D01*
X250200000Y-138200000D01*
X250200000Y-138700000D01*
G37*
%TD.AperFunction*%
%TA.AperFunction,EtchedComponent*%
%TO.C,JP604*%
G36*
X253150000Y-125800000D02*
G01*
X252650000Y-125800000D01*
X252650000Y-125200000D01*
X253150000Y-125200000D01*
X253150000Y-125800000D01*
G37*
%TD.AperFunction*%
%TA.AperFunction,EtchedComponent*%
%TO.C,JP603*%
G36*
X252700000Y-138700000D02*
G01*
X252100000Y-138700000D01*
X252100000Y-138200000D01*
X252700000Y-138200000D01*
X252700000Y-138700000D01*
G37*
%TD.AperFunction*%
%TA.AperFunction,EtchedComponent*%
%TO.C,JP601*%
G36*
X247700000Y-138700000D02*
G01*
X247100000Y-138700000D01*
X247100000Y-138200000D01*
X247700000Y-138200000D01*
X247700000Y-138700000D01*
G37*
%TD.AperFunction*%
%TD*%
D14*
%TO.P,X508,1,Pin_1*%
%TO.N,/Project Architecture/Power Management/VSYS*%
X200900000Y-120700000D03*
D15*
%TO.P,X508,2,Pin_2*%
%TO.N,Net-(IC505-VDD)*%
X200900000Y-118160000D03*
%TD*%
D16*
%TO.P,IC401,33,GND*%
%TO.N,GND*%
X224387790Y-122830400D03*
X224387790Y-123830400D03*
X224387790Y-124830400D03*
X225387790Y-122830400D03*
X225387790Y-123830400D03*
D17*
X225387790Y-123830400D03*
D16*
X225387790Y-124830400D03*
X226387790Y-122830400D03*
X226387790Y-123830400D03*
X226387790Y-124830400D03*
%TD*%
D14*
%TO.P,X503,1,Pin_1*%
%TO.N,/Project Architecture/Peripherals/VMIC*%
X175100000Y-175400000D03*
D15*
%TO.P,X503,2,Pin_2*%
%TO.N,Net-(MK501-VDD)*%
X175100000Y-177940000D03*
%TD*%
D18*
%TO.P,REF\u002A\u002A,1*%
%TO.N,N/C*%
X200500000Y-157000000D03*
D19*
X200500000Y-157000000D03*
%TD*%
D14*
%TO.P,X610,1,Pin_1*%
%TO.N,+3V0*%
X209600000Y-156600000D03*
D15*
%TO.P,X610,2,Pin_2*%
%TO.N,Net-(X608-LEDA1)*%
X209600000Y-159140000D03*
%TD*%
D14*
%TO.P,X403,1,Pin_1*%
%TO.N,+1V8*%
X163200000Y-172220000D03*
D15*
%TO.P,X403,2,Pin_2*%
%TO.N,+3V0*%
X163200000Y-174760000D03*
%TO.P,X403,3,Pin_3*%
%TO.N,/Project Architecture/Power Management/VSYS*%
X163200000Y-177300000D03*
%TO.P,X403,4,Pin_4*%
%TO.N,GND*%
X163200000Y-179840000D03*
%TD*%
D14*
%TO.P,X504,1,Pin_1*%
%TO.N,+1V8*%
X194800000Y-172490000D03*
D15*
%TO.P,X504,2,Pin_2*%
%TO.N,/Project Architecture/MCU/SDA*%
X194800000Y-175030000D03*
%TO.P,X504,3,Pin_3*%
%TO.N,/Project Architecture/MCU/SCL*%
X194800000Y-177570000D03*
%TO.P,X504,4,Pin_4*%
%TO.N,GND*%
X194800000Y-180110000D03*
%TD*%
D14*
%TO.P,X606,1,Pin_1*%
%TO.N,+1V8*%
X225700000Y-159640000D03*
D15*
%TO.P,X606,2,Pin_2*%
%TO.N,Net-(IC603-VCC)*%
X225700000Y-157100000D03*
%TD*%
D14*
%TO.P,X401,1,Pin_1*%
%TO.N,/Project Architecture/Peripherals/VBAT*%
X219100000Y-116000000D03*
D15*
%TO.P,X401,2,Pin_2*%
%TO.N,GND*%
X216560000Y-116000000D03*
%TD*%
D14*
%TO.P,X501,1,Pin_1*%
%TO.N,+1V8*%
X229200000Y-179500000D03*
D15*
%TO.P,X501,2,Pin_2*%
%TO.N,Net-(IC501-VDD)*%
X226660000Y-179500000D03*
%TD*%
D14*
%TO.P,X502,1,Pin_1*%
%TO.N,+1V8*%
X181500000Y-167460000D03*
D15*
%TO.P,X502,2,Pin_2*%
%TO.N,/Project Architecture/MCU/MCLK*%
X181500000Y-170000000D03*
%TO.P,X502,3,Pin_3*%
%TO.N,/Project Architecture/MCU/WS*%
X181500000Y-172540000D03*
%TO.P,X502,4,Pin_4*%
%TO.N,/Project Architecture/MCU/Data*%
X181500000Y-175080000D03*
%TO.P,X502,5,Pin_5*%
%TO.N,/Project Architecture/MCU/GPIO*%
X181500000Y-177620000D03*
%TO.P,X502,6,Pin_6*%
%TO.N,GND*%
X181500000Y-180160000D03*
%TD*%
D14*
%TO.P,X506,1,Pin_1*%
%TO.N,+1V8*%
X237840000Y-179500000D03*
D15*
%TO.P,X506,2,Pin_2*%
%TO.N,Net-(IC503-VDD)*%
X235300000Y-179500000D03*
%TD*%
D14*
%TO.P,X607,1,Pin_1*%
%TO.N,+1V8*%
X209600000Y-130525000D03*
D15*
%TO.P,X607,2,Pin_2*%
%TO.N,Net-(X607-Pin_2)*%
X209600000Y-133065000D03*
%TD*%
D14*
%TO.P,X505,1,Pin_1*%
%TO.N,+1V8*%
X219340000Y-179500000D03*
D15*
%TO.P,X505,2,Pin_2*%
%TO.N,Net-(IC502-VDD)*%
X216800000Y-179500000D03*
%TD*%
D14*
%TO.P,X604,1,Pin_1*%
%TO.N,TxD*%
X255700000Y-132270000D03*
D15*
%TO.P,X604,2,Pin_2*%
%TO.N,RxD*%
X255700000Y-134810000D03*
%TO.P,X604,3,Pin_3*%
%TO.N,GND*%
X255700000Y-137350000D03*
%TD*%
D14*
%TO.P,X507,1,Pin_1*%
%TO.N,+1V8*%
X247300000Y-179500000D03*
D15*
%TO.P,X507,2,Pin_2*%
%TO.N,Net-(IC504-VDD)*%
X244760000Y-179500000D03*
%TD*%
D20*
%TO.P,X603,S1,SHIELD*%
%TO.N,GND*%
X251290000Y-115360000D03*
X250930000Y-121310000D03*
X242670000Y-121310000D03*
X242310000Y-115360000D03*
%TD*%
D14*
%TO.P,X609,1,Pin_1*%
%TO.N,+3V0*%
X208475000Y-148700000D03*
D15*
%TO.P,X609,2,Pin_2*%
%TO.N,Net-(X608-CTP-VDD)*%
X205935000Y-148700000D03*
%TD*%
D14*
%TO.P,X404,1,Pin_1*%
%TO.N,/Project Architecture/Power Management/VSYS*%
X218500000Y-136500000D03*
D15*
%TO.P,X404,2,Pin_2*%
X221040000Y-136500000D03*
%TO.P,X404,3,Pin_3*%
%TO.N,GND*%
X223580000Y-136500000D03*
%TO.P,X404,4,Pin_4*%
X226120000Y-136500000D03*
%TD*%
D18*
%TO.P,REF\u002A\u002A,1*%
%TO.N,N/C*%
X163000000Y-157000000D03*
D19*
X163000000Y-157000000D03*
%TD*%
D18*
%TO.P,REF\u002A\u002A,1*%
%TO.N,N/C*%
X200500000Y-128000000D03*
D19*
X200500000Y-128000000D03*
%TD*%
D14*
%TO.P,X510,1,Pin_1*%
%TO.N,/Project Architecture/Peripherals/VBAT*%
X201600000Y-175020000D03*
D15*
%TO.P,X510,2,Pin_2*%
%TO.N,Net-(IC507-V_{DD})*%
X201600000Y-177560000D03*
%TO.P,X510,3,Pin_3*%
%TO.N,/Project Architecture/Power Management/VSYS*%
X201600000Y-180100000D03*
%TD*%
D14*
%TO.P,X605,1,Pin_1*%
%TO.N,Net-(M601B-P0.22)*%
X218500000Y-149050000D03*
D15*
%TO.P,X605,2,Pin_2*%
%TO.N,Net-(M601B-P0.05{slash}AIN1)*%
X218500000Y-151590000D03*
%TO.P,X605,3,Pin_3*%
%TO.N,Net-(M601B-P0.04{slash}AIN0)*%
X218500000Y-154130000D03*
%TO.P,X605,4,Pin_4*%
%TO.N,Net-(M601C-P1.14)*%
X218500000Y-156670000D03*
%TO.P,X605,5,Pin_5*%
%TO.N,GND*%
X218500000Y-159210000D03*
%TO.P,X605,6,Pin_6*%
%TO.N,+1V8*%
X218500000Y-161750000D03*
%TD*%
D18*
%TO.P,REF\u002A\u002A,1*%
%TO.N,N/C*%
X163000000Y-128000000D03*
D19*
X163000000Y-128000000D03*
%TD*%
D14*
%TO.P,X602,1,Pin_1*%
%TO.N,+1V8*%
X243300000Y-141900000D03*
D15*
%TO.P,X602,2,Pin_2*%
%TO.N,Net-(M601A-VDDH)*%
X240760000Y-141900000D03*
%TD*%
D21*
%TO.P,JP605,1,A*%
%TO.N,Net-(JP605-A)*%
X252250000Y-128000000D03*
D22*
%TO.P,JP605,2,B*%
%TO.N,RxD*%
X253550000Y-128000000D03*
%TD*%
D23*
%TO.P,JP602,1,A*%
%TO.N,Net-(JP602-A)*%
X249900000Y-137800000D03*
D24*
%TO.P,JP602,2,B*%
%TO.N,SWDCLK*%
X249900000Y-139100000D03*
%TD*%
D21*
%TO.P,JP604,1,A*%
%TO.N,Net-(JP604-A)*%
X252250000Y-125500000D03*
D22*
%TO.P,JP604,2,B*%
%TO.N,TxD*%
X253550000Y-125500000D03*
%TD*%
D23*
%TO.P,JP603,1,A*%
%TO.N,Net-(JP603-A)*%
X252400000Y-137800000D03*
D24*
%TO.P,JP603,2,B*%
%TO.N,RESETn*%
X252400000Y-139100000D03*
%TD*%
D23*
%TO.P,JP601,1,A*%
%TO.N,Net-(JP601-A)*%
X247400000Y-137800000D03*
D24*
%TO.P,JP601,2,B*%
%TO.N,SWDIO*%
X247400000Y-139100000D03*
%TD*%
D25*
%TO.N,GND*%
X224100000Y-119600000D03*
X202295000Y-134600000D03*
X219600000Y-173600000D03*
X225700000Y-128380000D03*
X168485000Y-175300000D03*
X165900000Y-173020000D03*
X252900000Y-171625000D03*
X168485000Y-171900000D03*
X230390620Y-122145000D03*
X170700000Y-173575000D03*
X232800000Y-154880000D03*
X205600000Y-176220000D03*
X242800000Y-175200000D03*
X163100000Y-163750000D03*
X236620000Y-175400000D03*
X171347500Y-140700000D03*
X252900000Y-176775000D03*
X211800000Y-174774531D03*
X244600000Y-145825000D03*
X240200000Y-173975000D03*
X248000000Y-149700000D03*
X222063600Y-122063400D03*
X244100000Y-155800000D03*
X220387200Y-126138400D03*
X254000003Y-151800000D03*
X249550000Y-122400000D03*
X243275000Y-134400000D03*
X251700000Y-171500000D03*
X246400000Y-173700000D03*
X246800000Y-126100000D03*
X207800000Y-120120000D03*
X172147500Y-144000000D03*
X210500000Y-146400000D03*
X220793600Y-120819400D03*
X231000000Y-172900000D03*
X230990620Y-122145000D03*
X162025000Y-121325000D03*
X253300000Y-161390000D03*
X244300000Y-122300000D03*
X230479410Y-126138400D03*
X209100000Y-122350000D03*
X188100000Y-163750000D03*
X205700000Y-145137500D03*
X221180000Y-174680000D03*
X234845000Y-173755000D03*
X226200000Y-119800000D03*
X246400000Y-174700000D03*
X219879410Y-126138400D03*
X199987500Y-136700000D03*
X221428600Y-120819400D03*
X204587500Y-136700000D03*
X208980000Y-144900000D03*
X256300000Y-146350003D03*
X216832500Y-175332500D03*
X256300000Y-155150003D03*
X205355000Y-174265000D03*
X201400000Y-145137500D03*
X252900000Y-175125000D03*
X256800000Y-178200000D03*
X237900000Y-162250000D03*
X225700000Y-174200000D03*
X233500000Y-157650000D03*
X251690000Y-175000000D03*
X187025000Y-123400000D03*
%TO.N,/Project Architecture/Peripherals/VBAT*%
X228400000Y-119800000D03*
X228677316Y-124869129D03*
%TO.N,DISPLAY-BLK*%
X208812500Y-146087500D03*
X246881356Y-148023305D03*
%TO.N,QSPI-CS*%
X248500002Y-156100000D03*
X234700000Y-160800000D03*
%TO.N,QSPI-IO1*%
X247974002Y-155800000D03*
X236000000Y-160800000D03*
%TO.N,QSPI-IO2*%
X247400000Y-156100000D03*
X237200000Y-160800000D03*
%TO.N,QSPI-IO0*%
X238500000Y-153900000D03*
X246913051Y-153593475D03*
%TO.N,QSPI-CLK*%
X249044952Y-154600003D03*
X237081000Y-154351000D03*
%TO.N,QSPI-IO3*%
X247944949Y-153499999D03*
X235860000Y-153900000D03*
%TO.N,TOUCH-INT*%
X225000000Y-151600000D03*
X245750000Y-151294951D03*
%TO.N,TOUCH-SCL*%
X225300000Y-151100000D03*
X247000000Y-151325003D03*
%TO.N,TOUCH-SDA*%
X245744949Y-150200001D03*
X225000000Y-150500000D03*
%TO.N,TOUCH-RST*%
X229100000Y-148500000D03*
X247944951Y-148000000D03*
%TO.N,TOUCH-EN*%
X202295000Y-137300000D03*
X241600000Y-152200000D03*
X225300000Y-152200000D03*
X206300000Y-137300000D03*
%TO.N,RESETn*%
X244400000Y-137950000D03*
X253418644Y-153476695D03*
X252400000Y-140850000D03*
X257200000Y-165200000D03*
%TO.N,DISPLAY-CS*%
X204100000Y-141100000D03*
X219700000Y-141100000D03*
X243400000Y-152400000D03*
%TO.N,DISPLAY-CLK*%
X221400000Y-141600000D03*
X245200000Y-155800000D03*
X204500000Y-141600000D03*
%TO.N,+3V0*%
X224800000Y-164700000D03*
X208100000Y-139800000D03*
X236900000Y-164700000D03*
X199362500Y-139200000D03*
X254400000Y-173900000D03*
X213400000Y-119900000D03*
X193800000Y-151300000D03*
X213700000Y-122900000D03*
%TO.N,/Project Architecture/Power Management/VSYS*%
X228679410Y-124076400D03*
X225637790Y-120662210D03*
X222079410Y-123580400D03*
X231646620Y-126100000D03*
X236500000Y-125000000D03*
X252769644Y-169700000D03*
%TO.N,DISPLAY-DC*%
X219800000Y-142700000D03*
X242600000Y-154600000D03*
X204500000Y-142700000D03*
%TO.N,DISPLAY-RST*%
X223300000Y-140600000D03*
X204500000Y-140600000D03*
%TO.N,DISPLAY-DATA*%
X204100000Y-142100000D03*
X245744950Y-154600001D03*
X223100000Y-142100000D03*
%TO.N,/Project Architecture/MCU/PMIC-INT*%
X250700000Y-129400000D03*
X240600000Y-129400000D03*
%TO.N,/Project Architecture/MCU/USB-CC1*%
X236800000Y-118500000D03*
X247548187Y-124100000D03*
%TO.N,/Project Architecture/MCU/SW2*%
X227600000Y-166900000D03*
X189200000Y-166900000D03*
X226900000Y-127100000D03*
%TO.N,/Project Architecture/MCU/SDA*%
X236312500Y-170800000D03*
X251800000Y-152200000D03*
X243300000Y-170800000D03*
X227200000Y-170800000D03*
X238400000Y-128300000D03*
X218600000Y-170800000D03*
X211075000Y-170800000D03*
%TO.N,/Project Architecture/MCU/SCL*%
X244400000Y-171800000D03*
X211800000Y-171800000D03*
X237812500Y-171800000D03*
X250700000Y-152200000D03*
X228500000Y-171800000D03*
X219100000Y-171800000D03*
X237800000Y-127700000D03*
%TO.N,/Project Architecture/MCU/~{RTC-INT}*%
X205420000Y-175000000D03*
X213500000Y-175300000D03*
%TO.N,SWDCLK*%
X256600000Y-158700000D03*
X253325000Y-154475000D03*
%TO.N,SWDIO*%
X252318644Y-154576695D03*
X255300000Y-159300000D03*
%TO.N,/Project Architecture/MCU/BMI270-INT*%
X239300000Y-163200000D03*
X239300000Y-164800000D03*
%TO.N,/Project Architecture/MCU/LIS2MDL-INT*%
X248500000Y-152300000D03*
X235700000Y-174600000D03*
X241000000Y-174600000D03*
%TO.N,/Project Architecture/MCU/VIB-PWM*%
X240600000Y-130700000D03*
X249600000Y-131100000D03*
%TO.N,USB-D-*%
X247400000Y-142100000D03*
X246400000Y-142100000D03*
%TO.N,/Project Architecture/MCU/VIB-EN*%
X240600000Y-131800000D03*
X248500000Y-131800000D03*
%TO.N,TxD*%
X251226000Y-132270000D03*
%TO.N,/Project Architecture/MCU/D-*%
X247500000Y-122200000D03*
X246550000Y-122565184D03*
%TO.N,/Project Architecture/MCU/USB-VBUS-In*%
X251650000Y-178800000D03*
X235112500Y-122987500D03*
X239100000Y-118775000D03*
X253550000Y-173100000D03*
X253550000Y-170500000D03*
X247000000Y-128000000D03*
%TO.N,RxD*%
X253412500Y-129300000D03*
%TO.N,/Project Architecture/MCU/SW1*%
X188200000Y-123900000D03*
X223900000Y-165600000D03*
X250150000Y-153505049D03*
%TO.N,/Project Architecture/MCU/Data*%
X247500000Y-169000000D03*
X251300000Y-149400000D03*
%TO.N,/Project Architecture/MCU/SW4*%
X250181356Y-154576695D03*
X168300000Y-164400000D03*
X168300000Y-147700000D03*
X163100000Y-117750000D03*
%TO.N,/Project Architecture/MCU/SW3*%
X251800000Y-156100000D03*
X168400000Y-168250000D03*
%TO.N,/Project Architecture/MCU/MIC-CLK*%
X238300000Y-149650000D03*
X245813051Y-149193475D03*
%TO.N,/Project Architecture/MCU/WS*%
X246400000Y-168500000D03*
X250200000Y-149400000D03*
%TO.N,/Project Architecture/MCU/MIC-DATA*%
X244644950Y-149100001D03*
X167000000Y-176600000D03*
X167000000Y-171400000D03*
X237500000Y-149100000D03*
%TO.N,/Project Architecture/MCU/MCLK*%
X238800000Y-168000000D03*
X249600000Y-149100000D03*
%TO.N,Net-(IC604-B1)*%
X171347500Y-143300000D03*
X198587500Y-135600000D03*
%TO.N,Net-(IC604-B3)*%
X171647500Y-142200000D03*
X198587500Y-134500000D03*
%TO.N,Net-(IC604-B2)*%
X171647500Y-142800000D03*
X199187500Y-135100000D03*
%TO.N,Net-(IC604-B4)*%
X171347500Y-141700000D03*
X199187500Y-134000000D03*
%TO.N,Net-(M601C-P1.14)*%
X249081356Y-147976695D03*
X230600000Y-158300000D03*
%TO.N,Net-(M601B-P0.05{slash}AIN1)*%
X247944950Y-146900001D03*
X232200000Y-153220000D03*
%TO.N,Net-(M601B-P0.04{slash}AIN0)*%
X246913051Y-146993475D03*
X231400000Y-155760000D03*
%TO.N,Net-(M601B-P0.22)*%
X245774000Y-145600000D03*
X230700000Y-149700000D03*
%TO.N,Net-(X608-CTP-VDD)*%
X193900000Y-132100000D03*
%TO.N,Net-(IC505-VDD)*%
X206275000Y-119500000D03*
X208280000Y-119500000D03*
%TO.N,Net-(IC401-VOUT2)*%
X223206600Y-121380400D03*
X217697000Y-122900000D03*
%TO.N,/Project Architecture/Peripherals/VMIC*%
X225060000Y-119000000D03*
%TO.N,/Project Architecture/MCU/GPIO*%
X243300000Y-169800000D03*
%TO.N,Net-(JP601-A)*%
X245050000Y-124650000D03*
X248800000Y-120600000D03*
X245050000Y-136575000D03*
%TO.N,Net-(JP602-A)*%
X249300000Y-120300000D03*
X244550000Y-135000000D03*
X244550000Y-125100000D03*
%TO.N,Net-(JP603-A)*%
X245600000Y-132800000D03*
X247800000Y-120400000D03*
X245600000Y-124200000D03*
%TO.N,Net-(JP604-A)*%
X248550000Y-125500000D03*
X245300000Y-120800000D03*
%TO.N,Net-(JP605-A)*%
X249050000Y-128000000D03*
X244800000Y-120400000D03*
X253600000Y-122800000D03*
%TO.N,Net-(R603-Pad1)*%
X248300000Y-122300000D03*
X245800000Y-122300000D03*
%TD*%
D26*
%TO.N,/Project Architecture/Peripherals/VBAT*%
X228400000Y-120200000D02*
X229400000Y-121200000D01*
X229400000Y-124146445D02*
X228677316Y-124869129D01*
X228400000Y-119800000D02*
X228400000Y-120200000D01*
X229400000Y-121200000D02*
X229400000Y-124146445D01*
%TO.N,DISPLAY-BLK*%
X208812500Y-146087500D02*
X211300000Y-143600000D01*
X235000000Y-143600000D02*
X239423305Y-148023305D01*
X211300000Y-143600000D02*
X235000000Y-143600000D01*
X239423305Y-148023305D02*
X246881356Y-148023305D01*
%TO.N,QSPI-CS*%
X248500002Y-156599998D02*
X243400000Y-161700000D01*
X248500002Y-156100000D02*
X248500002Y-156599998D01*
X243400000Y-161700000D02*
X235600000Y-161700000D01*
X235600000Y-161700000D02*
X234700000Y-160800000D01*
%TO.N,QSPI-IO1*%
X247974002Y-156225998D02*
X242900000Y-161300000D01*
X242900000Y-161300000D02*
X236500000Y-161300000D01*
X236500000Y-161300000D02*
X236000000Y-160800000D01*
X247974002Y-155800000D02*
X247974002Y-156225998D01*
%TO.N,QSPI-IO2*%
X242700000Y-160800000D02*
X237200000Y-160800000D01*
X247400000Y-156100000D02*
X242700000Y-160800000D01*
%TO.N,QSPI-IO0*%
X238500000Y-153900000D02*
X238800000Y-153600000D01*
X238800000Y-153600000D02*
X246906526Y-153600000D01*
X246906526Y-153600000D02*
X246913051Y-153593475D01*
%TO.N,QSPI-CLK*%
X247295990Y-154840003D02*
X247295990Y-155118565D01*
X247895990Y-154360003D02*
X247895990Y-154231437D01*
X240600170Y-154100000D02*
X239600000Y-154100000D01*
X247895990Y-154840003D02*
X247895990Y-154360003D01*
X238269000Y-154351000D02*
X238149000Y-154351000D01*
X247895990Y-155118565D02*
X247895990Y-154840003D01*
X239109000Y-154591000D02*
X239109000Y-155111000D01*
X242450170Y-154100000D02*
X241800170Y-154100000D01*
X248855990Y-154600003D02*
X249044952Y-154600003D01*
X241320170Y-155100000D02*
X241200170Y-155100000D01*
X240960170Y-154860000D02*
X240960170Y-154340000D01*
X248735990Y-154600003D02*
X248855990Y-154600003D01*
X241560170Y-154340000D02*
X241560170Y-154860000D01*
X247535990Y-155358565D02*
X247655990Y-155358565D01*
X243100170Y-154100000D02*
X242450170Y-154100000D01*
X238149000Y-154351000D02*
X237084953Y-154351000D01*
X248495990Y-154231437D02*
X248495990Y-154360003D01*
X248135990Y-153991437D02*
X248255990Y-153991437D01*
X246500003Y-154600003D02*
X247055990Y-154600003D01*
X239600000Y-154100000D02*
X239349000Y-154351000D01*
X238869000Y-155351000D02*
X238749000Y-155351000D01*
X240720170Y-154100000D02*
X240600170Y-154100000D01*
X238509000Y-155111000D02*
X238509000Y-154591000D01*
X246000000Y-154100000D02*
X246500003Y-154600003D01*
X243100170Y-154100000D02*
X246000000Y-154100000D01*
X237084953Y-154351000D02*
X237081000Y-154351000D01*
X239349000Y-154351000D02*
G75*
G03*
X239109000Y-154591000I0J-240000D01*
G01*
X241800170Y-154100000D02*
G75*
G03*
X241560200Y-154340000I30J-240000D01*
G01*
X241560170Y-154860000D02*
G75*
G02*
X241320170Y-155099970I-239970J0D01*
G01*
X247055990Y-154600003D02*
G75*
G02*
X247295997Y-154840003I10J-239997D01*
G01*
X247295990Y-155118565D02*
G75*
G03*
X247535990Y-155358610I240010J-35D01*
G01*
X239109000Y-155111000D02*
G75*
G02*
X238869000Y-155351000I-240000J0D01*
G01*
X238749000Y-155351000D02*
G75*
G02*
X238509000Y-155111000I0J240000D01*
G01*
X240960170Y-154340000D02*
G75*
G03*
X240720170Y-154100030I-239970J0D01*
G01*
X238509000Y-154591000D02*
G75*
G03*
X238269000Y-154351000I-240000J0D01*
G01*
X247655990Y-155358565D02*
G75*
G03*
X247895965Y-155118565I10J239965D01*
G01*
X241200170Y-155100000D02*
G75*
G02*
X240960200Y-154860000I30J240000D01*
G01*
X247895990Y-154231437D02*
G75*
G02*
X248135990Y-153991390I240010J37D01*
G01*
X248495990Y-154360003D02*
G75*
G03*
X248735990Y-154600010I240010J3D01*
G01*
X248255990Y-153991437D02*
G75*
G02*
X248495963Y-154231437I10J-239963D01*
G01*
%TO.N,QSPI-IO3*%
X236600000Y-153900000D02*
X237400000Y-153100000D01*
X247544950Y-153100000D02*
X247944949Y-153499999D01*
X237400000Y-153100000D02*
X247544950Y-153100000D01*
X235860000Y-153900000D02*
X236600000Y-153900000D01*
%TO.N,TOUCH-INT*%
X225000000Y-151600000D02*
X245444951Y-151600000D01*
X245444951Y-151600000D02*
X245750000Y-151294951D01*
%TO.N,TOUCH-SCL*%
X225300000Y-151100000D02*
X245026000Y-151100000D01*
X245026000Y-151100000D02*
X245300000Y-150826000D01*
X245300000Y-150826000D02*
X246500997Y-150826000D01*
X246500997Y-150826000D02*
X247000000Y-151325003D01*
%TO.N,TOUCH-SDA*%
X244600000Y-150500000D02*
X225000000Y-150500000D01*
X245744949Y-150200001D02*
X244899999Y-150200001D01*
X244899999Y-150200001D02*
X244600000Y-150500000D01*
%TO.N,TOUCH-RST*%
X247444951Y-148500000D02*
X247944951Y-148000000D01*
X229100000Y-148500000D02*
X247444951Y-148500000D01*
%TO.N,TOUCH-EN*%
X206300000Y-137300000D02*
X202295000Y-137300000D01*
X225300000Y-152200000D02*
X241600000Y-152200000D01*
%TO.N,RESETn*%
X253800000Y-153858051D02*
X253418644Y-153476695D01*
X256700000Y-157700000D02*
X254800000Y-157700000D01*
X253800000Y-156700000D02*
X253800000Y-153858051D01*
X254800000Y-157700000D02*
X253800000Y-156700000D01*
X257200000Y-165200000D02*
X257200000Y-158200000D01*
X257200000Y-158200000D02*
X256700000Y-157700000D01*
X252400000Y-140850000D02*
X252400000Y-139100000D01*
%TO.N,DISPLAY-CS*%
X219700000Y-141100000D02*
X204100000Y-141100000D01*
%TO.N,DISPLAY-CLK*%
X204500000Y-141600000D02*
X221400000Y-141600000D01*
%TO.N,+3V0*%
X178100000Y-151300000D02*
X164900000Y-164500000D01*
X164900000Y-173060000D02*
X163200000Y-174760000D01*
X193800000Y-151300000D02*
X178100000Y-151300000D01*
X236900000Y-164700000D02*
X224800000Y-164700000D01*
X164900000Y-164500000D02*
X164900000Y-173060000D01*
%TO.N,/Project Architecture/Power Management/VSYS*%
X227362210Y-120662210D02*
X228679410Y-121979410D01*
X214500000Y-136500000D02*
X213000000Y-135000000D01*
X218500000Y-136500000D02*
X214500000Y-136500000D01*
X235400000Y-126100000D02*
X231646620Y-126100000D01*
X222862210Y-120662210D02*
X222568400Y-120368400D01*
X222568400Y-120368400D02*
X218700000Y-120368400D01*
X221040000Y-136500000D02*
X218500000Y-136500000D01*
X218368400Y-120700000D02*
X210300000Y-120700000D01*
X213000000Y-123400000D02*
X210300000Y-120700000D01*
X213000000Y-135000000D02*
X213000000Y-123400000D01*
X228679410Y-121979410D02*
X228679410Y-124076400D01*
X225637790Y-120662210D02*
X222862210Y-120662210D01*
X236500000Y-125000000D02*
X235400000Y-126100000D01*
X218700000Y-120368400D02*
X218368400Y-120700000D01*
X225637790Y-120662210D02*
X227362210Y-120662210D01*
X210300000Y-120700000D02*
X200900000Y-120700000D01*
%TO.N,DISPLAY-DC*%
X204500000Y-142700000D02*
X219800000Y-142700000D01*
%TO.N,DISPLAY-RST*%
X223300000Y-140600000D02*
X204500000Y-140600000D01*
%TO.N,DISPLAY-DATA*%
X223100000Y-142100000D02*
X204100000Y-142100000D01*
%TO.N,/Project Architecture/MCU/PMIC-INT*%
X250700000Y-129400000D02*
X240600000Y-129400000D01*
%TO.N,/Project Architecture/MCU/USB-CC1*%
X247048187Y-123600000D02*
X241900000Y-123600000D01*
X247548187Y-124100000D02*
X247048187Y-123600000D01*
X241900000Y-123600000D02*
X236800000Y-118500000D01*
%TO.N,/Project Architecture/MCU/SW2*%
X189200000Y-166900000D02*
X227600000Y-166900000D01*
%TO.N,/Project Architecture/MCU/SDA*%
X246900000Y-144200000D02*
X251800000Y-149100000D01*
X252500000Y-156000000D02*
X251800000Y-155300000D01*
X250800000Y-170800000D02*
X252500000Y-169100000D01*
X252500000Y-169100000D02*
X252500000Y-156000000D01*
X211075000Y-170800000D02*
X199030000Y-170800000D01*
X238400000Y-128300000D02*
X238400000Y-142600000D01*
X236312500Y-170800000D02*
X227200000Y-170800000D01*
X243300000Y-170800000D02*
X250800000Y-170800000D01*
X251800000Y-149100000D02*
X251800000Y-152200000D01*
X251800000Y-155300000D02*
X251800000Y-152200000D01*
X199030000Y-170800000D02*
X194800000Y-175030000D01*
X238400000Y-142600000D02*
X240000000Y-144200000D01*
X243300000Y-170800000D02*
X236312500Y-170800000D01*
X240000000Y-144200000D02*
X246900000Y-144200000D01*
X211075000Y-170800000D02*
X218600000Y-170800000D01*
X218600000Y-170800000D02*
X227200000Y-170800000D01*
%TO.N,/Project Architecture/MCU/SCL*%
X250700000Y-148900000D02*
X246700000Y-144900000D01*
X200570000Y-171800000D02*
X194800000Y-177570000D01*
X211800000Y-171800000D02*
X200570000Y-171800000D01*
X246700000Y-144900000D02*
X239900000Y-144900000D01*
X239900000Y-144900000D02*
X237800000Y-142800000D01*
X244400000Y-171800000D02*
X237812500Y-171800000D01*
X250700000Y-152200000D02*
X250700000Y-148900000D01*
X211800000Y-171800000D02*
X219100000Y-171800000D01*
X228500000Y-171800000D02*
X237812500Y-171800000D01*
X228500000Y-171800000D02*
X219100000Y-171800000D01*
X237800000Y-142800000D02*
X237800000Y-127700000D01*
%TO.N,/Project Architecture/MCU/~{RTC-INT}*%
X205720000Y-175300000D02*
X213500000Y-175300000D01*
X205420000Y-175000000D02*
X205720000Y-175300000D01*
%TO.N,SWDCLK*%
X249900000Y-139100000D02*
X249900000Y-145300000D01*
X255200000Y-158700000D02*
X253325000Y-156825000D01*
X249900000Y-145300000D02*
X252967644Y-148367644D01*
X253325000Y-156825000D02*
X253325000Y-154475000D01*
X252967644Y-148367644D02*
X252967644Y-154117644D01*
X256600000Y-158700000D02*
X255200000Y-158700000D01*
X252967644Y-154117644D02*
X253325000Y-154475000D01*
%TO.N,SWDIO*%
X252574000Y-148674000D02*
X252574000Y-154321339D01*
X247400000Y-139100000D02*
X247400000Y-140000000D01*
X253000000Y-155258051D02*
X252318644Y-154576695D01*
X249000000Y-145100000D02*
X252574000Y-148674000D01*
X252574000Y-154321339D02*
X252318644Y-154576695D01*
X249000000Y-141600000D02*
X249000000Y-145100000D01*
X253000000Y-157000000D02*
X253000000Y-155258051D01*
X255300000Y-159300000D02*
X253000000Y-157000000D01*
X247400000Y-140000000D02*
X249000000Y-141600000D01*
%TO.N,/Project Architecture/MCU/BMI270-INT*%
X239300000Y-163200000D02*
X239300000Y-164800000D01*
%TO.N,/Project Architecture/MCU/LIS2MDL-INT*%
X235700000Y-174600000D02*
X241000000Y-174600000D01*
%TO.N,/Project Architecture/MCU/VIB-PWM*%
X240600000Y-130700000D02*
X241000000Y-131100000D01*
X241000000Y-131100000D02*
X249600000Y-131100000D01*
D27*
%TO.N,USB-D-*%
X247400000Y-142100000D02*
X246400000Y-142100000D01*
D26*
%TO.N,/Project Architecture/MCU/VIB-EN*%
X248500000Y-131800000D02*
X240600000Y-131800000D01*
%TO.N,TxD*%
X255000000Y-125500000D02*
X253550000Y-125500000D01*
X255700000Y-132270000D02*
X255700000Y-126200000D01*
X251226000Y-132270000D02*
X255700000Y-132270000D01*
X255700000Y-126200000D02*
X255000000Y-125500000D01*
D28*
%TO.N,/Project Architecture/MCU/D-*%
X247134816Y-122565184D02*
X247500000Y-122200000D01*
X246550000Y-122565184D02*
X247134816Y-122565184D01*
D27*
%TO.N,/Project Architecture/MCU/USB-VBUS-In*%
X253550000Y-178050000D02*
X253550000Y-173100000D01*
X252800000Y-178800000D02*
X253550000Y-178050000D01*
X251650000Y-178800000D02*
X252800000Y-178800000D01*
D26*
%TO.N,RxD*%
X253412500Y-128000000D02*
X253412500Y-129300000D01*
X253412500Y-128000000D02*
X253412500Y-128362500D01*
%TO.N,/Project Architecture/MCU/SW1*%
X223900000Y-165600000D02*
X245200000Y-165600000D01*
X245200000Y-165600000D02*
X249730356Y-161069644D01*
X249730356Y-153924693D02*
X250150000Y-153505049D01*
X249730356Y-161069644D02*
X249730356Y-153924693D01*
%TO.N,/Project Architecture/MCU/Data*%
X181500000Y-175080000D02*
X184020000Y-175080000D01*
X184020000Y-175080000D02*
X190100000Y-169000000D01*
X190100000Y-169000000D02*
X247500000Y-169000000D01*
%TO.N,/Project Architecture/MCU/SW4*%
X190800000Y-166100000D02*
X245161034Y-166100000D01*
X247200000Y-164100000D02*
X250181356Y-161118644D01*
X186300000Y-166100000D02*
X184600000Y-164400000D01*
X168300000Y-122950000D02*
X163100000Y-117750000D01*
X250181356Y-161118644D02*
X250181356Y-154576695D01*
X168300000Y-147700000D02*
X168300000Y-122950000D01*
X184600000Y-164400000D02*
X168300000Y-164400000D01*
X247161034Y-164100000D02*
X247200000Y-164100000D01*
X245161034Y-166100000D02*
X247161034Y-164100000D01*
X190800000Y-166100000D02*
X186300000Y-166100000D01*
%TO.N,/Project Architecture/MCU/SW3*%
X251800000Y-160500000D02*
X244900000Y-167400000D01*
X183400000Y-165400000D02*
X171250000Y-165400000D01*
X171250000Y-165400000D02*
X168400000Y-168250000D01*
X185400000Y-167400000D02*
X183400000Y-165400000D01*
X244900000Y-167400000D02*
X185400000Y-167400000D01*
X251800000Y-156100000D02*
X251800000Y-160500000D01*
%TO.N,/Project Architecture/MCU/MIC-CLK*%
X238300000Y-149650000D02*
X245356526Y-149650000D01*
X245356526Y-149650000D02*
X245813051Y-149193475D01*
%TO.N,/Project Architecture/MCU/WS*%
X188060000Y-168500000D02*
X246400000Y-168500000D01*
X184020000Y-172540000D02*
X188060000Y-168500000D01*
X181500000Y-172540000D02*
X184020000Y-172540000D01*
%TO.N,/Project Architecture/MCU/MIC-DATA*%
X237500000Y-149100000D02*
X244644949Y-149100000D01*
X244644949Y-149100000D02*
X244644950Y-149100001D01*
X167000000Y-176600000D02*
X167000000Y-171400000D01*
%TO.N,/Project Architecture/MCU/MCLK*%
X181500000Y-170000000D02*
X184020000Y-170000000D01*
X186020000Y-168000000D02*
X238800000Y-168000000D01*
X184020000Y-170000000D02*
X186020000Y-168000000D01*
%TO.N,Net-(IC604-B1)*%
X181261034Y-135600000D02*
X198587500Y-135600000D01*
X181261034Y-135600000D02*
X173561034Y-143300000D01*
X173561034Y-143300000D02*
X171347500Y-143300000D01*
%TO.N,Net-(IC604-B3)*%
X181400000Y-134500000D02*
X173700000Y-142200000D01*
X173700000Y-142200000D02*
X171647500Y-142200000D01*
X181400000Y-134500000D02*
X198587500Y-134500000D01*
%TO.N,Net-(IC604-B2)*%
X173600000Y-142800000D02*
X171647500Y-142800000D01*
X181300000Y-135100000D02*
X199187500Y-135100000D01*
X181300000Y-135100000D02*
X173600000Y-142800000D01*
%TO.N,Net-(IC604-B4)*%
X181400000Y-134000000D02*
X199187500Y-134000000D01*
X181400000Y-134000000D02*
X173700000Y-141700000D01*
X173700000Y-141700000D02*
X171347500Y-141700000D01*
%TO.N,Net-(M601C-P1.14)*%
X220570000Y-156670000D02*
X222200000Y-158300000D01*
X222200000Y-158300000D02*
X230600000Y-158300000D01*
X218500000Y-156670000D02*
X220570000Y-156670000D01*
%TO.N,Net-(M601B-P0.05{slash}AIN1)*%
X221590000Y-151590000D02*
X218500000Y-151590000D01*
X232200000Y-153220000D02*
X223220000Y-153220000D01*
X223220000Y-153220000D02*
X221590000Y-151590000D01*
%TO.N,Net-(M601B-P0.04{slash}AIN0)*%
X220630000Y-154130000D02*
X218500000Y-154130000D01*
X231400000Y-155760000D02*
X222260000Y-155760000D01*
X222260000Y-155760000D02*
X220630000Y-154130000D01*
%TO.N,Net-(M601B-P0.22)*%
X218500000Y-149050000D02*
X220250000Y-149050000D01*
X220250000Y-149050000D02*
X220900000Y-149700000D01*
X220900000Y-149700000D02*
X230700000Y-149700000D01*
%TO.N,Net-(IC505-VDD)*%
X206275000Y-119500000D02*
X208280000Y-119500000D01*
D29*
%TO.N,Net-(IC401-VOUT2)*%
X217697000Y-122900000D02*
X219218600Y-121378400D01*
X223204600Y-121378400D02*
X223206600Y-121380400D01*
X219218600Y-121378400D02*
X223204600Y-121378400D01*
D26*
%TO.N,/Project Architecture/MCU/GPIO*%
X243300000Y-169800000D02*
X192700000Y-169800000D01*
X184880000Y-177620000D02*
X181500000Y-177620000D01*
X192700000Y-169800000D02*
X184880000Y-177620000D01*
%TO.N,Net-(JP601-A)*%
X245050000Y-136575000D02*
X246275000Y-137800000D01*
X246275000Y-137800000D02*
X247400000Y-137800000D01*
%TO.N,Net-(JP602-A)*%
X249900000Y-137800000D02*
X249900000Y-135987500D01*
X248912500Y-135000000D02*
X244550000Y-135000000D01*
X249900000Y-135987500D02*
X248912500Y-135000000D01*
%TO.N,Net-(JP603-A)*%
X248700000Y-132800000D02*
X252400000Y-136500000D01*
X245600000Y-132800000D02*
X248700000Y-132800000D01*
X252400000Y-136500000D02*
X252400000Y-137800000D01*
%TO.N,Net-(JP604-A)*%
X251300000Y-119300000D02*
X252250000Y-120250000D01*
X245300000Y-119800000D02*
X245800000Y-119300000D01*
X252250000Y-120250000D02*
X252250000Y-125500000D01*
X248550000Y-125500000D02*
X252250000Y-125500000D01*
X245300000Y-120800000D02*
X245300000Y-119800000D01*
X245800000Y-119300000D02*
X251300000Y-119300000D01*
%TO.N,Net-(JP605-A)*%
X244800000Y-119800000D02*
X245700000Y-118900000D01*
X244800000Y-120400000D02*
X244800000Y-119800000D01*
X251500000Y-118900000D02*
X253600000Y-121000000D01*
X245700000Y-118900000D02*
X251500000Y-118900000D01*
X249050000Y-128000000D02*
X252250000Y-128000000D01*
X253600000Y-121000000D02*
X253600000Y-122800000D01*
%TD*%
%TA.AperFunction,Conductor*%
%TO.N,/Project Architecture/Power Management/VSYS*%
G36*
X223798829Y-123207085D02*
G01*
X223844584Y-123259889D01*
X223855790Y-123311400D01*
X223855790Y-125092400D01*
X224109790Y-125346400D01*
X226649790Y-125346400D01*
X226903790Y-125092400D01*
X226903790Y-123946400D01*
X226923475Y-123879361D01*
X226976279Y-123833606D01*
X227027790Y-123822400D01*
X228815320Y-123822400D01*
X228882359Y-123842085D01*
X228928114Y-123894889D01*
X228939319Y-123945824D01*
X228940650Y-124232119D01*
X228932064Y-124261868D01*
X228925484Y-124292121D01*
X228921985Y-124296794D01*
X228921277Y-124299249D01*
X228904333Y-124320375D01*
X228744402Y-124480309D01*
X228683079Y-124513795D01*
X228656720Y-124516629D01*
X228630908Y-124516629D01*
X228541255Y-124540651D01*
X228460876Y-124587059D01*
X228460873Y-124587061D01*
X228395248Y-124652686D01*
X228395246Y-124652689D01*
X228348838Y-124733068D01*
X228348838Y-124733069D01*
X228324816Y-124822721D01*
X228324816Y-124915537D01*
X228348838Y-125005189D01*
X228395246Y-125085569D01*
X228460876Y-125151199D01*
X228541256Y-125197607D01*
X228630908Y-125221629D01*
X228630910Y-125221629D01*
X228723722Y-125221629D01*
X228723724Y-125221629D01*
X228789635Y-125203968D01*
X228814345Y-125204556D01*
X228838803Y-125200923D01*
X228848667Y-125205372D01*
X228859483Y-125205630D01*
X228879956Y-125219486D01*
X228902493Y-125229652D01*
X228908384Y-125238725D01*
X228917346Y-125244791D01*
X228927078Y-125267518D01*
X228940541Y-125288253D01*
X228942975Y-125304639D01*
X228944851Y-125309020D01*
X228945727Y-125323164D01*
X228946197Y-125424051D01*
X228926825Y-125491182D01*
X228909879Y-125512310D01*
X227588109Y-126834081D01*
X227526786Y-126867566D01*
X227500428Y-126870400D01*
X227220272Y-126870400D01*
X227153233Y-126850715D01*
X227132591Y-126834081D01*
X227116442Y-126817932D01*
X227116440Y-126817930D01*
X227036060Y-126771522D01*
X226946408Y-126747500D01*
X226853592Y-126747500D01*
X226763939Y-126771522D01*
X226683560Y-126817930D01*
X226683557Y-126817932D01*
X226667409Y-126834081D01*
X226606086Y-126867566D01*
X226579728Y-126870400D01*
X223399152Y-126870400D01*
X223332113Y-126850715D01*
X223311471Y-126834081D01*
X221733109Y-125255719D01*
X221699624Y-125194396D01*
X221696790Y-125168038D01*
X221696790Y-123311400D01*
X221716475Y-123244361D01*
X221769279Y-123198606D01*
X221820790Y-123187400D01*
X223731790Y-123187400D01*
X223798829Y-123207085D01*
G37*
%TD.AperFunction*%
%TD*%
M02*
